%TF.GenerationSoftware,KiCad,Pcbnew,10.0.2*%
%TF.CreationDate,2026-08-04T19:58:44+10:00*%
%TF.ProjectId,pedal-counter,70656461-6c2d-4636-9f75-6e7465722e6b,rev?*%
%TF.SameCoordinates,Original*%
%TF.FileFunction,Legend,Top*%
%TF.FilePolarity,Positive*%
%FSLAX46Y46*%
G04 Gerber Fmt 4.6, Leading zero omitted, Abs format (unit mm)*
G04 Created by KiCad (PCBNEW 10.0.2) date 2026-08-04 19:58:44*
%MOMM*%
%LPD*%
G01*
G04 APERTURE LIST*
G04 Aperture macros list*
%AMRoundRect*
0 Rectangle with rounded corners*
0 $1 Rounding radius*
0 $2 $3 $4 $5 $6 $7 $8 $9 X,Y pos of 4 corners*
0 Add a 4 corners polygon primitive as box body*
4,1,4,$2,$3,$4,$5,$6,$7,$8,$9,$2,$3,0*
0 Add four circle primitives for the rounded corners*
1,1,$1+$1,$2,$3*
1,1,$1+$1,$4,$5*
1,1,$1+$1,$6,$7*
1,1,$1+$1,$8,$9*
0 Add four rect primitives between the rounded corners*
20,1,$1+$1,$2,$3,$4,$5,0*
20,1,$1+$1,$4,$5,$6,$7,0*
20,1,$1+$1,$6,$7,$8,$9,0*
20,1,$1+$1,$8,$9,$2,$3,0*%
G04 Aperture macros list end*
%ADD10C,0.150000*%
%ADD11C,0.100000*%
%ADD12C,0.120000*%
%ADD13C,2.000000*%
%ADD14C,1.700000*%
%ADD15R,1.800000X1.800000*%
%ADD16C,1.800000*%
%ADD17C,1.600000*%
%ADD18C,1.900000*%
%ADD19C,3.600000*%
%ADD20RoundRect,0.250000X-1.050000X-0.550000X1.050000X-0.550000X1.050000X0.550000X-1.050000X0.550000X0*%
%ADD21O,2.600000X1.600000*%
G04 APERTURE END LIST*
D10*
X89666667Y-68907200D02*
X89809524Y-68954819D01*
X89809524Y-68954819D02*
X90047619Y-68954819D01*
X90047619Y-68954819D02*
X90142857Y-68907200D01*
X90142857Y-68907200D02*
X90190476Y-68859580D01*
X90190476Y-68859580D02*
X90238095Y-68764342D01*
X90238095Y-68764342D02*
X90238095Y-68669104D01*
X90238095Y-68669104D02*
X90190476Y-68573866D01*
X90190476Y-68573866D02*
X90142857Y-68526247D01*
X90142857Y-68526247D02*
X90047619Y-68478628D01*
X90047619Y-68478628D02*
X89857143Y-68431009D01*
X89857143Y-68431009D02*
X89761905Y-68383390D01*
X89761905Y-68383390D02*
X89714286Y-68335771D01*
X89714286Y-68335771D02*
X89666667Y-68240533D01*
X89666667Y-68240533D02*
X89666667Y-68145295D01*
X89666667Y-68145295D02*
X89714286Y-68050057D01*
X89714286Y-68050057D02*
X89761905Y-68002438D01*
X89761905Y-68002438D02*
X89857143Y-67954819D01*
X89857143Y-67954819D02*
X90095238Y-67954819D01*
X90095238Y-67954819D02*
X90238095Y-68002438D01*
X90571429Y-67954819D02*
X90809524Y-68954819D01*
X90809524Y-68954819D02*
X91000000Y-68240533D01*
X91000000Y-68240533D02*
X91190476Y-68954819D01*
X91190476Y-68954819D02*
X91428572Y-67954819D01*
X92333333Y-68954819D02*
X91761905Y-68954819D01*
X92047619Y-68954819D02*
X92047619Y-67954819D01*
X92047619Y-67954819D02*
X91952381Y-68097676D01*
X91952381Y-68097676D02*
X91857143Y-68192914D01*
X91857143Y-68192914D02*
X91761905Y-68240533D01*
X87309524Y-73704819D02*
X87309524Y-72704819D01*
X87309524Y-72704819D02*
X87880952Y-73704819D01*
X87880952Y-73704819D02*
X87880952Y-72704819D01*
X88357143Y-73181009D02*
X88690476Y-73181009D01*
X88833333Y-73704819D02*
X88357143Y-73704819D01*
X88357143Y-73704819D02*
X88357143Y-72704819D01*
X88357143Y-72704819D02*
X88833333Y-72704819D01*
X89166667Y-72704819D02*
X89404762Y-73704819D01*
X89404762Y-73704819D02*
X89595238Y-72990533D01*
X89595238Y-72990533D02*
X89785714Y-73704819D01*
X89785714Y-73704819D02*
X90023810Y-72704819D01*
X91119047Y-72657200D02*
X90261905Y-73942914D01*
X91928571Y-73704819D02*
X91452381Y-73704819D01*
X91452381Y-73704819D02*
X91452381Y-72704819D01*
X92452381Y-72704819D02*
X92642857Y-72704819D01*
X92642857Y-72704819D02*
X92738095Y-72752438D01*
X92738095Y-72752438D02*
X92833333Y-72847676D01*
X92833333Y-72847676D02*
X92880952Y-73038152D01*
X92880952Y-73038152D02*
X92880952Y-73371485D01*
X92880952Y-73371485D02*
X92833333Y-73561961D01*
X92833333Y-73561961D02*
X92738095Y-73657200D01*
X92738095Y-73657200D02*
X92642857Y-73704819D01*
X92642857Y-73704819D02*
X92452381Y-73704819D01*
X92452381Y-73704819D02*
X92357143Y-73657200D01*
X92357143Y-73657200D02*
X92261905Y-73561961D01*
X92261905Y-73561961D02*
X92214286Y-73371485D01*
X92214286Y-73371485D02*
X92214286Y-73038152D01*
X92214286Y-73038152D02*
X92261905Y-72847676D01*
X92261905Y-72847676D02*
X92357143Y-72752438D01*
X92357143Y-72752438D02*
X92452381Y-72704819D01*
X93261905Y-73419104D02*
X93738095Y-73419104D01*
X93166667Y-73704819D02*
X93500000Y-72704819D01*
X93500000Y-72704819D02*
X93833333Y-73704819D01*
X94166667Y-73704819D02*
X94166667Y-72704819D01*
X94166667Y-72704819D02*
X94404762Y-72704819D01*
X94404762Y-72704819D02*
X94547619Y-72752438D01*
X94547619Y-72752438D02*
X94642857Y-72847676D01*
X94642857Y-72847676D02*
X94690476Y-72942914D01*
X94690476Y-72942914D02*
X94738095Y-73133390D01*
X94738095Y-73133390D02*
X94738095Y-73276247D01*
X94738095Y-73276247D02*
X94690476Y-73466723D01*
X94690476Y-73466723D02*
X94642857Y-73561961D01*
X94642857Y-73561961D02*
X94547619Y-73657200D01*
X94547619Y-73657200D02*
X94404762Y-73704819D01*
X94404762Y-73704819D02*
X94166667Y-73704819D01*
D11*
X109968095Y-77457419D02*
X109968095Y-78266942D01*
X109968095Y-78266942D02*
X110015714Y-78362180D01*
X110015714Y-78362180D02*
X110063333Y-78409800D01*
X110063333Y-78409800D02*
X110158571Y-78457419D01*
X110158571Y-78457419D02*
X110349047Y-78457419D01*
X110349047Y-78457419D02*
X110444285Y-78409800D01*
X110444285Y-78409800D02*
X110491904Y-78362180D01*
X110491904Y-78362180D02*
X110539523Y-78266942D01*
X110539523Y-78266942D02*
X110539523Y-77457419D01*
X111539523Y-78457419D02*
X110968095Y-78457419D01*
X111253809Y-78457419D02*
X111253809Y-77457419D01*
X111253809Y-77457419D02*
X111158571Y-77600276D01*
X111158571Y-77600276D02*
X111063333Y-77695514D01*
X111063333Y-77695514D02*
X110968095Y-77743133D01*
D10*
X101587143Y-80454819D02*
X101587143Y-79454819D01*
X101587143Y-79454819D02*
X101968095Y-79454819D01*
X101968095Y-79454819D02*
X102063333Y-79502438D01*
X102063333Y-79502438D02*
X102110952Y-79550057D01*
X102110952Y-79550057D02*
X102158571Y-79645295D01*
X102158571Y-79645295D02*
X102158571Y-79788152D01*
X102158571Y-79788152D02*
X102110952Y-79883390D01*
X102110952Y-79883390D02*
X102063333Y-79931009D01*
X102063333Y-79931009D02*
X101968095Y-79978628D01*
X101968095Y-79978628D02*
X101587143Y-79978628D01*
X102587143Y-80454819D02*
X102587143Y-79454819D01*
X103063333Y-80454819D02*
X103063333Y-79454819D01*
X104110951Y-80359580D02*
X104063332Y-80407200D01*
X104063332Y-80407200D02*
X103920475Y-80454819D01*
X103920475Y-80454819D02*
X103825237Y-80454819D01*
X103825237Y-80454819D02*
X103682380Y-80407200D01*
X103682380Y-80407200D02*
X103587142Y-80311961D01*
X103587142Y-80311961D02*
X103539523Y-80216723D01*
X103539523Y-80216723D02*
X103491904Y-80026247D01*
X103491904Y-80026247D02*
X103491904Y-79883390D01*
X103491904Y-79883390D02*
X103539523Y-79692914D01*
X103539523Y-79692914D02*
X103587142Y-79597676D01*
X103587142Y-79597676D02*
X103682380Y-79502438D01*
X103682380Y-79502438D02*
X103825237Y-79454819D01*
X103825237Y-79454819D02*
X103920475Y-79454819D01*
X103920475Y-79454819D02*
X104063332Y-79502438D01*
X104063332Y-79502438D02*
X104110951Y-79550057D01*
X104729999Y-79454819D02*
X104920475Y-79454819D01*
X104920475Y-79454819D02*
X105015713Y-79502438D01*
X105015713Y-79502438D02*
X105110951Y-79597676D01*
X105110951Y-79597676D02*
X105158570Y-79788152D01*
X105158570Y-79788152D02*
X105158570Y-80121485D01*
X105158570Y-80121485D02*
X105110951Y-80311961D01*
X105110951Y-80311961D02*
X105015713Y-80407200D01*
X105015713Y-80407200D02*
X104920475Y-80454819D01*
X104920475Y-80454819D02*
X104729999Y-80454819D01*
X104729999Y-80454819D02*
X104634761Y-80407200D01*
X104634761Y-80407200D02*
X104539523Y-80311961D01*
X104539523Y-80311961D02*
X104491904Y-80121485D01*
X104491904Y-80121485D02*
X104491904Y-79788152D01*
X104491904Y-79788152D02*
X104539523Y-79597676D01*
X104539523Y-79597676D02*
X104634761Y-79502438D01*
X104634761Y-79502438D02*
X104729999Y-79454819D01*
X105587142Y-80454819D02*
X105587142Y-79454819D01*
X105587142Y-79454819D02*
X105825237Y-79454819D01*
X105825237Y-79454819D02*
X105968094Y-79502438D01*
X105968094Y-79502438D02*
X106063332Y-79597676D01*
X106063332Y-79597676D02*
X106110951Y-79692914D01*
X106110951Y-79692914D02*
X106158570Y-79883390D01*
X106158570Y-79883390D02*
X106158570Y-80026247D01*
X106158570Y-80026247D02*
X106110951Y-80216723D01*
X106110951Y-80216723D02*
X106063332Y-80311961D01*
X106063332Y-80311961D02*
X105968094Y-80407200D01*
X105968094Y-80407200D02*
X105825237Y-80454819D01*
X105825237Y-80454819D02*
X105587142Y-80454819D01*
X106587142Y-79931009D02*
X106920475Y-79931009D01*
X107063332Y-80454819D02*
X106587142Y-80454819D01*
X106587142Y-80454819D02*
X106587142Y-79454819D01*
X106587142Y-79454819D02*
X107063332Y-79454819D01*
X107349047Y-79454819D02*
X107682380Y-80454819D01*
X107682380Y-80454819D02*
X108015713Y-79454819D01*
X108110952Y-80550057D02*
X108872856Y-80550057D01*
X109301428Y-79454819D02*
X109491904Y-79454819D01*
X109491904Y-79454819D02*
X109587142Y-79502438D01*
X109587142Y-79502438D02*
X109682380Y-79597676D01*
X109682380Y-79597676D02*
X109729999Y-79788152D01*
X109729999Y-79788152D02*
X109729999Y-80121485D01*
X109729999Y-80121485D02*
X109682380Y-80311961D01*
X109682380Y-80311961D02*
X109587142Y-80407200D01*
X109587142Y-80407200D02*
X109491904Y-80454819D01*
X109491904Y-80454819D02*
X109301428Y-80454819D01*
X109301428Y-80454819D02*
X109206190Y-80407200D01*
X109206190Y-80407200D02*
X109110952Y-80311961D01*
X109110952Y-80311961D02*
X109063333Y-80121485D01*
X109063333Y-80121485D02*
X109063333Y-79788152D01*
X109063333Y-79788152D02*
X109110952Y-79597676D01*
X109110952Y-79597676D02*
X109206190Y-79502438D01*
X109206190Y-79502438D02*
X109301428Y-79454819D01*
X110634761Y-80454819D02*
X110158571Y-80454819D01*
X110158571Y-80454819D02*
X110158571Y-79454819D01*
X110968095Y-79931009D02*
X111301428Y-79931009D01*
X111444285Y-80454819D02*
X110968095Y-80454819D01*
X110968095Y-80454819D02*
X110968095Y-79454819D01*
X110968095Y-79454819D02*
X111444285Y-79454819D01*
X111872857Y-80454819D02*
X111872857Y-79454819D01*
X111872857Y-79454819D02*
X112110952Y-79454819D01*
X112110952Y-79454819D02*
X112253809Y-79502438D01*
X112253809Y-79502438D02*
X112349047Y-79597676D01*
X112349047Y-79597676D02*
X112396666Y-79692914D01*
X112396666Y-79692914D02*
X112444285Y-79883390D01*
X112444285Y-79883390D02*
X112444285Y-80026247D01*
X112444285Y-80026247D02*
X112396666Y-80216723D01*
X112396666Y-80216723D02*
X112349047Y-80311961D01*
X112349047Y-80311961D02*
X112253809Y-80407200D01*
X112253809Y-80407200D02*
X112110952Y-80454819D01*
X112110952Y-80454819D02*
X111872857Y-80454819D01*
X112634762Y-80550057D02*
X113396666Y-80550057D01*
X113587143Y-80407200D02*
X113730000Y-80454819D01*
X113730000Y-80454819D02*
X113968095Y-80454819D01*
X113968095Y-80454819D02*
X114063333Y-80407200D01*
X114063333Y-80407200D02*
X114110952Y-80359580D01*
X114110952Y-80359580D02*
X114158571Y-80264342D01*
X114158571Y-80264342D02*
X114158571Y-80169104D01*
X114158571Y-80169104D02*
X114110952Y-80073866D01*
X114110952Y-80073866D02*
X114063333Y-80026247D01*
X114063333Y-80026247D02*
X113968095Y-79978628D01*
X113968095Y-79978628D02*
X113777619Y-79931009D01*
X113777619Y-79931009D02*
X113682381Y-79883390D01*
X113682381Y-79883390D02*
X113634762Y-79835771D01*
X113634762Y-79835771D02*
X113587143Y-79740533D01*
X113587143Y-79740533D02*
X113587143Y-79645295D01*
X113587143Y-79645295D02*
X113634762Y-79550057D01*
X113634762Y-79550057D02*
X113682381Y-79502438D01*
X113682381Y-79502438D02*
X113777619Y-79454819D01*
X113777619Y-79454819D02*
X114015714Y-79454819D01*
X114015714Y-79454819D02*
X114158571Y-79502438D01*
X114539524Y-80407200D02*
X114682381Y-80454819D01*
X114682381Y-80454819D02*
X114920476Y-80454819D01*
X114920476Y-80454819D02*
X115015714Y-80407200D01*
X115015714Y-80407200D02*
X115063333Y-80359580D01*
X115063333Y-80359580D02*
X115110952Y-80264342D01*
X115110952Y-80264342D02*
X115110952Y-80169104D01*
X115110952Y-80169104D02*
X115063333Y-80073866D01*
X115063333Y-80073866D02*
X115015714Y-80026247D01*
X115015714Y-80026247D02*
X114920476Y-79978628D01*
X114920476Y-79978628D02*
X114730000Y-79931009D01*
X114730000Y-79931009D02*
X114634762Y-79883390D01*
X114634762Y-79883390D02*
X114587143Y-79835771D01*
X114587143Y-79835771D02*
X114539524Y-79740533D01*
X114539524Y-79740533D02*
X114539524Y-79645295D01*
X114539524Y-79645295D02*
X114587143Y-79550057D01*
X114587143Y-79550057D02*
X114634762Y-79502438D01*
X114634762Y-79502438D02*
X114730000Y-79454819D01*
X114730000Y-79454819D02*
X114968095Y-79454819D01*
X114968095Y-79454819D02*
X115110952Y-79502438D01*
X115539524Y-80454819D02*
X115539524Y-79454819D01*
X115539524Y-79454819D02*
X115777619Y-79454819D01*
X115777619Y-79454819D02*
X115920476Y-79502438D01*
X115920476Y-79502438D02*
X116015714Y-79597676D01*
X116015714Y-79597676D02*
X116063333Y-79692914D01*
X116063333Y-79692914D02*
X116110952Y-79883390D01*
X116110952Y-79883390D02*
X116110952Y-80026247D01*
X116110952Y-80026247D02*
X116063333Y-80216723D01*
X116063333Y-80216723D02*
X116015714Y-80311961D01*
X116015714Y-80311961D02*
X115920476Y-80407200D01*
X115920476Y-80407200D02*
X115777619Y-80454819D01*
X115777619Y-80454819D02*
X115539524Y-80454819D01*
X117063333Y-80454819D02*
X116491905Y-80454819D01*
X116777619Y-80454819D02*
X116777619Y-79454819D01*
X116777619Y-79454819D02*
X116682381Y-79597676D01*
X116682381Y-79597676D02*
X116587143Y-79692914D01*
X116587143Y-79692914D02*
X116491905Y-79740533D01*
X117396667Y-79454819D02*
X118015714Y-79454819D01*
X118015714Y-79454819D02*
X117682381Y-79835771D01*
X117682381Y-79835771D02*
X117825238Y-79835771D01*
X117825238Y-79835771D02*
X117920476Y-79883390D01*
X117920476Y-79883390D02*
X117968095Y-79931009D01*
X117968095Y-79931009D02*
X118015714Y-80026247D01*
X118015714Y-80026247D02*
X118015714Y-80264342D01*
X118015714Y-80264342D02*
X117968095Y-80359580D01*
X117968095Y-80359580D02*
X117920476Y-80407200D01*
X117920476Y-80407200D02*
X117825238Y-80454819D01*
X117825238Y-80454819D02*
X117539524Y-80454819D01*
X117539524Y-80454819D02*
X117444286Y-80407200D01*
X117444286Y-80407200D02*
X117396667Y-80359580D01*
X118634762Y-79454819D02*
X118730000Y-79454819D01*
X118730000Y-79454819D02*
X118825238Y-79502438D01*
X118825238Y-79502438D02*
X118872857Y-79550057D01*
X118872857Y-79550057D02*
X118920476Y-79645295D01*
X118920476Y-79645295D02*
X118968095Y-79835771D01*
X118968095Y-79835771D02*
X118968095Y-80073866D01*
X118968095Y-80073866D02*
X118920476Y-80264342D01*
X118920476Y-80264342D02*
X118872857Y-80359580D01*
X118872857Y-80359580D02*
X118825238Y-80407200D01*
X118825238Y-80407200D02*
X118730000Y-80454819D01*
X118730000Y-80454819D02*
X118634762Y-80454819D01*
X118634762Y-80454819D02*
X118539524Y-80407200D01*
X118539524Y-80407200D02*
X118491905Y-80359580D01*
X118491905Y-80359580D02*
X118444286Y-80264342D01*
X118444286Y-80264342D02*
X118396667Y-80073866D01*
X118396667Y-80073866D02*
X118396667Y-79835771D01*
X118396667Y-79835771D02*
X118444286Y-79645295D01*
X118444286Y-79645295D02*
X118491905Y-79550057D01*
X118491905Y-79550057D02*
X118539524Y-79502438D01*
X118539524Y-79502438D02*
X118634762Y-79454819D01*
X119825238Y-79454819D02*
X119634762Y-79454819D01*
X119634762Y-79454819D02*
X119539524Y-79502438D01*
X119539524Y-79502438D02*
X119491905Y-79550057D01*
X119491905Y-79550057D02*
X119396667Y-79692914D01*
X119396667Y-79692914D02*
X119349048Y-79883390D01*
X119349048Y-79883390D02*
X119349048Y-80264342D01*
X119349048Y-80264342D02*
X119396667Y-80359580D01*
X119396667Y-80359580D02*
X119444286Y-80407200D01*
X119444286Y-80407200D02*
X119539524Y-80454819D01*
X119539524Y-80454819D02*
X119730000Y-80454819D01*
X119730000Y-80454819D02*
X119825238Y-80407200D01*
X119825238Y-80407200D02*
X119872857Y-80359580D01*
X119872857Y-80359580D02*
X119920476Y-80264342D01*
X119920476Y-80264342D02*
X119920476Y-80026247D01*
X119920476Y-80026247D02*
X119872857Y-79931009D01*
X119872857Y-79931009D02*
X119825238Y-79883390D01*
X119825238Y-79883390D02*
X119730000Y-79835771D01*
X119730000Y-79835771D02*
X119539524Y-79835771D01*
X119539524Y-79835771D02*
X119444286Y-79883390D01*
X119444286Y-79883390D02*
X119396667Y-79931009D01*
X119396667Y-79931009D02*
X119349048Y-80026247D01*
X102986905Y-53454819D02*
X102986905Y-52454819D01*
X102986905Y-52454819D02*
X103225000Y-52454819D01*
X103225000Y-52454819D02*
X103367857Y-52502438D01*
X103367857Y-52502438D02*
X103463095Y-52597676D01*
X103463095Y-52597676D02*
X103510714Y-52692914D01*
X103510714Y-52692914D02*
X103558333Y-52883390D01*
X103558333Y-52883390D02*
X103558333Y-53026247D01*
X103558333Y-53026247D02*
X103510714Y-53216723D01*
X103510714Y-53216723D02*
X103463095Y-53311961D01*
X103463095Y-53311961D02*
X103367857Y-53407200D01*
X103367857Y-53407200D02*
X103225000Y-53454819D01*
X103225000Y-53454819D02*
X102986905Y-53454819D01*
X103939286Y-52550057D02*
X103986905Y-52502438D01*
X103986905Y-52502438D02*
X104082143Y-52454819D01*
X104082143Y-52454819D02*
X104320238Y-52454819D01*
X104320238Y-52454819D02*
X104415476Y-52502438D01*
X104415476Y-52502438D02*
X104463095Y-52550057D01*
X104463095Y-52550057D02*
X104510714Y-52645295D01*
X104510714Y-52645295D02*
X104510714Y-52740533D01*
X104510714Y-52740533D02*
X104463095Y-52883390D01*
X104463095Y-52883390D02*
X103891667Y-53454819D01*
X103891667Y-53454819D02*
X104510714Y-53454819D01*
X105748809Y-49407200D02*
X105891666Y-49454819D01*
X105891666Y-49454819D02*
X106129761Y-49454819D01*
X106129761Y-49454819D02*
X106224999Y-49407200D01*
X106224999Y-49407200D02*
X106272618Y-49359580D01*
X106272618Y-49359580D02*
X106320237Y-49264342D01*
X106320237Y-49264342D02*
X106320237Y-49169104D01*
X106320237Y-49169104D02*
X106272618Y-49073866D01*
X106272618Y-49073866D02*
X106224999Y-49026247D01*
X106224999Y-49026247D02*
X106129761Y-48978628D01*
X106129761Y-48978628D02*
X105939285Y-48931009D01*
X105939285Y-48931009D02*
X105844047Y-48883390D01*
X105844047Y-48883390D02*
X105796428Y-48835771D01*
X105796428Y-48835771D02*
X105748809Y-48740533D01*
X105748809Y-48740533D02*
X105748809Y-48645295D01*
X105748809Y-48645295D02*
X105796428Y-48550057D01*
X105796428Y-48550057D02*
X105844047Y-48502438D01*
X105844047Y-48502438D02*
X105939285Y-48454819D01*
X105939285Y-48454819D02*
X106177380Y-48454819D01*
X106177380Y-48454819D02*
X106320237Y-48502438D01*
X106605952Y-48454819D02*
X107177380Y-48454819D01*
X106891666Y-49454819D02*
X106891666Y-48454819D01*
X107463095Y-49169104D02*
X107939285Y-49169104D01*
X107367857Y-49454819D02*
X107701190Y-48454819D01*
X107701190Y-48454819D02*
X108034523Y-49454819D01*
X108225000Y-48454819D02*
X108796428Y-48454819D01*
X108510714Y-49454819D02*
X108510714Y-48454819D01*
X109129762Y-48454819D02*
X109129762Y-49264342D01*
X109129762Y-49264342D02*
X109177381Y-49359580D01*
X109177381Y-49359580D02*
X109225000Y-49407200D01*
X109225000Y-49407200D02*
X109320238Y-49454819D01*
X109320238Y-49454819D02*
X109510714Y-49454819D01*
X109510714Y-49454819D02*
X109605952Y-49407200D01*
X109605952Y-49407200D02*
X109653571Y-49359580D01*
X109653571Y-49359580D02*
X109701190Y-49264342D01*
X109701190Y-49264342D02*
X109701190Y-48454819D01*
X110129762Y-49407200D02*
X110272619Y-49454819D01*
X110272619Y-49454819D02*
X110510714Y-49454819D01*
X110510714Y-49454819D02*
X110605952Y-49407200D01*
X110605952Y-49407200D02*
X110653571Y-49359580D01*
X110653571Y-49359580D02*
X110701190Y-49264342D01*
X110701190Y-49264342D02*
X110701190Y-49169104D01*
X110701190Y-49169104D02*
X110653571Y-49073866D01*
X110653571Y-49073866D02*
X110605952Y-49026247D01*
X110605952Y-49026247D02*
X110510714Y-48978628D01*
X110510714Y-48978628D02*
X110320238Y-48931009D01*
X110320238Y-48931009D02*
X110225000Y-48883390D01*
X110225000Y-48883390D02*
X110177381Y-48835771D01*
X110177381Y-48835771D02*
X110129762Y-48740533D01*
X110129762Y-48740533D02*
X110129762Y-48645295D01*
X110129762Y-48645295D02*
X110177381Y-48550057D01*
X110177381Y-48550057D02*
X110225000Y-48502438D01*
X110225000Y-48502438D02*
X110320238Y-48454819D01*
X110320238Y-48454819D02*
X110558333Y-48454819D01*
X110558333Y-48454819D02*
X110701190Y-48502438D01*
X89666667Y-80407200D02*
X89809524Y-80454819D01*
X89809524Y-80454819D02*
X90047619Y-80454819D01*
X90047619Y-80454819D02*
X90142857Y-80407200D01*
X90142857Y-80407200D02*
X90190476Y-80359580D01*
X90190476Y-80359580D02*
X90238095Y-80264342D01*
X90238095Y-80264342D02*
X90238095Y-80169104D01*
X90238095Y-80169104D02*
X90190476Y-80073866D01*
X90190476Y-80073866D02*
X90142857Y-80026247D01*
X90142857Y-80026247D02*
X90047619Y-79978628D01*
X90047619Y-79978628D02*
X89857143Y-79931009D01*
X89857143Y-79931009D02*
X89761905Y-79883390D01*
X89761905Y-79883390D02*
X89714286Y-79835771D01*
X89714286Y-79835771D02*
X89666667Y-79740533D01*
X89666667Y-79740533D02*
X89666667Y-79645295D01*
X89666667Y-79645295D02*
X89714286Y-79550057D01*
X89714286Y-79550057D02*
X89761905Y-79502438D01*
X89761905Y-79502438D02*
X89857143Y-79454819D01*
X89857143Y-79454819D02*
X90095238Y-79454819D01*
X90095238Y-79454819D02*
X90238095Y-79502438D01*
X90571429Y-79454819D02*
X90809524Y-80454819D01*
X90809524Y-80454819D02*
X91000000Y-79740533D01*
X91000000Y-79740533D02*
X91190476Y-80454819D01*
X91190476Y-80454819D02*
X91428572Y-79454819D01*
X91714286Y-79454819D02*
X92333333Y-79454819D01*
X92333333Y-79454819D02*
X92000000Y-79835771D01*
X92000000Y-79835771D02*
X92142857Y-79835771D01*
X92142857Y-79835771D02*
X92238095Y-79883390D01*
X92238095Y-79883390D02*
X92285714Y-79931009D01*
X92285714Y-79931009D02*
X92333333Y-80026247D01*
X92333333Y-80026247D02*
X92333333Y-80264342D01*
X92333333Y-80264342D02*
X92285714Y-80359580D01*
X92285714Y-80359580D02*
X92238095Y-80407200D01*
X92238095Y-80407200D02*
X92142857Y-80454819D01*
X92142857Y-80454819D02*
X91857143Y-80454819D01*
X91857143Y-80454819D02*
X91761905Y-80407200D01*
X91761905Y-80407200D02*
X91714286Y-80359580D01*
X87619048Y-85204819D02*
X87619048Y-84204819D01*
X88095238Y-85204819D02*
X88095238Y-84204819D01*
X88095238Y-84204819D02*
X88666666Y-85204819D01*
X88666666Y-85204819D02*
X88666666Y-84204819D01*
X89714285Y-85109580D02*
X89666666Y-85157200D01*
X89666666Y-85157200D02*
X89523809Y-85204819D01*
X89523809Y-85204819D02*
X89428571Y-85204819D01*
X89428571Y-85204819D02*
X89285714Y-85157200D01*
X89285714Y-85157200D02*
X89190476Y-85061961D01*
X89190476Y-85061961D02*
X89142857Y-84966723D01*
X89142857Y-84966723D02*
X89095238Y-84776247D01*
X89095238Y-84776247D02*
X89095238Y-84633390D01*
X89095238Y-84633390D02*
X89142857Y-84442914D01*
X89142857Y-84442914D02*
X89190476Y-84347676D01*
X89190476Y-84347676D02*
X89285714Y-84252438D01*
X89285714Y-84252438D02*
X89428571Y-84204819D01*
X89428571Y-84204819D02*
X89523809Y-84204819D01*
X89523809Y-84204819D02*
X89666666Y-84252438D01*
X89666666Y-84252438D02*
X89714285Y-84300057D01*
X90857142Y-84157200D02*
X90000000Y-85442914D01*
X91190476Y-85204819D02*
X91190476Y-84204819D01*
X91190476Y-84204819D02*
X91761904Y-85204819D01*
X91761904Y-85204819D02*
X91761904Y-84204819D01*
X92238095Y-84681009D02*
X92571428Y-84681009D01*
X92714285Y-85204819D02*
X92238095Y-85204819D01*
X92238095Y-85204819D02*
X92238095Y-84204819D01*
X92238095Y-84204819D02*
X92714285Y-84204819D01*
X93047619Y-84204819D02*
X93714285Y-85204819D01*
X93714285Y-84204819D02*
X93047619Y-85204819D01*
X93952381Y-84204819D02*
X94523809Y-84204819D01*
X94238095Y-85204819D02*
X94238095Y-84204819D01*
X116833333Y-96954819D02*
X116500000Y-96478628D01*
X116261905Y-96954819D02*
X116261905Y-95954819D01*
X116261905Y-95954819D02*
X116642857Y-95954819D01*
X116642857Y-95954819D02*
X116738095Y-96002438D01*
X116738095Y-96002438D02*
X116785714Y-96050057D01*
X116785714Y-96050057D02*
X116833333Y-96145295D01*
X116833333Y-96145295D02*
X116833333Y-96288152D01*
X116833333Y-96288152D02*
X116785714Y-96383390D01*
X116785714Y-96383390D02*
X116738095Y-96431009D01*
X116738095Y-96431009D02*
X116642857Y-96478628D01*
X116642857Y-96478628D02*
X116261905Y-96478628D01*
X117690476Y-96288152D02*
X117690476Y-96954819D01*
X117452381Y-95907200D02*
X117214286Y-96621485D01*
X117214286Y-96621485D02*
X117833333Y-96621485D01*
X119026905Y-53454819D02*
X119026905Y-52454819D01*
X119026905Y-52454819D02*
X119265000Y-52454819D01*
X119265000Y-52454819D02*
X119407857Y-52502438D01*
X119407857Y-52502438D02*
X119503095Y-52597676D01*
X119503095Y-52597676D02*
X119550714Y-52692914D01*
X119550714Y-52692914D02*
X119598333Y-52883390D01*
X119598333Y-52883390D02*
X119598333Y-53026247D01*
X119598333Y-53026247D02*
X119550714Y-53216723D01*
X119550714Y-53216723D02*
X119503095Y-53311961D01*
X119503095Y-53311961D02*
X119407857Y-53407200D01*
X119407857Y-53407200D02*
X119265000Y-53454819D01*
X119265000Y-53454819D02*
X119026905Y-53454819D01*
X120550714Y-53454819D02*
X119979286Y-53454819D01*
X120265000Y-53454819D02*
X120265000Y-52454819D01*
X120265000Y-52454819D02*
X120169762Y-52597676D01*
X120169762Y-52597676D02*
X120074524Y-52692914D01*
X120074524Y-52692914D02*
X119979286Y-52740533D01*
X113455476Y-49454819D02*
X113455476Y-48454819D01*
X113455476Y-48454819D02*
X113836428Y-48454819D01*
X113836428Y-48454819D02*
X113931666Y-48502438D01*
X113931666Y-48502438D02*
X113979285Y-48550057D01*
X113979285Y-48550057D02*
X114026904Y-48645295D01*
X114026904Y-48645295D02*
X114026904Y-48788152D01*
X114026904Y-48788152D02*
X113979285Y-48883390D01*
X113979285Y-48883390D02*
X113931666Y-48931009D01*
X113931666Y-48931009D02*
X113836428Y-48978628D01*
X113836428Y-48978628D02*
X113455476Y-48978628D01*
X114645952Y-48454819D02*
X114836428Y-48454819D01*
X114836428Y-48454819D02*
X114931666Y-48502438D01*
X114931666Y-48502438D02*
X115026904Y-48597676D01*
X115026904Y-48597676D02*
X115074523Y-48788152D01*
X115074523Y-48788152D02*
X115074523Y-49121485D01*
X115074523Y-49121485D02*
X115026904Y-49311961D01*
X115026904Y-49311961D02*
X114931666Y-49407200D01*
X114931666Y-49407200D02*
X114836428Y-49454819D01*
X114836428Y-49454819D02*
X114645952Y-49454819D01*
X114645952Y-49454819D02*
X114550714Y-49407200D01*
X114550714Y-49407200D02*
X114455476Y-49311961D01*
X114455476Y-49311961D02*
X114407857Y-49121485D01*
X114407857Y-49121485D02*
X114407857Y-48788152D01*
X114407857Y-48788152D02*
X114455476Y-48597676D01*
X114455476Y-48597676D02*
X114550714Y-48502438D01*
X114550714Y-48502438D02*
X114645952Y-48454819D01*
X115407857Y-48454819D02*
X115645952Y-49454819D01*
X115645952Y-49454819D02*
X115836428Y-48740533D01*
X115836428Y-48740533D02*
X116026904Y-49454819D01*
X116026904Y-49454819D02*
X116265000Y-48454819D01*
X116645952Y-48931009D02*
X116979285Y-48931009D01*
X117122142Y-49454819D02*
X116645952Y-49454819D01*
X116645952Y-49454819D02*
X116645952Y-48454819D01*
X116645952Y-48454819D02*
X117122142Y-48454819D01*
X118122142Y-49454819D02*
X117788809Y-48978628D01*
X117550714Y-49454819D02*
X117550714Y-48454819D01*
X117550714Y-48454819D02*
X117931666Y-48454819D01*
X117931666Y-48454819D02*
X118026904Y-48502438D01*
X118026904Y-48502438D02*
X118074523Y-48550057D01*
X118074523Y-48550057D02*
X118122142Y-48645295D01*
X118122142Y-48645295D02*
X118122142Y-48788152D01*
X118122142Y-48788152D02*
X118074523Y-48883390D01*
X118074523Y-48883390D02*
X118026904Y-48931009D01*
X118026904Y-48931009D02*
X117931666Y-48978628D01*
X117931666Y-48978628D02*
X117550714Y-48978628D01*
X104333333Y-101954819D02*
X104000000Y-101478628D01*
X103761905Y-101954819D02*
X103761905Y-100954819D01*
X103761905Y-100954819D02*
X104142857Y-100954819D01*
X104142857Y-100954819D02*
X104238095Y-101002438D01*
X104238095Y-101002438D02*
X104285714Y-101050057D01*
X104285714Y-101050057D02*
X104333333Y-101145295D01*
X104333333Y-101145295D02*
X104333333Y-101288152D01*
X104333333Y-101288152D02*
X104285714Y-101383390D01*
X104285714Y-101383390D02*
X104238095Y-101431009D01*
X104238095Y-101431009D02*
X104142857Y-101478628D01*
X104142857Y-101478628D02*
X103761905Y-101478628D01*
X105238095Y-100954819D02*
X104761905Y-100954819D01*
X104761905Y-100954819D02*
X104714286Y-101431009D01*
X104714286Y-101431009D02*
X104761905Y-101383390D01*
X104761905Y-101383390D02*
X104857143Y-101335771D01*
X104857143Y-101335771D02*
X105095238Y-101335771D01*
X105095238Y-101335771D02*
X105190476Y-101383390D01*
X105190476Y-101383390D02*
X105238095Y-101431009D01*
X105238095Y-101431009D02*
X105285714Y-101526247D01*
X105285714Y-101526247D02*
X105285714Y-101764342D01*
X105285714Y-101764342D02*
X105238095Y-101859580D01*
X105238095Y-101859580D02*
X105190476Y-101907200D01*
X105190476Y-101907200D02*
X105095238Y-101954819D01*
X105095238Y-101954819D02*
X104857143Y-101954819D01*
X104857143Y-101954819D02*
X104761905Y-101907200D01*
X104761905Y-101907200D02*
X104714286Y-101859580D01*
X104333333Y-96954819D02*
X104000000Y-96478628D01*
X103761905Y-96954819D02*
X103761905Y-95954819D01*
X103761905Y-95954819D02*
X104142857Y-95954819D01*
X104142857Y-95954819D02*
X104238095Y-96002438D01*
X104238095Y-96002438D02*
X104285714Y-96050057D01*
X104285714Y-96050057D02*
X104333333Y-96145295D01*
X104333333Y-96145295D02*
X104333333Y-96288152D01*
X104333333Y-96288152D02*
X104285714Y-96383390D01*
X104285714Y-96383390D02*
X104238095Y-96431009D01*
X104238095Y-96431009D02*
X104142857Y-96478628D01*
X104142857Y-96478628D02*
X103761905Y-96478628D01*
X104666667Y-95954819D02*
X105285714Y-95954819D01*
X105285714Y-95954819D02*
X104952381Y-96335771D01*
X104952381Y-96335771D02*
X105095238Y-96335771D01*
X105095238Y-96335771D02*
X105190476Y-96383390D01*
X105190476Y-96383390D02*
X105238095Y-96431009D01*
X105238095Y-96431009D02*
X105285714Y-96526247D01*
X105285714Y-96526247D02*
X105285714Y-96764342D01*
X105285714Y-96764342D02*
X105238095Y-96859580D01*
X105238095Y-96859580D02*
X105190476Y-96907200D01*
X105190476Y-96907200D02*
X105095238Y-96954819D01*
X105095238Y-96954819D02*
X104809524Y-96954819D01*
X104809524Y-96954819D02*
X104714286Y-96907200D01*
X104714286Y-96907200D02*
X104666667Y-96859580D01*
X104983333Y-58954819D02*
X104650000Y-58478628D01*
X104411905Y-58954819D02*
X104411905Y-57954819D01*
X104411905Y-57954819D02*
X104792857Y-57954819D01*
X104792857Y-57954819D02*
X104888095Y-58002438D01*
X104888095Y-58002438D02*
X104935714Y-58050057D01*
X104935714Y-58050057D02*
X104983333Y-58145295D01*
X104983333Y-58145295D02*
X104983333Y-58288152D01*
X104983333Y-58288152D02*
X104935714Y-58383390D01*
X104935714Y-58383390D02*
X104888095Y-58431009D01*
X104888095Y-58431009D02*
X104792857Y-58478628D01*
X104792857Y-58478628D02*
X104411905Y-58478628D01*
X105364286Y-58050057D02*
X105411905Y-58002438D01*
X105411905Y-58002438D02*
X105507143Y-57954819D01*
X105507143Y-57954819D02*
X105745238Y-57954819D01*
X105745238Y-57954819D02*
X105840476Y-58002438D01*
X105840476Y-58002438D02*
X105888095Y-58050057D01*
X105888095Y-58050057D02*
X105935714Y-58145295D01*
X105935714Y-58145295D02*
X105935714Y-58240533D01*
X105935714Y-58240533D02*
X105888095Y-58383390D01*
X105888095Y-58383390D02*
X105316667Y-58954819D01*
X105316667Y-58954819D02*
X105935714Y-58954819D01*
D11*
X91166666Y-57457419D02*
X91166666Y-58171704D01*
X91166666Y-58171704D02*
X91119047Y-58314561D01*
X91119047Y-58314561D02*
X91023809Y-58409800D01*
X91023809Y-58409800D02*
X90880952Y-58457419D01*
X90880952Y-58457419D02*
X90785714Y-58457419D01*
X92166666Y-58457419D02*
X91595238Y-58457419D01*
X91880952Y-58457419D02*
X91880952Y-57457419D01*
X91880952Y-57457419D02*
X91785714Y-57600276D01*
X91785714Y-57600276D02*
X91690476Y-57695514D01*
X91690476Y-57695514D02*
X91595238Y-57743133D01*
D10*
X86238095Y-55907200D02*
X86380952Y-55954819D01*
X86380952Y-55954819D02*
X86619047Y-55954819D01*
X86619047Y-55954819D02*
X86714285Y-55907200D01*
X86714285Y-55907200D02*
X86761904Y-55859580D01*
X86761904Y-55859580D02*
X86809523Y-55764342D01*
X86809523Y-55764342D02*
X86809523Y-55669104D01*
X86809523Y-55669104D02*
X86761904Y-55573866D01*
X86761904Y-55573866D02*
X86714285Y-55526247D01*
X86714285Y-55526247D02*
X86619047Y-55478628D01*
X86619047Y-55478628D02*
X86428571Y-55431009D01*
X86428571Y-55431009D02*
X86333333Y-55383390D01*
X86333333Y-55383390D02*
X86285714Y-55335771D01*
X86285714Y-55335771D02*
X86238095Y-55240533D01*
X86238095Y-55240533D02*
X86238095Y-55145295D01*
X86238095Y-55145295D02*
X86285714Y-55050057D01*
X86285714Y-55050057D02*
X86333333Y-55002438D01*
X86333333Y-55002438D02*
X86428571Y-54954819D01*
X86428571Y-54954819D02*
X86666666Y-54954819D01*
X86666666Y-54954819D02*
X86809523Y-55002438D01*
X87095238Y-54954819D02*
X87666666Y-54954819D01*
X87380952Y-55954819D02*
X87380952Y-54954819D01*
X87904762Y-54954819D02*
X88571428Y-55954819D01*
X88571428Y-54954819D02*
X87904762Y-55954819D01*
X88952381Y-55573866D02*
X89714286Y-55573866D01*
X90095238Y-54954819D02*
X90714285Y-54954819D01*
X90714285Y-54954819D02*
X90380952Y-55335771D01*
X90380952Y-55335771D02*
X90523809Y-55335771D01*
X90523809Y-55335771D02*
X90619047Y-55383390D01*
X90619047Y-55383390D02*
X90666666Y-55431009D01*
X90666666Y-55431009D02*
X90714285Y-55526247D01*
X90714285Y-55526247D02*
X90714285Y-55764342D01*
X90714285Y-55764342D02*
X90666666Y-55859580D01*
X90666666Y-55859580D02*
X90619047Y-55907200D01*
X90619047Y-55907200D02*
X90523809Y-55954819D01*
X90523809Y-55954819D02*
X90238095Y-55954819D01*
X90238095Y-55954819D02*
X90142857Y-55907200D01*
X90142857Y-55907200D02*
X90095238Y-55859580D01*
X91666666Y-55954819D02*
X91095238Y-55954819D01*
X91380952Y-55954819D02*
X91380952Y-54954819D01*
X91380952Y-54954819D02*
X91285714Y-55097676D01*
X91285714Y-55097676D02*
X91190476Y-55192914D01*
X91190476Y-55192914D02*
X91095238Y-55240533D01*
X92047619Y-55050057D02*
X92095238Y-55002438D01*
X92095238Y-55002438D02*
X92190476Y-54954819D01*
X92190476Y-54954819D02*
X92428571Y-54954819D01*
X92428571Y-54954819D02*
X92523809Y-55002438D01*
X92523809Y-55002438D02*
X92571428Y-55050057D01*
X92571428Y-55050057D02*
X92619047Y-55145295D01*
X92619047Y-55145295D02*
X92619047Y-55240533D01*
X92619047Y-55240533D02*
X92571428Y-55383390D01*
X92571428Y-55383390D02*
X92000000Y-55954819D01*
X92000000Y-55954819D02*
X92619047Y-55954819D01*
X93238095Y-54954819D02*
X93333333Y-54954819D01*
X93333333Y-54954819D02*
X93428571Y-55002438D01*
X93428571Y-55002438D02*
X93476190Y-55050057D01*
X93476190Y-55050057D02*
X93523809Y-55145295D01*
X93523809Y-55145295D02*
X93571428Y-55335771D01*
X93571428Y-55335771D02*
X93571428Y-55573866D01*
X93571428Y-55573866D02*
X93523809Y-55764342D01*
X93523809Y-55764342D02*
X93476190Y-55859580D01*
X93476190Y-55859580D02*
X93428571Y-55907200D01*
X93428571Y-55907200D02*
X93333333Y-55954819D01*
X93333333Y-55954819D02*
X93238095Y-55954819D01*
X93238095Y-55954819D02*
X93142857Y-55907200D01*
X93142857Y-55907200D02*
X93095238Y-55859580D01*
X93095238Y-55859580D02*
X93047619Y-55764342D01*
X93047619Y-55764342D02*
X93000000Y-55573866D01*
X93000000Y-55573866D02*
X93000000Y-55335771D01*
X93000000Y-55335771D02*
X93047619Y-55145295D01*
X93047619Y-55145295D02*
X93095238Y-55050057D01*
X93095238Y-55050057D02*
X93142857Y-55002438D01*
X93142857Y-55002438D02*
X93238095Y-54954819D01*
X94000000Y-55573866D02*
X94761905Y-55573866D01*
X95142857Y-54954819D02*
X95761904Y-54954819D01*
X95761904Y-54954819D02*
X95428571Y-55335771D01*
X95428571Y-55335771D02*
X95571428Y-55335771D01*
X95571428Y-55335771D02*
X95666666Y-55383390D01*
X95666666Y-55383390D02*
X95714285Y-55431009D01*
X95714285Y-55431009D02*
X95761904Y-55526247D01*
X95761904Y-55526247D02*
X95761904Y-55764342D01*
X95761904Y-55764342D02*
X95714285Y-55859580D01*
X95714285Y-55859580D02*
X95666666Y-55907200D01*
X95666666Y-55907200D02*
X95571428Y-55954819D01*
X95571428Y-55954819D02*
X95285714Y-55954819D01*
X95285714Y-55954819D02*
X95190476Y-55907200D01*
X95190476Y-55907200D02*
X95142857Y-55859580D01*
X96523809Y-55431009D02*
X96666666Y-55478628D01*
X96666666Y-55478628D02*
X96714285Y-55526247D01*
X96714285Y-55526247D02*
X96761904Y-55621485D01*
X96761904Y-55621485D02*
X96761904Y-55764342D01*
X96761904Y-55764342D02*
X96714285Y-55859580D01*
X96714285Y-55859580D02*
X96666666Y-55907200D01*
X96666666Y-55907200D02*
X96571428Y-55954819D01*
X96571428Y-55954819D02*
X96190476Y-55954819D01*
X96190476Y-55954819D02*
X96190476Y-54954819D01*
X96190476Y-54954819D02*
X96523809Y-54954819D01*
X96523809Y-54954819D02*
X96619047Y-55002438D01*
X96619047Y-55002438D02*
X96666666Y-55050057D01*
X96666666Y-55050057D02*
X96714285Y-55145295D01*
X96714285Y-55145295D02*
X96714285Y-55240533D01*
X96714285Y-55240533D02*
X96666666Y-55335771D01*
X96666666Y-55335771D02*
X96619047Y-55383390D01*
X96619047Y-55383390D02*
X96523809Y-55431009D01*
X96523809Y-55431009D02*
X96190476Y-55431009D01*
X117563333Y-58954819D02*
X117230000Y-58478628D01*
X116991905Y-58954819D02*
X116991905Y-57954819D01*
X116991905Y-57954819D02*
X117372857Y-57954819D01*
X117372857Y-57954819D02*
X117468095Y-58002438D01*
X117468095Y-58002438D02*
X117515714Y-58050057D01*
X117515714Y-58050057D02*
X117563333Y-58145295D01*
X117563333Y-58145295D02*
X117563333Y-58288152D01*
X117563333Y-58288152D02*
X117515714Y-58383390D01*
X117515714Y-58383390D02*
X117468095Y-58431009D01*
X117468095Y-58431009D02*
X117372857Y-58478628D01*
X117372857Y-58478628D02*
X116991905Y-58478628D01*
X118515714Y-58954819D02*
X117944286Y-58954819D01*
X118230000Y-58954819D02*
X118230000Y-57954819D01*
X118230000Y-57954819D02*
X118134762Y-58097676D01*
X118134762Y-58097676D02*
X118039524Y-58192914D01*
X118039524Y-58192914D02*
X117944286Y-58240533D01*
X89666667Y-91907200D02*
X89809524Y-91954819D01*
X89809524Y-91954819D02*
X90047619Y-91954819D01*
X90047619Y-91954819D02*
X90142857Y-91907200D01*
X90142857Y-91907200D02*
X90190476Y-91859580D01*
X90190476Y-91859580D02*
X90238095Y-91764342D01*
X90238095Y-91764342D02*
X90238095Y-91669104D01*
X90238095Y-91669104D02*
X90190476Y-91573866D01*
X90190476Y-91573866D02*
X90142857Y-91526247D01*
X90142857Y-91526247D02*
X90047619Y-91478628D01*
X90047619Y-91478628D02*
X89857143Y-91431009D01*
X89857143Y-91431009D02*
X89761905Y-91383390D01*
X89761905Y-91383390D02*
X89714286Y-91335771D01*
X89714286Y-91335771D02*
X89666667Y-91240533D01*
X89666667Y-91240533D02*
X89666667Y-91145295D01*
X89666667Y-91145295D02*
X89714286Y-91050057D01*
X89714286Y-91050057D02*
X89761905Y-91002438D01*
X89761905Y-91002438D02*
X89857143Y-90954819D01*
X89857143Y-90954819D02*
X90095238Y-90954819D01*
X90095238Y-90954819D02*
X90238095Y-91002438D01*
X90571429Y-90954819D02*
X90809524Y-91954819D01*
X90809524Y-91954819D02*
X91000000Y-91240533D01*
X91000000Y-91240533D02*
X91190476Y-91954819D01*
X91190476Y-91954819D02*
X91428572Y-90954819D01*
X91761905Y-91050057D02*
X91809524Y-91002438D01*
X91809524Y-91002438D02*
X91904762Y-90954819D01*
X91904762Y-90954819D02*
X92142857Y-90954819D01*
X92142857Y-90954819D02*
X92238095Y-91002438D01*
X92238095Y-91002438D02*
X92285714Y-91050057D01*
X92285714Y-91050057D02*
X92333333Y-91145295D01*
X92333333Y-91145295D02*
X92333333Y-91240533D01*
X92333333Y-91240533D02*
X92285714Y-91383390D01*
X92285714Y-91383390D02*
X91714286Y-91954819D01*
X91714286Y-91954819D02*
X92333333Y-91954819D01*
X87130952Y-96704819D02*
X87130952Y-95704819D01*
X87130952Y-95704819D02*
X87369047Y-95704819D01*
X87369047Y-95704819D02*
X87511904Y-95752438D01*
X87511904Y-95752438D02*
X87607142Y-95847676D01*
X87607142Y-95847676D02*
X87654761Y-95942914D01*
X87654761Y-95942914D02*
X87702380Y-96133390D01*
X87702380Y-96133390D02*
X87702380Y-96276247D01*
X87702380Y-96276247D02*
X87654761Y-96466723D01*
X87654761Y-96466723D02*
X87607142Y-96561961D01*
X87607142Y-96561961D02*
X87511904Y-96657200D01*
X87511904Y-96657200D02*
X87369047Y-96704819D01*
X87369047Y-96704819D02*
X87130952Y-96704819D01*
X88130952Y-96181009D02*
X88464285Y-96181009D01*
X88607142Y-96704819D02*
X88130952Y-96704819D01*
X88130952Y-96704819D02*
X88130952Y-95704819D01*
X88130952Y-95704819D02*
X88607142Y-95704819D01*
X89607142Y-96609580D02*
X89559523Y-96657200D01*
X89559523Y-96657200D02*
X89416666Y-96704819D01*
X89416666Y-96704819D02*
X89321428Y-96704819D01*
X89321428Y-96704819D02*
X89178571Y-96657200D01*
X89178571Y-96657200D02*
X89083333Y-96561961D01*
X89083333Y-96561961D02*
X89035714Y-96466723D01*
X89035714Y-96466723D02*
X88988095Y-96276247D01*
X88988095Y-96276247D02*
X88988095Y-96133390D01*
X88988095Y-96133390D02*
X89035714Y-95942914D01*
X89035714Y-95942914D02*
X89083333Y-95847676D01*
X89083333Y-95847676D02*
X89178571Y-95752438D01*
X89178571Y-95752438D02*
X89321428Y-95704819D01*
X89321428Y-95704819D02*
X89416666Y-95704819D01*
X89416666Y-95704819D02*
X89559523Y-95752438D01*
X89559523Y-95752438D02*
X89607142Y-95800057D01*
X90749999Y-95657200D02*
X89892857Y-96942914D01*
X91083333Y-96704819D02*
X91083333Y-95704819D01*
X91083333Y-95704819D02*
X91464285Y-95704819D01*
X91464285Y-95704819D02*
X91559523Y-95752438D01*
X91559523Y-95752438D02*
X91607142Y-95800057D01*
X91607142Y-95800057D02*
X91654761Y-95895295D01*
X91654761Y-95895295D02*
X91654761Y-96038152D01*
X91654761Y-96038152D02*
X91607142Y-96133390D01*
X91607142Y-96133390D02*
X91559523Y-96181009D01*
X91559523Y-96181009D02*
X91464285Y-96228628D01*
X91464285Y-96228628D02*
X91083333Y-96228628D01*
X92654761Y-96704819D02*
X92321428Y-96228628D01*
X92083333Y-96704819D02*
X92083333Y-95704819D01*
X92083333Y-95704819D02*
X92464285Y-95704819D01*
X92464285Y-95704819D02*
X92559523Y-95752438D01*
X92559523Y-95752438D02*
X92607142Y-95800057D01*
X92607142Y-95800057D02*
X92654761Y-95895295D01*
X92654761Y-95895295D02*
X92654761Y-96038152D01*
X92654761Y-96038152D02*
X92607142Y-96133390D01*
X92607142Y-96133390D02*
X92559523Y-96181009D01*
X92559523Y-96181009D02*
X92464285Y-96228628D01*
X92464285Y-96228628D02*
X92083333Y-96228628D01*
X93083333Y-96181009D02*
X93416666Y-96181009D01*
X93559523Y-96704819D02*
X93083333Y-96704819D01*
X93083333Y-96704819D02*
X93083333Y-95704819D01*
X93083333Y-95704819D02*
X93559523Y-95704819D01*
X93845238Y-95704819D02*
X94178571Y-96704819D01*
X94178571Y-96704819D02*
X94511904Y-95704819D01*
X137206667Y-107407200D02*
X137349524Y-107454819D01*
X137349524Y-107454819D02*
X137587619Y-107454819D01*
X137587619Y-107454819D02*
X137682857Y-107407200D01*
X137682857Y-107407200D02*
X137730476Y-107359580D01*
X137730476Y-107359580D02*
X137778095Y-107264342D01*
X137778095Y-107264342D02*
X137778095Y-107169104D01*
X137778095Y-107169104D02*
X137730476Y-107073866D01*
X137730476Y-107073866D02*
X137682857Y-107026247D01*
X137682857Y-107026247D02*
X137587619Y-106978628D01*
X137587619Y-106978628D02*
X137397143Y-106931009D01*
X137397143Y-106931009D02*
X137301905Y-106883390D01*
X137301905Y-106883390D02*
X137254286Y-106835771D01*
X137254286Y-106835771D02*
X137206667Y-106740533D01*
X137206667Y-106740533D02*
X137206667Y-106645295D01*
X137206667Y-106645295D02*
X137254286Y-106550057D01*
X137254286Y-106550057D02*
X137301905Y-106502438D01*
X137301905Y-106502438D02*
X137397143Y-106454819D01*
X137397143Y-106454819D02*
X137635238Y-106454819D01*
X137635238Y-106454819D02*
X137778095Y-106502438D01*
X138111429Y-106454819D02*
X138349524Y-107454819D01*
X138349524Y-107454819D02*
X138540000Y-106740533D01*
X138540000Y-106740533D02*
X138730476Y-107454819D01*
X138730476Y-107454819D02*
X138968572Y-106454819D01*
X139825714Y-106454819D02*
X139349524Y-106454819D01*
X139349524Y-106454819D02*
X139301905Y-106931009D01*
X139301905Y-106931009D02*
X139349524Y-106883390D01*
X139349524Y-106883390D02*
X139444762Y-106835771D01*
X139444762Y-106835771D02*
X139682857Y-106835771D01*
X139682857Y-106835771D02*
X139778095Y-106883390D01*
X139778095Y-106883390D02*
X139825714Y-106931009D01*
X139825714Y-106931009D02*
X139873333Y-107026247D01*
X139873333Y-107026247D02*
X139873333Y-107264342D01*
X139873333Y-107264342D02*
X139825714Y-107359580D01*
X139825714Y-107359580D02*
X139778095Y-107407200D01*
X139778095Y-107407200D02*
X139682857Y-107454819D01*
X139682857Y-107454819D02*
X139444762Y-107454819D01*
X139444762Y-107454819D02*
X139349524Y-107407200D01*
X139349524Y-107407200D02*
X139301905Y-107359580D01*
X135976190Y-98454819D02*
X136166666Y-98454819D01*
X136166666Y-98454819D02*
X136261904Y-98502438D01*
X136261904Y-98502438D02*
X136357142Y-98597676D01*
X136357142Y-98597676D02*
X136404761Y-98788152D01*
X136404761Y-98788152D02*
X136404761Y-99121485D01*
X136404761Y-99121485D02*
X136357142Y-99311961D01*
X136357142Y-99311961D02*
X136261904Y-99407200D01*
X136261904Y-99407200D02*
X136166666Y-99454819D01*
X136166666Y-99454819D02*
X135976190Y-99454819D01*
X135976190Y-99454819D02*
X135880952Y-99407200D01*
X135880952Y-99407200D02*
X135785714Y-99311961D01*
X135785714Y-99311961D02*
X135738095Y-99121485D01*
X135738095Y-99121485D02*
X135738095Y-98788152D01*
X135738095Y-98788152D02*
X135785714Y-98597676D01*
X135785714Y-98597676D02*
X135880952Y-98502438D01*
X135880952Y-98502438D02*
X135976190Y-98454819D01*
X137166666Y-98931009D02*
X136833333Y-98931009D01*
X136833333Y-99454819D02*
X136833333Y-98454819D01*
X136833333Y-98454819D02*
X137309523Y-98454819D01*
X138023809Y-98931009D02*
X137690476Y-98931009D01*
X137690476Y-99454819D02*
X137690476Y-98454819D01*
X137690476Y-98454819D02*
X138166666Y-98454819D01*
X139261904Y-98407200D02*
X138404762Y-99692914D01*
X139785714Y-98454819D02*
X139976190Y-98454819D01*
X139976190Y-98454819D02*
X140071428Y-98502438D01*
X140071428Y-98502438D02*
X140166666Y-98597676D01*
X140166666Y-98597676D02*
X140214285Y-98788152D01*
X140214285Y-98788152D02*
X140214285Y-99121485D01*
X140214285Y-99121485D02*
X140166666Y-99311961D01*
X140166666Y-99311961D02*
X140071428Y-99407200D01*
X140071428Y-99407200D02*
X139976190Y-99454819D01*
X139976190Y-99454819D02*
X139785714Y-99454819D01*
X139785714Y-99454819D02*
X139690476Y-99407200D01*
X139690476Y-99407200D02*
X139595238Y-99311961D01*
X139595238Y-99311961D02*
X139547619Y-99121485D01*
X139547619Y-99121485D02*
X139547619Y-98788152D01*
X139547619Y-98788152D02*
X139595238Y-98597676D01*
X139595238Y-98597676D02*
X139690476Y-98502438D01*
X139690476Y-98502438D02*
X139785714Y-98454819D01*
X140642857Y-99454819D02*
X140642857Y-98454819D01*
X140642857Y-98454819D02*
X141214285Y-99454819D01*
X141214285Y-99454819D02*
X141214285Y-98454819D01*
X138849104Y-71724285D02*
X138849104Y-71248095D01*
X139134819Y-71819523D02*
X138134819Y-71486190D01*
X138134819Y-71486190D02*
X139134819Y-71152857D01*
X139134819Y-70295714D02*
X139134819Y-70867142D01*
X139134819Y-70581428D02*
X138134819Y-70581428D01*
X138134819Y-70581428D02*
X138277676Y-70676666D01*
X138277676Y-70676666D02*
X138372914Y-70771904D01*
X138372914Y-70771904D02*
X138420533Y-70867142D01*
X140849104Y-83938572D02*
X140849104Y-83462382D01*
X141134819Y-84033810D02*
X140134819Y-83700477D01*
X140134819Y-83700477D02*
X141134819Y-83367144D01*
X141134819Y-82605239D02*
X140134819Y-82605239D01*
X141087200Y-82605239D02*
X141134819Y-82700477D01*
X141134819Y-82700477D02*
X141134819Y-82890953D01*
X141134819Y-82890953D02*
X141087200Y-82986191D01*
X141087200Y-82986191D02*
X141039580Y-83033810D01*
X141039580Y-83033810D02*
X140944342Y-83081429D01*
X140944342Y-83081429D02*
X140658628Y-83081429D01*
X140658628Y-83081429D02*
X140563390Y-83033810D01*
X140563390Y-83033810D02*
X140515771Y-82986191D01*
X140515771Y-82986191D02*
X140468152Y-82890953D01*
X140468152Y-82890953D02*
X140468152Y-82700477D01*
X140468152Y-82700477D02*
X140515771Y-82605239D01*
X141134819Y-81700477D02*
X140611009Y-81700477D01*
X140611009Y-81700477D02*
X140515771Y-81748096D01*
X140515771Y-81748096D02*
X140468152Y-81843334D01*
X140468152Y-81843334D02*
X140468152Y-82033810D01*
X140468152Y-82033810D02*
X140515771Y-82129048D01*
X141087200Y-81700477D02*
X141134819Y-81795715D01*
X141134819Y-81795715D02*
X141134819Y-82033810D01*
X141134819Y-82033810D02*
X141087200Y-82129048D01*
X141087200Y-82129048D02*
X140991961Y-82176667D01*
X140991961Y-82176667D02*
X140896723Y-82176667D01*
X140896723Y-82176667D02*
X140801485Y-82129048D01*
X140801485Y-82129048D02*
X140753866Y-82033810D01*
X140753866Y-82033810D02*
X140753866Y-81795715D01*
X140753866Y-81795715D02*
X140706247Y-81700477D01*
X140468152Y-81367143D02*
X140468152Y-80986191D01*
X141134819Y-81224286D02*
X140277676Y-81224286D01*
X140277676Y-81224286D02*
X140182438Y-81176667D01*
X140182438Y-81176667D02*
X140134819Y-81081429D01*
X140134819Y-81081429D02*
X140134819Y-80986191D01*
X141134819Y-80652857D02*
X140468152Y-80652857D01*
X140658628Y-80652857D02*
X140563390Y-80605238D01*
X140563390Y-80605238D02*
X140515771Y-80557619D01*
X140515771Y-80557619D02*
X140468152Y-80462381D01*
X140468152Y-80462381D02*
X140468152Y-80367143D01*
X140468152Y-79605238D02*
X141134819Y-79605238D01*
X140468152Y-80033809D02*
X140991961Y-80033809D01*
X140991961Y-80033809D02*
X141087200Y-79986190D01*
X141087200Y-79986190D02*
X141134819Y-79890952D01*
X141134819Y-79890952D02*
X141134819Y-79748095D01*
X141134819Y-79748095D02*
X141087200Y-79652857D01*
X141087200Y-79652857D02*
X141039580Y-79605238D01*
X141134819Y-79129047D02*
X140468152Y-79129047D01*
X140134819Y-79129047D02*
X140182438Y-79176666D01*
X140182438Y-79176666D02*
X140230057Y-79129047D01*
X140230057Y-79129047D02*
X140182438Y-79081428D01*
X140182438Y-79081428D02*
X140134819Y-79129047D01*
X140134819Y-79129047D02*
X140230057Y-79129047D01*
X140468152Y-78795714D02*
X140468152Y-78414762D01*
X140134819Y-78652857D02*
X140991961Y-78652857D01*
X140991961Y-78652857D02*
X141087200Y-78605238D01*
X141087200Y-78605238D02*
X141134819Y-78510000D01*
X141134819Y-78510000D02*
X141134819Y-78414762D01*
X141230057Y-78319524D02*
X141230057Y-77557619D01*
X140611009Y-76986190D02*
X140611009Y-77319523D01*
X141134819Y-77319523D02*
X140134819Y-77319523D01*
X140134819Y-77319523D02*
X140134819Y-76843333D01*
X141087200Y-76081428D02*
X141134819Y-76176666D01*
X141134819Y-76176666D02*
X141134819Y-76367142D01*
X141134819Y-76367142D02*
X141087200Y-76462380D01*
X141087200Y-76462380D02*
X140991961Y-76509999D01*
X140991961Y-76509999D02*
X140611009Y-76509999D01*
X140611009Y-76509999D02*
X140515771Y-76462380D01*
X140515771Y-76462380D02*
X140468152Y-76367142D01*
X140468152Y-76367142D02*
X140468152Y-76176666D01*
X140468152Y-76176666D02*
X140515771Y-76081428D01*
X140515771Y-76081428D02*
X140611009Y-76033809D01*
X140611009Y-76033809D02*
X140706247Y-76033809D01*
X140706247Y-76033809D02*
X140801485Y-76509999D01*
X141134819Y-75176666D02*
X140611009Y-75176666D01*
X140611009Y-75176666D02*
X140515771Y-75224285D01*
X140515771Y-75224285D02*
X140468152Y-75319523D01*
X140468152Y-75319523D02*
X140468152Y-75509999D01*
X140468152Y-75509999D02*
X140515771Y-75605237D01*
X141087200Y-75176666D02*
X141134819Y-75271904D01*
X141134819Y-75271904D02*
X141134819Y-75509999D01*
X141134819Y-75509999D02*
X141087200Y-75605237D01*
X141087200Y-75605237D02*
X140991961Y-75652856D01*
X140991961Y-75652856D02*
X140896723Y-75652856D01*
X140896723Y-75652856D02*
X140801485Y-75605237D01*
X140801485Y-75605237D02*
X140753866Y-75509999D01*
X140753866Y-75509999D02*
X140753866Y-75271904D01*
X140753866Y-75271904D02*
X140706247Y-75176666D01*
X140468152Y-74843332D02*
X140468152Y-74462380D01*
X140134819Y-74700475D02*
X140991961Y-74700475D01*
X140991961Y-74700475D02*
X141087200Y-74652856D01*
X141087200Y-74652856D02*
X141134819Y-74557618D01*
X141134819Y-74557618D02*
X141134819Y-74462380D01*
X141134819Y-74129046D02*
X140134819Y-74129046D01*
X141134819Y-73700475D02*
X140611009Y-73700475D01*
X140611009Y-73700475D02*
X140515771Y-73748094D01*
X140515771Y-73748094D02*
X140468152Y-73843332D01*
X140468152Y-73843332D02*
X140468152Y-73986189D01*
X140468152Y-73986189D02*
X140515771Y-74081427D01*
X140515771Y-74081427D02*
X140563390Y-74129046D01*
X141087200Y-72843332D02*
X141134819Y-72938570D01*
X141134819Y-72938570D02*
X141134819Y-73129046D01*
X141134819Y-73129046D02*
X141087200Y-73224284D01*
X141087200Y-73224284D02*
X140991961Y-73271903D01*
X140991961Y-73271903D02*
X140611009Y-73271903D01*
X140611009Y-73271903D02*
X140515771Y-73224284D01*
X140515771Y-73224284D02*
X140468152Y-73129046D01*
X140468152Y-73129046D02*
X140468152Y-72938570D01*
X140468152Y-72938570D02*
X140515771Y-72843332D01*
X140515771Y-72843332D02*
X140611009Y-72795713D01*
X140611009Y-72795713D02*
X140706247Y-72795713D01*
X140706247Y-72795713D02*
X140801485Y-73271903D01*
X141134819Y-72367141D02*
X140468152Y-72367141D01*
X140658628Y-72367141D02*
X140563390Y-72319522D01*
X140563390Y-72319522D02*
X140515771Y-72271903D01*
X140515771Y-72271903D02*
X140468152Y-72176665D01*
X140468152Y-72176665D02*
X140468152Y-72081427D01*
X141230057Y-71986189D02*
X141230057Y-71224284D01*
X141134819Y-70986188D02*
X140134819Y-70986188D01*
X140611009Y-70986188D02*
X140611009Y-70414760D01*
X141134819Y-70414760D02*
X140134819Y-70414760D01*
X140134819Y-69938569D02*
X140944342Y-69938569D01*
X140944342Y-69938569D02*
X141039580Y-69890950D01*
X141039580Y-69890950D02*
X141087200Y-69843331D01*
X141087200Y-69843331D02*
X141134819Y-69748093D01*
X141134819Y-69748093D02*
X141134819Y-69557617D01*
X141134819Y-69557617D02*
X141087200Y-69462379D01*
X141087200Y-69462379D02*
X141039580Y-69414760D01*
X141039580Y-69414760D02*
X140944342Y-69367141D01*
X140944342Y-69367141D02*
X140134819Y-69367141D01*
X140134819Y-68986188D02*
X140134819Y-68319522D01*
X140134819Y-68319522D02*
X141134819Y-68986188D01*
X141134819Y-68986188D02*
X141134819Y-68319522D01*
X140134819Y-68033807D02*
X140134819Y-67367141D01*
X140134819Y-67367141D02*
X141134819Y-68033807D01*
X141134819Y-68033807D02*
X141134819Y-67367141D01*
X140849104Y-67033807D02*
X140849104Y-66557617D01*
X141134819Y-67129045D02*
X140134819Y-66795712D01*
X140134819Y-66795712D02*
X141134819Y-66462379D01*
X141134819Y-66129045D02*
X140134819Y-66129045D01*
X140611009Y-66129045D02*
X140611009Y-65557617D01*
X141134819Y-65557617D02*
X140134819Y-65557617D01*
X140134819Y-65176664D02*
X140134819Y-64557617D01*
X140134819Y-64557617D02*
X140515771Y-64890950D01*
X140515771Y-64890950D02*
X140515771Y-64748093D01*
X140515771Y-64748093D02*
X140563390Y-64652855D01*
X140563390Y-64652855D02*
X140611009Y-64605236D01*
X140611009Y-64605236D02*
X140706247Y-64557617D01*
X140706247Y-64557617D02*
X140944342Y-64557617D01*
X140944342Y-64557617D02*
X141039580Y-64605236D01*
X141039580Y-64605236D02*
X141087200Y-64652855D01*
X141087200Y-64652855D02*
X141134819Y-64748093D01*
X141134819Y-64748093D02*
X141134819Y-65033807D01*
X141134819Y-65033807D02*
X141087200Y-65129045D01*
X141087200Y-65129045D02*
X141039580Y-65176664D01*
X140230057Y-64176664D02*
X140182438Y-64129045D01*
X140182438Y-64129045D02*
X140134819Y-64033807D01*
X140134819Y-64033807D02*
X140134819Y-63795712D01*
X140134819Y-63795712D02*
X140182438Y-63700474D01*
X140182438Y-63700474D02*
X140230057Y-63652855D01*
X140230057Y-63652855D02*
X140325295Y-63605236D01*
X140325295Y-63605236D02*
X140420533Y-63605236D01*
X140420533Y-63605236D02*
X140563390Y-63652855D01*
X140563390Y-63652855D02*
X141134819Y-64224283D01*
X141134819Y-64224283D02*
X141134819Y-63605236D01*
X141230057Y-63414760D02*
X141230057Y-62652855D01*
X140611009Y-62414759D02*
X140611009Y-62081426D01*
X141134819Y-61938569D02*
X141134819Y-62414759D01*
X141134819Y-62414759D02*
X140134819Y-62414759D01*
X140134819Y-62414759D02*
X140134819Y-61938569D01*
X141087200Y-61557616D02*
X141134819Y-61414759D01*
X141134819Y-61414759D02*
X141134819Y-61176664D01*
X141134819Y-61176664D02*
X141087200Y-61081426D01*
X141087200Y-61081426D02*
X141039580Y-61033807D01*
X141039580Y-61033807D02*
X140944342Y-60986188D01*
X140944342Y-60986188D02*
X140849104Y-60986188D01*
X140849104Y-60986188D02*
X140753866Y-61033807D01*
X140753866Y-61033807D02*
X140706247Y-61081426D01*
X140706247Y-61081426D02*
X140658628Y-61176664D01*
X140658628Y-61176664D02*
X140611009Y-61367140D01*
X140611009Y-61367140D02*
X140563390Y-61462378D01*
X140563390Y-61462378D02*
X140515771Y-61509997D01*
X140515771Y-61509997D02*
X140420533Y-61557616D01*
X140420533Y-61557616D02*
X140325295Y-61557616D01*
X140325295Y-61557616D02*
X140230057Y-61509997D01*
X140230057Y-61509997D02*
X140182438Y-61462378D01*
X140182438Y-61462378D02*
X140134819Y-61367140D01*
X140134819Y-61367140D02*
X140134819Y-61129045D01*
X140134819Y-61129045D02*
X140182438Y-60986188D01*
X141134819Y-60557616D02*
X140134819Y-60557616D01*
X140134819Y-60557616D02*
X140134819Y-60176664D01*
X140134819Y-60176664D02*
X140182438Y-60081426D01*
X140182438Y-60081426D02*
X140230057Y-60033807D01*
X140230057Y-60033807D02*
X140325295Y-59986188D01*
X140325295Y-59986188D02*
X140468152Y-59986188D01*
X140468152Y-59986188D02*
X140563390Y-60033807D01*
X140563390Y-60033807D02*
X140611009Y-60081426D01*
X140611009Y-60081426D02*
X140658628Y-60176664D01*
X140658628Y-60176664D02*
X140658628Y-60557616D01*
X140134819Y-59652854D02*
X140134819Y-59033807D01*
X140134819Y-59033807D02*
X140515771Y-59367140D01*
X140515771Y-59367140D02*
X140515771Y-59224283D01*
X140515771Y-59224283D02*
X140563390Y-59129045D01*
X140563390Y-59129045D02*
X140611009Y-59081426D01*
X140611009Y-59081426D02*
X140706247Y-59033807D01*
X140706247Y-59033807D02*
X140944342Y-59033807D01*
X140944342Y-59033807D02*
X141039580Y-59081426D01*
X141039580Y-59081426D02*
X141087200Y-59129045D01*
X141087200Y-59129045D02*
X141134819Y-59224283D01*
X141134819Y-59224283D02*
X141134819Y-59509997D01*
X141134819Y-59509997D02*
X141087200Y-59605235D01*
X141087200Y-59605235D02*
X141039580Y-59652854D01*
X140230057Y-58652854D02*
X140182438Y-58605235D01*
X140182438Y-58605235D02*
X140134819Y-58509997D01*
X140134819Y-58509997D02*
X140134819Y-58271902D01*
X140134819Y-58271902D02*
X140182438Y-58176664D01*
X140182438Y-58176664D02*
X140230057Y-58129045D01*
X140230057Y-58129045D02*
X140325295Y-58081426D01*
X140325295Y-58081426D02*
X140420533Y-58081426D01*
X140420533Y-58081426D02*
X140563390Y-58129045D01*
X140563390Y-58129045D02*
X141134819Y-58700473D01*
X141134819Y-58700473D02*
X141134819Y-58081426D01*
X116833333Y-101954819D02*
X116500000Y-101478628D01*
X116261905Y-101954819D02*
X116261905Y-100954819D01*
X116261905Y-100954819D02*
X116642857Y-100954819D01*
X116642857Y-100954819D02*
X116738095Y-101002438D01*
X116738095Y-101002438D02*
X116785714Y-101050057D01*
X116785714Y-101050057D02*
X116833333Y-101145295D01*
X116833333Y-101145295D02*
X116833333Y-101288152D01*
X116833333Y-101288152D02*
X116785714Y-101383390D01*
X116785714Y-101383390D02*
X116738095Y-101431009D01*
X116738095Y-101431009D02*
X116642857Y-101478628D01*
X116642857Y-101478628D02*
X116261905Y-101478628D01*
X117690476Y-100954819D02*
X117500000Y-100954819D01*
X117500000Y-100954819D02*
X117404762Y-101002438D01*
X117404762Y-101002438D02*
X117357143Y-101050057D01*
X117357143Y-101050057D02*
X117261905Y-101192914D01*
X117261905Y-101192914D02*
X117214286Y-101383390D01*
X117214286Y-101383390D02*
X117214286Y-101764342D01*
X117214286Y-101764342D02*
X117261905Y-101859580D01*
X117261905Y-101859580D02*
X117309524Y-101907200D01*
X117309524Y-101907200D02*
X117404762Y-101954819D01*
X117404762Y-101954819D02*
X117595238Y-101954819D01*
X117595238Y-101954819D02*
X117690476Y-101907200D01*
X117690476Y-101907200D02*
X117738095Y-101859580D01*
X117738095Y-101859580D02*
X117785714Y-101764342D01*
X117785714Y-101764342D02*
X117785714Y-101526247D01*
X117785714Y-101526247D02*
X117738095Y-101431009D01*
X117738095Y-101431009D02*
X117690476Y-101383390D01*
X117690476Y-101383390D02*
X117595238Y-101335771D01*
X117595238Y-101335771D02*
X117404762Y-101335771D01*
X117404762Y-101335771D02*
X117309524Y-101383390D01*
X117309524Y-101383390D02*
X117261905Y-101431009D01*
X117261905Y-101431009D02*
X117214286Y-101526247D01*
X89666667Y-103407200D02*
X89809524Y-103454819D01*
X89809524Y-103454819D02*
X90047619Y-103454819D01*
X90047619Y-103454819D02*
X90142857Y-103407200D01*
X90142857Y-103407200D02*
X90190476Y-103359580D01*
X90190476Y-103359580D02*
X90238095Y-103264342D01*
X90238095Y-103264342D02*
X90238095Y-103169104D01*
X90238095Y-103169104D02*
X90190476Y-103073866D01*
X90190476Y-103073866D02*
X90142857Y-103026247D01*
X90142857Y-103026247D02*
X90047619Y-102978628D01*
X90047619Y-102978628D02*
X89857143Y-102931009D01*
X89857143Y-102931009D02*
X89761905Y-102883390D01*
X89761905Y-102883390D02*
X89714286Y-102835771D01*
X89714286Y-102835771D02*
X89666667Y-102740533D01*
X89666667Y-102740533D02*
X89666667Y-102645295D01*
X89666667Y-102645295D02*
X89714286Y-102550057D01*
X89714286Y-102550057D02*
X89761905Y-102502438D01*
X89761905Y-102502438D02*
X89857143Y-102454819D01*
X89857143Y-102454819D02*
X90095238Y-102454819D01*
X90095238Y-102454819D02*
X90238095Y-102502438D01*
X90571429Y-102454819D02*
X90809524Y-103454819D01*
X90809524Y-103454819D02*
X91000000Y-102740533D01*
X91000000Y-102740533D02*
X91190476Y-103454819D01*
X91190476Y-103454819D02*
X91428572Y-102454819D01*
X92238095Y-102788152D02*
X92238095Y-103454819D01*
X92000000Y-102407200D02*
X91761905Y-103121485D01*
X91761905Y-103121485D02*
X92380952Y-103121485D01*
X87130952Y-108204819D02*
X87130952Y-107204819D01*
X87130952Y-107204819D02*
X87464285Y-107919104D01*
X87464285Y-107919104D02*
X87797618Y-107204819D01*
X87797618Y-107204819D02*
X87797618Y-108204819D01*
X88464285Y-107204819D02*
X88654761Y-107204819D01*
X88654761Y-107204819D02*
X88749999Y-107252438D01*
X88749999Y-107252438D02*
X88845237Y-107347676D01*
X88845237Y-107347676D02*
X88892856Y-107538152D01*
X88892856Y-107538152D02*
X88892856Y-107871485D01*
X88892856Y-107871485D02*
X88845237Y-108061961D01*
X88845237Y-108061961D02*
X88749999Y-108157200D01*
X88749999Y-108157200D02*
X88654761Y-108204819D01*
X88654761Y-108204819D02*
X88464285Y-108204819D01*
X88464285Y-108204819D02*
X88369047Y-108157200D01*
X88369047Y-108157200D02*
X88273809Y-108061961D01*
X88273809Y-108061961D02*
X88226190Y-107871485D01*
X88226190Y-107871485D02*
X88226190Y-107538152D01*
X88226190Y-107538152D02*
X88273809Y-107347676D01*
X88273809Y-107347676D02*
X88369047Y-107252438D01*
X88369047Y-107252438D02*
X88464285Y-107204819D01*
X89321428Y-108204819D02*
X89321428Y-107204819D01*
X89321428Y-107204819D02*
X89559523Y-107204819D01*
X89559523Y-107204819D02*
X89702380Y-107252438D01*
X89702380Y-107252438D02*
X89797618Y-107347676D01*
X89797618Y-107347676D02*
X89845237Y-107442914D01*
X89845237Y-107442914D02*
X89892856Y-107633390D01*
X89892856Y-107633390D02*
X89892856Y-107776247D01*
X89892856Y-107776247D02*
X89845237Y-107966723D01*
X89845237Y-107966723D02*
X89797618Y-108061961D01*
X89797618Y-108061961D02*
X89702380Y-108157200D01*
X89702380Y-108157200D02*
X89559523Y-108204819D01*
X89559523Y-108204819D02*
X89321428Y-108204819D01*
X90321428Y-107681009D02*
X90654761Y-107681009D01*
X90797618Y-108204819D02*
X90321428Y-108204819D01*
X90321428Y-108204819D02*
X90321428Y-107204819D01*
X90321428Y-107204819D02*
X90797618Y-107204819D01*
X91940475Y-107157200D02*
X91083333Y-108442914D01*
X92226190Y-108157200D02*
X92369047Y-108204819D01*
X92369047Y-108204819D02*
X92607142Y-108204819D01*
X92607142Y-108204819D02*
X92702380Y-108157200D01*
X92702380Y-108157200D02*
X92749999Y-108109580D01*
X92749999Y-108109580D02*
X92797618Y-108014342D01*
X92797618Y-108014342D02*
X92797618Y-107919104D01*
X92797618Y-107919104D02*
X92749999Y-107823866D01*
X92749999Y-107823866D02*
X92702380Y-107776247D01*
X92702380Y-107776247D02*
X92607142Y-107728628D01*
X92607142Y-107728628D02*
X92416666Y-107681009D01*
X92416666Y-107681009D02*
X92321428Y-107633390D01*
X92321428Y-107633390D02*
X92273809Y-107585771D01*
X92273809Y-107585771D02*
X92226190Y-107490533D01*
X92226190Y-107490533D02*
X92226190Y-107395295D01*
X92226190Y-107395295D02*
X92273809Y-107300057D01*
X92273809Y-107300057D02*
X92321428Y-107252438D01*
X92321428Y-107252438D02*
X92416666Y-107204819D01*
X92416666Y-107204819D02*
X92654761Y-107204819D01*
X92654761Y-107204819D02*
X92797618Y-107252438D01*
X93178571Y-107919104D02*
X93654761Y-107919104D01*
X93083333Y-108204819D02*
X93416666Y-107204819D01*
X93416666Y-107204819D02*
X93749999Y-108204819D01*
X93940476Y-107204819D02*
X94273809Y-108204819D01*
X94273809Y-108204819D02*
X94607142Y-107204819D01*
X94940476Y-107681009D02*
X95273809Y-107681009D01*
X95416666Y-108204819D02*
X94940476Y-108204819D01*
X94940476Y-108204819D02*
X94940476Y-107204819D01*
X94940476Y-107204819D02*
X95416666Y-107204819D01*
%TO.C,SW1*%
D12*
X87500000Y-67750000D02*
X87500000Y-69250000D01*
X88750000Y-71750000D02*
X93250000Y-71750000D01*
X93250000Y-65250000D02*
X88750000Y-65250000D01*
X94500000Y-69250000D02*
X94500000Y-67750000D01*
%TO.C,U1*%
D11*
X97980000Y-67750000D02*
X97980000Y-67750000D01*
G75*
G02*
X100980000Y-64750000I3000000J0D01*
G01*
X120480000Y-64750000D01*
G75*
G02*
X123480000Y-67750000I0J-3000000D01*
G01*
X123480000Y-88250000D01*
G75*
G02*
X120480000Y-91250000I-3000000J0D01*
G01*
X100980000Y-91250000D01*
G75*
G02*
X97980000Y-88250000I0J3000000D01*
G01*
X97980000Y-67750000D01*
%TO.C,D2*%
D12*
X110790000Y-54545000D02*
X110790000Y-51455000D01*
X105240000Y-53000000D02*
G75*
G02*
X110790000Y-51455170I2990000J0D01*
G01*
X110790000Y-54544830D02*
G75*
G02*
X105240000Y-53000000I-2560000J1544830D01*
G01*
X110730000Y-53000000D02*
G75*
G02*
X105730000Y-53000000I-2500000J0D01*
G01*
X105730000Y-53000000D02*
G75*
G02*
X110730000Y-53000000I2500000J0D01*
G01*
%TO.C,SW3*%
X87500000Y-79250000D02*
X87500000Y-80750000D01*
X88750000Y-83250000D02*
X93250000Y-83250000D01*
X93250000Y-76750000D02*
X88750000Y-76750000D01*
X94500000Y-80750000D02*
X94500000Y-79250000D01*
%TO.C,R4*%
X112960000Y-96500000D02*
X113730000Y-96500000D01*
X121040000Y-96500000D02*
X120270000Y-96500000D01*
X113730000Y-95130000D02*
X120270000Y-95130000D01*
X120270000Y-97870000D01*
X113730000Y-97870000D01*
X113730000Y-95130000D01*
%TO.C,D1*%
X118330000Y-54545000D02*
X118330000Y-51455000D01*
X112780000Y-53000000D02*
G75*
G02*
X118330000Y-51455170I2990000J0D01*
G01*
X118330000Y-54544830D02*
G75*
G02*
X112780000Y-53000000I-2560000J1544830D01*
G01*
X118270000Y-53000000D02*
G75*
G02*
X113270000Y-53000000I-2500000J0D01*
G01*
X113270000Y-53000000D02*
G75*
G02*
X118270000Y-53000000I2500000J0D01*
G01*
%TO.C,R5*%
X100460000Y-101500000D02*
X101230000Y-101500000D01*
X108540000Y-101500000D02*
X107770000Y-101500000D01*
X101230000Y-100130000D02*
X107770000Y-100130000D01*
X107770000Y-102870000D01*
X101230000Y-102870000D01*
X101230000Y-100130000D01*
%TO.C,R3*%
X100460000Y-96500000D02*
X101230000Y-96500000D01*
X108540000Y-96500000D02*
X107770000Y-96500000D01*
X101230000Y-95130000D02*
X107770000Y-95130000D01*
X107770000Y-97870000D01*
X101230000Y-97870000D01*
X101230000Y-95130000D01*
%TO.C,R2*%
X101110000Y-58500000D02*
X101880000Y-58500000D01*
X109190000Y-58500000D02*
X108420000Y-58500000D01*
X101880000Y-57130000D02*
X108420000Y-57130000D01*
X108420000Y-59870000D01*
X101880000Y-59870000D01*
X101880000Y-57130000D01*
D11*
%TO.C,J1*%
X85000000Y-62500000D02*
X98000000Y-62500000D01*
X98000000Y-49500000D01*
X95500000Y-49500000D01*
X95500000Y-46000000D01*
X87500000Y-46000000D01*
X87500000Y-49500000D01*
X85000000Y-49500000D01*
X85000000Y-62500000D01*
%TO.C,R1*%
D12*
X113690000Y-58500000D02*
X114460000Y-58500000D01*
X121770000Y-58500000D02*
X121000000Y-58500000D01*
X114460000Y-57130000D02*
X121000000Y-57130000D01*
X121000000Y-59870000D01*
X114460000Y-59870000D01*
X114460000Y-57130000D01*
%TO.C,SW2*%
X87500000Y-90750000D02*
X87500000Y-92250000D01*
X88750000Y-94750000D02*
X93250000Y-94750000D01*
X93250000Y-88250000D02*
X88750000Y-88250000D01*
X94500000Y-92250000D02*
X94500000Y-90750000D01*
%TO.C,SW5*%
X130500000Y-100000000D02*
X146500000Y-100000000D01*
X146500000Y-106000000D01*
X130500000Y-106000000D01*
X130500000Y-100000000D01*
%TO.C,A1*%
X125980000Y-53000000D02*
X125980000Y-51000000D01*
X126300000Y-48190000D02*
X126300000Y-93910000D01*
X146730000Y-45540000D02*
X128950000Y-45540000D01*
X146730000Y-96560000D02*
X128950000Y-96560000D01*
X149380000Y-48190000D02*
X149380000Y-93910000D01*
X126300000Y-48190000D02*
G75*
G02*
X128950000Y-45540000I2650000J0D01*
G01*
X128950000Y-96560000D02*
G75*
G02*
X126300000Y-93910000I0J2650000D01*
G01*
X146730000Y-45540000D02*
G75*
G02*
X149380000Y-48190000I0J-2650000D01*
G01*
X149380000Y-93910000D02*
G75*
G02*
X146730000Y-96560000I-2650000J0D01*
G01*
%TO.C,R6*%
X112960000Y-101500000D02*
X113730000Y-101500000D01*
X121040000Y-101500000D02*
X120270000Y-101500000D01*
X113730000Y-100130000D02*
X120270000Y-100130000D01*
X120270000Y-102870000D01*
X113730000Y-102870000D01*
X113730000Y-100130000D01*
%TO.C,SW4*%
X87500000Y-102250000D02*
X87500000Y-103750000D01*
X88750000Y-106250000D02*
X93250000Y-106250000D01*
X93250000Y-99750000D02*
X88750000Y-99750000D01*
X94500000Y-103750000D02*
X94500000Y-102250000D01*
%TD*%
%LPC*%
D13*
%TO.C,SW1*%
X87750000Y-66250000D03*
X94250000Y-66250000D03*
X87750000Y-70750000D03*
X94250000Y-70750000D03*
%TD*%
D14*
%TO.C,U1*%
X106920000Y-66000000D03*
X109460000Y-66000000D03*
X114540000Y-66000000D03*
X112000000Y-66000000D03*
%TD*%
D15*
%TO.C,D2*%
X109500000Y-53000000D03*
D16*
X106960000Y-53000000D03*
%TD*%
D13*
%TO.C,SW3*%
X87750000Y-77750000D03*
X94250000Y-77750000D03*
X87750000Y-82250000D03*
X94250000Y-82250000D03*
%TD*%
D17*
%TO.C,R4*%
X111920000Y-96500000D03*
X122080000Y-96500000D03*
%TD*%
D15*
%TO.C,D1*%
X117040000Y-53000000D03*
D16*
X114500000Y-53000000D03*
%TD*%
D17*
%TO.C,R5*%
X99420000Y-101500000D03*
X109580000Y-101500000D03*
%TD*%
%TO.C,R3*%
X99420000Y-96500000D03*
X109580000Y-96500000D03*
%TD*%
%TO.C,R2*%
X100070000Y-58500000D03*
X110230000Y-58500000D03*
%TD*%
D18*
%TO.C,J1*%
X91500000Y-53000000D03*
X96500000Y-58000000D03*
X94000000Y-58000000D03*
X89000000Y-58000000D03*
X86500000Y-58000000D03*
%TD*%
D17*
%TO.C,R1*%
X122810000Y-58500000D03*
X112650000Y-58500000D03*
%TD*%
D13*
%TO.C,SW2*%
X87750000Y-89250000D03*
X94250000Y-89250000D03*
X87750000Y-93750000D03*
X94250000Y-93750000D03*
%TD*%
D19*
%TO.C,SW5*%
X138500000Y-103000000D03*
X134500000Y-103000000D03*
X142500000Y-103000000D03*
%TD*%
D20*
%TO.C,A1*%
X127980000Y-52000000D03*
D21*
X127980000Y-54540000D03*
X127980000Y-57080000D03*
X127980000Y-59620000D03*
X127980000Y-62160000D03*
X127980000Y-64700000D03*
X127980000Y-67240000D03*
X127980000Y-69780000D03*
X127980000Y-72320000D03*
X127980000Y-74860000D03*
X127980000Y-77400000D03*
X127980000Y-79940000D03*
X127980000Y-82480000D03*
X127980000Y-85020000D03*
X127980000Y-87560000D03*
X127980000Y-90100000D03*
X147700000Y-90100000D03*
X147700000Y-87560000D03*
X147700000Y-85020000D03*
X147700000Y-82480000D03*
X147700000Y-79940000D03*
X147700000Y-77400000D03*
X147700000Y-74860000D03*
X147700000Y-72320000D03*
X147700000Y-69780000D03*
X147700000Y-67240000D03*
X147700000Y-64700000D03*
X147700000Y-62160000D03*
%TD*%
D17*
%TO.C,R6*%
X111920000Y-101500000D03*
X122080000Y-101500000D03*
%TD*%
D13*
%TO.C,SW4*%
X87750000Y-100750000D03*
X94250000Y-100750000D03*
X87750000Y-105250000D03*
X94250000Y-105250000D03*
%TD*%
%LPD*%
M02*
