%TF.GenerationSoftware,KiCad,Pcbnew,10.0.2*%
%TF.CreationDate,2026-08-04T20:28:27+10:00*%
%TF.ProjectId,pedal-counter,70656461-6c2d-4636-9f75-6e7465722e6b,rev?*%
%TF.SameCoordinates,Original*%
%TF.FileFunction,Soldermask,Bot*%
%TF.FilePolarity,Negative*%
%FSLAX46Y46*%
G04 Gerber Fmt 4.6, Leading zero omitted, Abs format (unit mm)*
G04 Created by KiCad (PCBNEW 10.0.2) date 2026-08-04 20:28:27*
%MOMM*%
%LPD*%
G01*
G04 APERTURE LIST*
G04 Aperture macros list*
%AMRoundRect*
0 Rectangle with rounded corners*
0 $1 Rounding radius*
0 $2 $3 $4 $5 $6 $7 $8 $9 X,Y pos of 4 corners*
0 Add a 4 corners polygon primitive as box body*
4,1,4,$2,$3,$4,$5,$6,$7,$8,$9,$2,$3,0*
0 Add four circle primitives for the rounded corners*
1,1,$1+$1,$2,$3*
1,1,$1+$1,$4,$5*
1,1,$1+$1,$6,$7*
1,1,$1+$1,$8,$9*
0 Add four rect primitives between the rounded corners*
20,1,$1+$1,$2,$3,$4,$5,0*
20,1,$1+$1,$4,$5,$6,$7,0*
20,1,$1+$1,$6,$7,$8,$9,0*
20,1,$1+$1,$8,$9,$2,$3,0*%
G04 Aperture macros list end*
%ADD10C,2.000000*%
%ADD11C,1.700000*%
%ADD12R,1.800000X1.800000*%
%ADD13C,1.800000*%
%ADD14C,1.600000*%
%ADD15C,1.900000*%
%ADD16C,3.600000*%
%ADD17RoundRect,0.250000X-1.050000X-0.550000X1.050000X-0.550000X1.050000X0.550000X-1.050000X0.550000X0*%
%ADD18O,2.600000X1.600000*%
G04 APERTURE END LIST*
D10*
%TO.C,SW1*%
X87750000Y-66250000D03*
X94250000Y-66250000D03*
X87750000Y-70750000D03*
X94250000Y-70750000D03*
%TD*%
D11*
%TO.C,U1*%
X106920000Y-66000000D03*
X109460000Y-66000000D03*
X114540000Y-66000000D03*
X112000000Y-66000000D03*
%TD*%
D12*
%TO.C,D2*%
X109500000Y-53000000D03*
D13*
X106960000Y-53000000D03*
%TD*%
D10*
%TO.C,SW3*%
X87750000Y-77750000D03*
X94250000Y-77750000D03*
X87750000Y-82250000D03*
X94250000Y-82250000D03*
%TD*%
D14*
%TO.C,R4*%
X111920000Y-96500000D03*
X122080000Y-96500000D03*
%TD*%
D12*
%TO.C,D1*%
X117040000Y-53000000D03*
D13*
X114500000Y-53000000D03*
%TD*%
D14*
%TO.C,R5*%
X99420000Y-101500000D03*
X109580000Y-101500000D03*
%TD*%
%TO.C,R3*%
X99420000Y-96500000D03*
X109580000Y-96500000D03*
%TD*%
%TO.C,R2*%
X100070000Y-58500000D03*
X110230000Y-58500000D03*
%TD*%
D15*
%TO.C,J1*%
X91500000Y-53000000D03*
X96500000Y-58000000D03*
X94000000Y-58000000D03*
X89000000Y-58000000D03*
X86500000Y-58000000D03*
%TD*%
D14*
%TO.C,R1*%
X122810000Y-58500000D03*
X112650000Y-58500000D03*
%TD*%
D10*
%TO.C,SW2*%
X87750000Y-89250000D03*
X94250000Y-89250000D03*
X87750000Y-93750000D03*
X94250000Y-93750000D03*
%TD*%
D16*
%TO.C,SW5*%
X138500000Y-103000000D03*
X134500000Y-103000000D03*
X142500000Y-103000000D03*
%TD*%
D17*
%TO.C,A1*%
X127980000Y-52000000D03*
D18*
X127980000Y-54540000D03*
X127980000Y-57080000D03*
X127980000Y-59620000D03*
X127980000Y-62160000D03*
X127980000Y-64700000D03*
X127980000Y-67240000D03*
X127980000Y-69780000D03*
X127980000Y-72320000D03*
X127980000Y-74860000D03*
X127980000Y-77400000D03*
X127980000Y-79940000D03*
X127980000Y-82480000D03*
X127980000Y-85020000D03*
X127980000Y-87560000D03*
X127980000Y-90100000D03*
X147700000Y-90100000D03*
X147700000Y-87560000D03*
X147700000Y-85020000D03*
X147700000Y-82480000D03*
X147700000Y-79940000D03*
X147700000Y-77400000D03*
X147700000Y-74860000D03*
X147700000Y-72320000D03*
X147700000Y-69780000D03*
X147700000Y-67240000D03*
X147700000Y-64700000D03*
X147700000Y-62160000D03*
%TD*%
D14*
%TO.C,R6*%
X111920000Y-101500000D03*
X122080000Y-101500000D03*
%TD*%
D10*
%TO.C,SW4*%
X87750000Y-100750000D03*
X94250000Y-100750000D03*
X87750000Y-105250000D03*
X94250000Y-105250000D03*
%TD*%
M02*
