M48
; DRILL file KiCad 10.0.2 date 2026-08-04T20:28:35
; FORMAT={-:-/ absolute / metric / decimal}
; #@! TF.CreationDate,2026-08-04T20:28:35+10:00
; #@! TF.GenerationSoftware,Kicad,Pcbnew,10.0.2
; #@! TF.FileFunction,Plated,1,2,PTH
FMAT,2
METRIC
; #@! TA.AperFunction,Plated,PTH,ComponentDrill
T1C0.800
; #@! TA.AperFunction,Plated,PTH,ComponentDrill
T2C0.900
; #@! TA.AperFunction,Plated,PTH,ComponentDrill
T3C1.000
; #@! TA.AperFunction,Plated,PTH,ComponentDrill
T4C1.100
; #@! TA.AperFunction,Plated,PTH,ComponentDrill
T5C1.300
; #@! TA.AperFunction,Plated,PTH,ComponentDrill
T6C2.300
%
G90
G05
T1
X99.42Y-96.5
X99.42Y-101.5
X100.07Y-58.5
X109.58Y-96.5
X109.58Y-101.5
X110.23Y-58.5
X111.92Y-96.5
X111.92Y-101.5
X112.65Y-58.5
X122.08Y-96.5
X122.08Y-101.5
X122.81Y-58.5
T2
X106.96Y-53.0
X109.5Y-53.0
X114.5Y-53.0
X117.04Y-53.0
T3
X106.92Y-66.0
X109.46Y-66.0
X112.0Y-66.0
X114.54Y-66.0
X127.68Y-52.0
X127.68Y-54.54
X127.68Y-57.08
X127.68Y-59.62
X127.68Y-62.16
X127.68Y-64.7
X127.68Y-67.24
X127.68Y-69.78
X127.68Y-72.32
X127.68Y-74.86
X127.68Y-77.4
X127.68Y-79.94
X127.68Y-82.48
X127.68Y-85.02
X127.68Y-87.56
X127.68Y-90.1
X148.0Y-62.16
X148.0Y-64.7
X148.0Y-67.24
X148.0Y-69.78
X148.0Y-72.32
X148.0Y-74.86
X148.0Y-77.4
X148.0Y-79.94
X148.0Y-82.48
X148.0Y-85.02
X148.0Y-87.56
X148.0Y-90.1
T4
X87.75Y-66.25
X87.75Y-70.75
X87.75Y-77.75
X87.75Y-82.25
X87.75Y-89.25
X87.75Y-93.75
X87.75Y-100.75
X87.75Y-105.25
X94.25Y-66.25
X94.25Y-70.75
X94.25Y-77.75
X94.25Y-82.25
X94.25Y-89.25
X94.25Y-93.75
X94.25Y-100.75
X94.25Y-105.25
T5
X86.5Y-58.0
X89.0Y-58.0
X91.5Y-53.0
X94.0Y-58.0
X96.5Y-58.0
T6
X134.5Y-103.0
X138.5Y-103.0
X142.5Y-103.0
M30
