%TF.GenerationSoftware,KiCad,Pcbnew,10.0.2*%
%TF.CreationDate,2026-08-04T20:28:27+10:00*%
%TF.ProjectId,pedal-counter,70656461-6c2d-4636-9f75-6e7465722e6b,rev?*%
%TF.SameCoordinates,Original*%
%TF.FileFunction,Legend,Bot*%
%TF.FilePolarity,Positive*%
%FSLAX46Y46*%
G04 Gerber Fmt 4.6, Leading zero omitted, Abs format (unit mm)*
G04 Created by KiCad (PCBNEW 10.0.2) date 2026-08-04 20:28:27*
%MOMM*%
%LPD*%
G01*
G04 APERTURE LIST*
G04 Aperture macros list*
%AMRoundRect*
0 Rectangle with rounded corners*
0 $1 Rounding radius*
0 $2 $3 $4 $5 $6 $7 $8 $9 X,Y pos of 4 corners*
0 Add a 4 corners polygon primitive as box body*
4,1,4,$2,$3,$4,$5,$6,$7,$8,$9,$2,$3,0*
0 Add four circle primitives for the rounded corners*
1,1,$1+$1,$2,$3*
1,1,$1+$1,$4,$5*
1,1,$1+$1,$6,$7*
1,1,$1+$1,$8,$9*
0 Add four rect primitives between the rounded corners*
20,1,$1+$1,$2,$3,$4,$5,0*
20,1,$1+$1,$4,$5,$6,$7,0*
20,1,$1+$1,$6,$7,$8,$9,0*
20,1,$1+$1,$8,$9,$2,$3,0*%
G04 Aperture macros list end*
%ADD10C,0.100000*%
%ADD11C,2.000000*%
%ADD12C,1.700000*%
%ADD13R,1.800000X1.800000*%
%ADD14C,1.800000*%
%ADD15C,1.600000*%
%ADD16C,1.900000*%
%ADD17C,3.600000*%
%ADD18RoundRect,0.250000X-1.050000X-0.550000X1.050000X-0.550000X1.050000X0.550000X-1.050000X0.550000X0*%
%ADD19O,2.600000X1.600000*%
G04 APERTURE END LIST*
D10*
X149243734Y-108967657D02*
X149196115Y-108920038D01*
X149196115Y-108920038D02*
X149100877Y-108872419D01*
X149100877Y-108872419D02*
X148862782Y-108872419D01*
X148862782Y-108872419D02*
X148767544Y-108920038D01*
X148767544Y-108920038D02*
X148719925Y-108967657D01*
X148719925Y-108967657D02*
X148672306Y-109062895D01*
X148672306Y-109062895D02*
X148672306Y-109158133D01*
X148672306Y-109158133D02*
X148719925Y-109300990D01*
X148719925Y-109300990D02*
X149291353Y-109872419D01*
X149291353Y-109872419D02*
X148672306Y-109872419D01*
X148053258Y-108872419D02*
X147958020Y-108872419D01*
X147958020Y-108872419D02*
X147862782Y-108920038D01*
X147862782Y-108920038D02*
X147815163Y-108967657D01*
X147815163Y-108967657D02*
X147767544Y-109062895D01*
X147767544Y-109062895D02*
X147719925Y-109253371D01*
X147719925Y-109253371D02*
X147719925Y-109491466D01*
X147719925Y-109491466D02*
X147767544Y-109681942D01*
X147767544Y-109681942D02*
X147815163Y-109777180D01*
X147815163Y-109777180D02*
X147862782Y-109824800D01*
X147862782Y-109824800D02*
X147958020Y-109872419D01*
X147958020Y-109872419D02*
X148053258Y-109872419D01*
X148053258Y-109872419D02*
X148148496Y-109824800D01*
X148148496Y-109824800D02*
X148196115Y-109777180D01*
X148196115Y-109777180D02*
X148243734Y-109681942D01*
X148243734Y-109681942D02*
X148291353Y-109491466D01*
X148291353Y-109491466D02*
X148291353Y-109253371D01*
X148291353Y-109253371D02*
X148243734Y-109062895D01*
X148243734Y-109062895D02*
X148196115Y-108967657D01*
X148196115Y-108967657D02*
X148148496Y-108920038D01*
X148148496Y-108920038D02*
X148053258Y-108872419D01*
X147338972Y-108967657D02*
X147291353Y-108920038D01*
X147291353Y-108920038D02*
X147196115Y-108872419D01*
X147196115Y-108872419D02*
X146958020Y-108872419D01*
X146958020Y-108872419D02*
X146862782Y-108920038D01*
X146862782Y-108920038D02*
X146815163Y-108967657D01*
X146815163Y-108967657D02*
X146767544Y-109062895D01*
X146767544Y-109062895D02*
X146767544Y-109158133D01*
X146767544Y-109158133D02*
X146815163Y-109300990D01*
X146815163Y-109300990D02*
X147386591Y-109872419D01*
X147386591Y-109872419D02*
X146767544Y-109872419D01*
X145910401Y-108872419D02*
X146100877Y-108872419D01*
X146100877Y-108872419D02*
X146196115Y-108920038D01*
X146196115Y-108920038D02*
X146243734Y-108967657D01*
X146243734Y-108967657D02*
X146338972Y-109110514D01*
X146338972Y-109110514D02*
X146386591Y-109300990D01*
X146386591Y-109300990D02*
X146386591Y-109681942D01*
X146386591Y-109681942D02*
X146338972Y-109777180D01*
X146338972Y-109777180D02*
X146291353Y-109824800D01*
X146291353Y-109824800D02*
X146196115Y-109872419D01*
X146196115Y-109872419D02*
X146005639Y-109872419D01*
X146005639Y-109872419D02*
X145910401Y-109824800D01*
X145910401Y-109824800D02*
X145862782Y-109777180D01*
X145862782Y-109777180D02*
X145815163Y-109681942D01*
X145815163Y-109681942D02*
X145815163Y-109443847D01*
X145815163Y-109443847D02*
X145862782Y-109348609D01*
X145862782Y-109348609D02*
X145910401Y-109300990D01*
X145910401Y-109300990D02*
X146005639Y-109253371D01*
X146005639Y-109253371D02*
X146196115Y-109253371D01*
X146196115Y-109253371D02*
X146291353Y-109300990D01*
X146291353Y-109300990D02*
X146338972Y-109348609D01*
X146338972Y-109348609D02*
X146386591Y-109443847D01*
X145529448Y-109539085D02*
X144291353Y-109539085D01*
X145291353Y-109205752D02*
X145291353Y-109539085D01*
X145291353Y-109205752D02*
X144386591Y-109205752D01*
X145291353Y-108920038D02*
X144338972Y-108920038D01*
X144815163Y-108920038D02*
X144815163Y-109872419D01*
X145196115Y-108729561D02*
X145291353Y-108967657D01*
X145291353Y-108967657D02*
X145529448Y-109158133D01*
X143767544Y-109300990D02*
X143862782Y-109253371D01*
X143862782Y-109253371D02*
X143910401Y-109205752D01*
X143910401Y-109205752D02*
X143958020Y-109110514D01*
X143958020Y-109110514D02*
X143958020Y-109062895D01*
X143958020Y-109062895D02*
X143910401Y-108967657D01*
X143910401Y-108967657D02*
X143862782Y-108920038D01*
X143862782Y-108920038D02*
X143767544Y-108872419D01*
X143767544Y-108872419D02*
X143577068Y-108872419D01*
X143577068Y-108872419D02*
X143481830Y-108920038D01*
X143481830Y-108920038D02*
X143434211Y-108967657D01*
X143434211Y-108967657D02*
X143386592Y-109062895D01*
X143386592Y-109062895D02*
X143386592Y-109110514D01*
X143386592Y-109110514D02*
X143434211Y-109205752D01*
X143434211Y-109205752D02*
X143481830Y-109253371D01*
X143481830Y-109253371D02*
X143577068Y-109300990D01*
X143577068Y-109300990D02*
X143767544Y-109300990D01*
X143767544Y-109300990D02*
X143862782Y-109348609D01*
X143862782Y-109348609D02*
X143910401Y-109396228D01*
X143910401Y-109396228D02*
X143958020Y-109491466D01*
X143958020Y-109491466D02*
X143958020Y-109681942D01*
X143958020Y-109681942D02*
X143910401Y-109777180D01*
X143910401Y-109777180D02*
X143862782Y-109824800D01*
X143862782Y-109824800D02*
X143767544Y-109872419D01*
X143767544Y-109872419D02*
X143577068Y-109872419D01*
X143577068Y-109872419D02*
X143481830Y-109824800D01*
X143481830Y-109824800D02*
X143434211Y-109777180D01*
X143434211Y-109777180D02*
X143386592Y-109681942D01*
X143386592Y-109681942D02*
X143386592Y-109491466D01*
X143386592Y-109491466D02*
X143434211Y-109396228D01*
X143434211Y-109396228D02*
X143481830Y-109348609D01*
X143481830Y-109348609D02*
X143577068Y-109300990D01*
X142815163Y-109491466D02*
X141862782Y-109491466D01*
X142767544Y-109158133D02*
X141862782Y-109158133D01*
X142243735Y-109872419D02*
X141862782Y-109872419D01*
X142767544Y-108824800D02*
X141862782Y-108824800D01*
X141862782Y-108824800D02*
X141862782Y-109872419D01*
X142767544Y-108824800D02*
X142767544Y-109253371D01*
X142767544Y-109253371D02*
X142862782Y-109539085D01*
X142862782Y-109539085D02*
X142958020Y-109681942D01*
X142958020Y-109681942D02*
X143053258Y-109872419D01*
X140958021Y-109872419D02*
X141529449Y-109872419D01*
X141243735Y-109872419D02*
X141243735Y-108872419D01*
X141243735Y-108872419D02*
X141338973Y-109015276D01*
X141338973Y-109015276D02*
X141434211Y-109110514D01*
X141434211Y-109110514D02*
X141529449Y-109158133D01*
X140100878Y-108872419D02*
X140291354Y-108872419D01*
X140291354Y-108872419D02*
X140386592Y-108920038D01*
X140386592Y-108920038D02*
X140434211Y-108967657D01*
X140434211Y-108967657D02*
X140529449Y-109110514D01*
X140529449Y-109110514D02*
X140577068Y-109300990D01*
X140577068Y-109300990D02*
X140577068Y-109681942D01*
X140577068Y-109681942D02*
X140529449Y-109777180D01*
X140529449Y-109777180D02*
X140481830Y-109824800D01*
X140481830Y-109824800D02*
X140386592Y-109872419D01*
X140386592Y-109872419D02*
X140196116Y-109872419D01*
X140196116Y-109872419D02*
X140100878Y-109824800D01*
X140100878Y-109824800D02*
X140053259Y-109777180D01*
X140053259Y-109777180D02*
X140005640Y-109681942D01*
X140005640Y-109681942D02*
X140005640Y-109443847D01*
X140005640Y-109443847D02*
X140053259Y-109348609D01*
X140053259Y-109348609D02*
X140100878Y-109300990D01*
X140100878Y-109300990D02*
X140196116Y-109253371D01*
X140196116Y-109253371D02*
X140386592Y-109253371D01*
X140386592Y-109253371D02*
X140481830Y-109300990D01*
X140481830Y-109300990D02*
X140529449Y-109348609D01*
X140529449Y-109348609D02*
X140577068Y-109443847D01*
X139719925Y-109777180D02*
X138481830Y-109777180D01*
X139719925Y-109300990D02*
X138481830Y-109300990D01*
X139719925Y-108824800D02*
X139719925Y-109872419D01*
X139719925Y-108824800D02*
X138481830Y-108824800D01*
X138481830Y-108824800D02*
X138481830Y-109872419D01*
X136577069Y-109205752D02*
X137338973Y-109491466D01*
X137338973Y-109491466D02*
X136577069Y-109777180D01*
X136196116Y-108872419D02*
X135577069Y-108872419D01*
X135577069Y-108872419D02*
X135910402Y-109253371D01*
X135910402Y-109253371D02*
X135767545Y-109253371D01*
X135767545Y-109253371D02*
X135672307Y-109300990D01*
X135672307Y-109300990D02*
X135624688Y-109348609D01*
X135624688Y-109348609D02*
X135577069Y-109443847D01*
X135577069Y-109443847D02*
X135577069Y-109681942D01*
X135577069Y-109681942D02*
X135624688Y-109777180D01*
X135624688Y-109777180D02*
X135672307Y-109824800D01*
X135672307Y-109824800D02*
X135767545Y-109872419D01*
X135767545Y-109872419D02*
X136053259Y-109872419D01*
X136053259Y-109872419D02*
X136148497Y-109824800D01*
X136148497Y-109824800D02*
X136196116Y-109777180D01*
%LPC*%
D11*
%TO.C,SW1*%
X87750000Y-66250000D03*
X94250000Y-66250000D03*
X87750000Y-70750000D03*
X94250000Y-70750000D03*
%TD*%
D12*
%TO.C,U1*%
X106920000Y-66000000D03*
X109460000Y-66000000D03*
X114540000Y-66000000D03*
X112000000Y-66000000D03*
%TD*%
D13*
%TO.C,D2*%
X109500000Y-53000000D03*
D14*
X106960000Y-53000000D03*
%TD*%
D11*
%TO.C,SW3*%
X87750000Y-77750000D03*
X94250000Y-77750000D03*
X87750000Y-82250000D03*
X94250000Y-82250000D03*
%TD*%
D15*
%TO.C,R4*%
X111920000Y-96500000D03*
X122080000Y-96500000D03*
%TD*%
D13*
%TO.C,D1*%
X117040000Y-53000000D03*
D14*
X114500000Y-53000000D03*
%TD*%
D15*
%TO.C,R5*%
X99420000Y-101500000D03*
X109580000Y-101500000D03*
%TD*%
%TO.C,R3*%
X99420000Y-96500000D03*
X109580000Y-96500000D03*
%TD*%
%TO.C,R2*%
X100070000Y-58500000D03*
X110230000Y-58500000D03*
%TD*%
D16*
%TO.C,J1*%
X91500000Y-53000000D03*
X96500000Y-58000000D03*
X94000000Y-58000000D03*
X89000000Y-58000000D03*
X86500000Y-58000000D03*
%TD*%
D15*
%TO.C,R1*%
X122810000Y-58500000D03*
X112650000Y-58500000D03*
%TD*%
D11*
%TO.C,SW2*%
X87750000Y-89250000D03*
X94250000Y-89250000D03*
X87750000Y-93750000D03*
X94250000Y-93750000D03*
%TD*%
D17*
%TO.C,SW5*%
X138500000Y-103000000D03*
X134500000Y-103000000D03*
X142500000Y-103000000D03*
%TD*%
D18*
%TO.C,A1*%
X127980000Y-52000000D03*
D19*
X127980000Y-54540000D03*
X127980000Y-57080000D03*
X127980000Y-59620000D03*
X127980000Y-62160000D03*
X127980000Y-64700000D03*
X127980000Y-67240000D03*
X127980000Y-69780000D03*
X127980000Y-72320000D03*
X127980000Y-74860000D03*
X127980000Y-77400000D03*
X127980000Y-79940000D03*
X127980000Y-82480000D03*
X127980000Y-85020000D03*
X127980000Y-87560000D03*
X127980000Y-90100000D03*
X147700000Y-90100000D03*
X147700000Y-87560000D03*
X147700000Y-85020000D03*
X147700000Y-82480000D03*
X147700000Y-79940000D03*
X147700000Y-77400000D03*
X147700000Y-74860000D03*
X147700000Y-72320000D03*
X147700000Y-69780000D03*
X147700000Y-67240000D03*
X147700000Y-64700000D03*
X147700000Y-62160000D03*
%TD*%
D15*
%TO.C,R6*%
X111920000Y-101500000D03*
X122080000Y-101500000D03*
%TD*%
D11*
%TO.C,SW4*%
X87750000Y-100750000D03*
X94250000Y-100750000D03*
X87750000Y-105250000D03*
X94250000Y-105250000D03*
%TD*%
%LPD*%
M02*
