%TF.GenerationSoftware,KiCad,Pcbnew,10.0.2*%
%TF.CreationDate,2026-08-04T12:33:49+10:00*%
%TF.ProjectId,pedal-counter,70656461-6c2d-4636-9f75-6e7465722e6b,rev?*%
%TF.SameCoordinates,Original*%
%TF.FileFunction,Copper,L1,Top*%
%TF.FilePolarity,Positive*%
%FSLAX46Y46*%
G04 Gerber Fmt 4.6, Leading zero omitted, Abs format (unit mm)*
G04 Created by KiCad (PCBNEW 10.0.2) date 2026-08-04 12:33:49*
%MOMM*%
%LPD*%
G01*
G04 APERTURE LIST*
G04 Aperture macros list*
%AMRoundRect*
0 Rectangle with rounded corners*
0 $1 Rounding radius*
0 $2 $3 $4 $5 $6 $7 $8 $9 X,Y pos of 4 corners*
0 Add a 4 corners polygon primitive as box body*
4,1,4,$2,$3,$4,$5,$6,$7,$8,$9,$2,$3,0*
0 Add four circle primitives for the rounded corners*
1,1,$1+$1,$2,$3*
1,1,$1+$1,$4,$5*
1,1,$1+$1,$6,$7*
1,1,$1+$1,$8,$9*
0 Add four rect primitives between the rounded corners*
20,1,$1+$1,$2,$3,$4,$5,0*
20,1,$1+$1,$4,$5,$6,$7,0*
20,1,$1+$1,$6,$7,$8,$9,0*
20,1,$1+$1,$8,$9,$2,$3,0*%
G04 Aperture macros list end*
%TA.AperFunction,ComponentPad*%
%ADD10C,2.000000*%
%TD*%
%TA.AperFunction,ComponentPad*%
%ADD11C,1.700000*%
%TD*%
%TA.AperFunction,ComponentPad*%
%ADD12R,1.800000X1.800000*%
%TD*%
%TA.AperFunction,ComponentPad*%
%ADD13C,1.800000*%
%TD*%
%TA.AperFunction,ComponentPad*%
%ADD14C,1.600000*%
%TD*%
%TA.AperFunction,ComponentPad*%
%ADD15C,1.900000*%
%TD*%
%TA.AperFunction,ComponentPad*%
%ADD16C,3.600000*%
%TD*%
%TA.AperFunction,ComponentPad*%
%ADD17RoundRect,0.250000X-0.550000X1.050000X-0.550000X-1.050000X0.550000X-1.050000X0.550000X1.050000X0*%
%TD*%
%TA.AperFunction,ComponentPad*%
%ADD18O,1.600000X2.600000*%
%TD*%
%TA.AperFunction,ViaPad*%
%ADD19C,0.600000*%
%TD*%
%TA.AperFunction,Conductor*%
%ADD20C,0.200000*%
%TD*%
G04 APERTURE END LIST*
D10*
%TO.P,SW1,1,1_1*%
%TO.N,GND*%
X87750000Y-95000000D03*
X94250000Y-95000000D03*
%TO.P,SW1,2,2_2*%
%TO.N,PBT_LAP*%
X87750000Y-99500000D03*
X94250000Y-99500000D03*
%TD*%
D11*
%TO.P,U1,1,GND_1*%
%TO.N,GND*%
X106190000Y-68000000D03*
%TO.P,U1,2,VCC_2*%
%TO.N,+3.3V*%
X108730000Y-68000000D03*
%TO.P,U1,3,SCL_3*%
%TO.N,SCL*%
X113810000Y-68000000D03*
%TO.P,U1,4,SDA_4*%
%TO.N,SDA*%
X111270000Y-68000000D03*
%TD*%
D12*
%TO.P,D2,1,K_1*%
%TO.N,GND*%
X108770000Y-55000000D03*
D13*
%TO.P,D2,2,A_2*%
%TO.N,Net-(D2-A)*%
X106230000Y-55000000D03*
%TD*%
D10*
%TO.P,SW3,1,1_1*%
%TO.N,GND*%
X113000000Y-95000000D03*
X119500000Y-95000000D03*
%TO.P,SW3,2,2_2*%
%TO.N,PBT_INC*%
X113000000Y-99500000D03*
X119500000Y-99500000D03*
%TD*%
D14*
%TO.P,R4,1*%
%TO.N,+3.3V*%
X92190000Y-69920000D03*
%TO.P,R4,2*%
%TO.N,PBT_DEC*%
X92190000Y-80080000D03*
%TD*%
D12*
%TO.P,D1,1,K_1*%
%TO.N,GND*%
X115270000Y-55000000D03*
D13*
%TO.P,D1,2,A_2*%
%TO.N,Net-(D1-A)*%
X112730000Y-55000000D03*
%TD*%
D14*
%TO.P,R5,1*%
%TO.N,+3.3V*%
X128190000Y-69920000D03*
%TO.P,R5,2*%
%TO.N,PBT_INC*%
X128190000Y-80080000D03*
%TD*%
%TO.P,R3,1*%
%TO.N,+3.3V*%
X87690000Y-69920000D03*
%TO.P,R3,2*%
%TO.N,PBT_LAP*%
X87690000Y-80080000D03*
%TD*%
%TO.P,R2,1*%
%TO.N,OUT_LED_STATUS*%
X99840000Y-60500000D03*
%TO.P,R2,2*%
%TO.N,Net-(D2-A)*%
X110000000Y-60500000D03*
%TD*%
D15*
%TO.P,J1,1*%
%TO.N,GND*%
X91500000Y-53000000D03*
%TO.P,J1,2*%
%TO.N,unconnected-(J1-Pad2)*%
X96500000Y-58000000D03*
%TO.P,J1,3*%
%TO.N,unconnected-(J1-Pad3)*%
X94000000Y-58000000D03*
%TO.P,J1,4*%
%TO.N,unconnected-(J1-Pad4)*%
X89000000Y-58000000D03*
%TO.P,J1,5*%
%TO.N,3.5MM_TRS_TIP*%
X86500000Y-58000000D03*
%TD*%
D14*
%TO.P,R1,1*%
%TO.N,+3.3V*%
X122580000Y-60500000D03*
%TO.P,R1,2*%
%TO.N,Net-(D1-A)*%
X112420000Y-60500000D03*
%TD*%
D10*
%TO.P,SW2,1,1_1*%
%TO.N,GND*%
X102000000Y-95000000D03*
X108500000Y-95000000D03*
%TO.P,SW2,2,2_2*%
%TO.N,PBT_DEC*%
X102000000Y-99500000D03*
X108500000Y-99500000D03*
%TD*%
D16*
%TO.P,SW5,1,A_1*%
%TO.N,SW_SPDT*%
X128960000Y-55000000D03*
%TO.P,SW5,2,B_2*%
%TO.N,GND*%
X124960000Y-55000000D03*
%TO.P,SW5,3,C_3*%
%TO.N,unconnected-(SW5-C-Pad3)*%
X132960000Y-55000000D03*
%TD*%
D14*
%TO.P,R6,1*%
%TO.N,+3.3V*%
X132690000Y-69840000D03*
%TO.P,R6,2*%
%TO.N,PBT_MODE*%
X132690000Y-80000000D03*
%TD*%
D10*
%TO.P,SW4,1,1_1*%
%TO.N,GND*%
X126750000Y-95000000D03*
X133250000Y-95000000D03*
%TO.P,SW4,2,2_2*%
%TO.N,PBT_MODE*%
X126750000Y-99500000D03*
X133250000Y-99500000D03*
%TD*%
D17*
%TO.P,A1,1,~{RESET}_1*%
%TO.N,unconnected-(A1-~{RESET}-Pad1)*%
X90990000Y-64800000D03*
D18*
%TO.P,A1,2,3V3_2*%
%TO.N,+3.3V*%
X93530000Y-64800000D03*
%TO.P,A1,3,NC_3*%
%TO.N,unconnected-(A1-NC-Pad3)*%
X96070000Y-64800000D03*
%TO.P,A1,4,GND_4*%
%TO.N,GND*%
X98610000Y-64800000D03*
%TO.P,A1,5,DAC2/A0_5*%
%TO.N,OUT_LED_STATUS*%
X101150000Y-64800000D03*
%TO.P,A1,6,DAC1/A1_6*%
%TO.N,unconnected-(A1-DAC1{slash}A1-Pad6)*%
X103690000Y-64800000D03*
%TO.P,A1,7,I34/A2_7*%
%TO.N,unconnected-(A1-I34{slash}A2-Pad7)*%
X106230000Y-64800000D03*
%TO.P,A1,8,I39/A3_8*%
%TO.N,unconnected-(A1-I39{slash}A3-Pad8)*%
X108770000Y-64800000D03*
%TO.P,A1,9,IO36/A4_9*%
%TO.N,unconnected-(A1-IO36{slash}A4-Pad9)*%
X111310000Y-64800000D03*
%TO.P,A1,10,IO4/A5_10*%
%TO.N,unconnected-(A1-IO4{slash}A5-Pad10)*%
X113850000Y-64800000D03*
%TO.P,A1,11,SCK/IO5_11*%
%TO.N,unconnected-(A1-SCK{slash}IO5-Pad11)*%
X116390000Y-64800000D03*
%TO.P,A1,12,MOSI/IO18_12*%
%TO.N,unconnected-(A1-MOSI{slash}IO18-Pad12)*%
X118930000Y-64800000D03*
%TO.P,A1,13,MISO/IO19_13*%
%TO.N,unconnected-(A1-MISO{slash}IO19-Pad13)*%
X121470000Y-64800000D03*
%TO.P,A1,14,RX/IO16_14*%
%TO.N,unconnected-(A1-RX{slash}IO16-Pad14)*%
X124010000Y-64800000D03*
%TO.P,A1,15,TX/IO17_15*%
%TO.N,unconnected-(A1-TX{slash}IO17-Pad15)*%
X126550000Y-64800000D03*
%TO.P,A1,16,IO21_16*%
%TO.N,unconnected-(A1-IO21-Pad16)*%
X129090000Y-64800000D03*
%TO.P,A1,17,SDA/IO23_17*%
%TO.N,SDA*%
X129090000Y-84520000D03*
%TO.P,A1,18,SCL/IO22_18*%
%TO.N,SCL*%
X126550000Y-84520000D03*
%TO.P,A1,19,A6/IO14_19*%
%TO.N,3.5MM_TRS_TIP*%
X124010000Y-84520000D03*
%TO.P,A1,20,A7/IO32_20*%
%TO.N,PBT_LAP*%
X121470000Y-84520000D03*
%TO.P,A1,21,A8/IO15_21*%
%TO.N,PBT_DEC*%
X118930000Y-84520000D03*
%TO.P,A1,22,A9/IO33_22*%
%TO.N,PBT_INC*%
X116390000Y-84520000D03*
%TO.P,A1,23,A10/IO27_23*%
%TO.N,PBT_MODE*%
X113850000Y-84520000D03*
%TO.P,A1,24,A11/IO12_24*%
%TO.N,unconnected-(A1-A11{slash}IO12-Pad24)*%
X111310000Y-84520000D03*
%TO.P,A1,25,A12/IO13_25*%
%TO.N,unconnected-(A1-A12{slash}IO13-Pad25)*%
X108770000Y-84520000D03*
%TO.P,A1,26,USB_26*%
%TO.N,unconnected-(A1-USB-Pad26)*%
X106230000Y-84520000D03*
%TO.P,A1,27,EN_27*%
%TO.N,SW_SPDT*%
X103690000Y-84520000D03*
%TO.P,A1,28,VBAT_28*%
%TO.N,unconnected-(A1-VBAT-Pad28)*%
X101150000Y-84520000D03*
%TD*%
D19*
%TO.N,PBT_LAP*%
X97500000Y-97500000D03*
%TO.N,SCL*%
X125500000Y-82000000D03*
%TO.N,SDA*%
X122000000Y-71500000D03*
X126500000Y-81500000D03*
%TD*%
%TO.N,GND*%
D20*
X87750000Y-95000000D02*
X90500000Y-92250000D01*
X113000000Y-95000000D02*
X119500000Y-95000000D01*
X124960000Y-55000000D02*
X115270000Y-55000000D01*
X109870000Y-65755635D02*
X108775635Y-66850000D01*
X108770000Y-55000000D02*
X109970000Y-53800000D01*
X102110000Y-68000000D02*
X98610000Y-64500000D01*
X86590000Y-70375635D02*
X86590000Y-66815256D01*
X108770000Y-55000000D02*
X111100000Y-57330000D01*
X126750000Y-95000000D02*
X133250000Y-95000000D01*
X97310000Y-63200000D02*
X98610000Y-64500000D01*
X90500000Y-74285635D02*
X86590000Y-70375635D01*
X107840000Y-66850000D02*
X106690000Y-68000000D01*
X90500000Y-92250000D02*
X90500000Y-74285635D01*
X90205256Y-63200000D02*
X97310000Y-63200000D01*
X106690000Y-68000000D02*
X102110000Y-68000000D01*
X86590000Y-66815256D02*
X90205256Y-63200000D01*
X111100000Y-62614365D02*
X109870000Y-63844365D01*
X102000000Y-95000000D02*
X108500000Y-95000000D01*
X111100000Y-57330000D02*
X111100000Y-62614365D01*
X91500000Y-53000000D02*
X91500000Y-57390000D01*
X87750000Y-95000000D02*
X94250000Y-95000000D01*
X91500000Y-57390000D02*
X98610000Y-64500000D01*
X108775635Y-66850000D02*
X107840000Y-66850000D01*
X109870000Y-63844365D02*
X109870000Y-65755635D01*
X109970000Y-53800000D02*
X114070000Y-53800000D01*
X114070000Y-53800000D02*
X115270000Y-55000000D01*
%TO.N,PBT_LAP*%
X87690000Y-80080000D02*
X86450000Y-81320000D01*
X94250000Y-99500000D02*
X96250000Y-97500000D01*
X86450000Y-98200000D02*
X87750000Y-99500000D01*
X96250000Y-97500000D02*
X97500000Y-97500000D01*
X86450000Y-81320000D02*
X86450000Y-98200000D01*
X87750000Y-99500000D02*
X94250000Y-99500000D01*
%TO.N,+3.3V*%
X115290000Y-65415635D02*
X115290000Y-63844365D01*
X92190000Y-65840000D02*
X92190000Y-69920000D01*
X108080000Y-69150000D02*
X98180000Y-69150000D01*
X113855635Y-66850000D02*
X115290000Y-65415635D01*
X92190000Y-69920000D02*
X87690000Y-69920000D01*
X109230000Y-68000000D02*
X110380000Y-66850000D01*
X109230000Y-68000000D02*
X108080000Y-69150000D01*
X98180000Y-69150000D02*
X93530000Y-64500000D01*
X93530000Y-64500000D02*
X92190000Y-65840000D01*
X110380000Y-66850000D02*
X113855635Y-66850000D01*
X118634365Y-60500000D02*
X122580000Y-60500000D01*
X115290000Y-63844365D02*
X118634365Y-60500000D01*
%TO.N,SCL*%
X126550000Y-83050000D02*
X125500000Y-82000000D01*
X126550000Y-84820000D02*
X126550000Y-83050000D01*
%TO.N,SDA*%
X129090000Y-84820000D02*
X129090000Y-84090000D01*
X115270000Y-71500000D02*
X111770000Y-68000000D01*
X129090000Y-84090000D02*
X126500000Y-81500000D01*
X122000000Y-71500000D02*
X115270000Y-71500000D01*
%TO.N,Net-(D2-A)*%
X106230000Y-56730000D02*
X110000000Y-60500000D01*
X106230000Y-55000000D02*
X106230000Y-56730000D01*
%TO.N,PBT_INC*%
X119385635Y-82920000D02*
X118290000Y-82920000D01*
X120800000Y-98200000D02*
X120800000Y-85905635D01*
X120800000Y-85905635D02*
X120030000Y-85135635D01*
X119500000Y-99500000D02*
X120800000Y-98200000D01*
X128190000Y-80080000D02*
X121130000Y-80080000D01*
X113000000Y-99500000D02*
X119500000Y-99500000D01*
X118290000Y-82920000D02*
X116390000Y-84820000D01*
X120030000Y-83564365D02*
X119385635Y-82920000D01*
X120030000Y-85135635D02*
X120030000Y-83564365D01*
X121130000Y-80080000D02*
X116390000Y-84820000D01*
%TO.N,PBT_DEC*%
X102000000Y-99500000D02*
X108500000Y-99500000D01*
X108500000Y-99500000D02*
X108500000Y-97661522D01*
X108500000Y-97661522D02*
X118930000Y-87231522D01*
X92190000Y-80080000D02*
X92190000Y-89690000D01*
X92190000Y-89690000D02*
X102000000Y-99500000D01*
X118930000Y-87231522D02*
X118930000Y-84820000D01*
%TO.N,Net-(D1-A)*%
X112730000Y-60190000D02*
X112420000Y-60500000D01*
X112730000Y-55000000D02*
X112730000Y-60190000D01*
%TO.N,OUT_LED_STATUS*%
X99840000Y-60500000D02*
X99840000Y-63190000D01*
X99840000Y-63190000D02*
X101150000Y-64500000D01*
%TO.N,PBT_MODE*%
X132690000Y-80000000D02*
X131670000Y-78980000D01*
X134550000Y-98200000D02*
X134550000Y-81860000D01*
X119690000Y-78980000D02*
X113850000Y-84820000D01*
X134550000Y-81860000D02*
X132690000Y-80000000D01*
X126750000Y-99500000D02*
X133250000Y-99500000D01*
X131670000Y-78980000D02*
X119690000Y-78980000D01*
X133250000Y-99500000D02*
X134550000Y-98200000D01*
%TO.N,SW_SPDT*%
X111580000Y-82920000D02*
X105590000Y-82920000D01*
X128960000Y-55000000D02*
X125450000Y-58510000D01*
X105590000Y-82920000D02*
X103690000Y-84820000D01*
X125450000Y-69050000D02*
X111580000Y-82920000D01*
X125450000Y-58510000D02*
X125450000Y-69050000D01*
%TD*%
M02*
