%TF.GenerationSoftware,KiCad,Pcbnew,10.0.2*%
%TF.CreationDate,2026-08-04T12:33:49+10:00*%
%TF.ProjectId,pedal-counter,70656461-6c2d-4636-9f75-6e7465722e6b,rev?*%
%TF.SameCoordinates,Original*%
%TF.FileFunction,Legend,Top*%
%TF.FilePolarity,Positive*%
%FSLAX46Y46*%
G04 Gerber Fmt 4.6, Leading zero omitted, Abs format (unit mm)*
G04 Created by KiCad (PCBNEW 10.0.2) date 2026-08-04 12:33:49*
%MOMM*%
%LPD*%
G01*
G04 APERTURE LIST*
G04 Aperture macros list*
%AMRoundRect*
0 Rectangle with rounded corners*
0 $1 Rounding radius*
0 $2 $3 $4 $5 $6 $7 $8 $9 X,Y pos of 4 corners*
0 Add a 4 corners polygon primitive as box body*
4,1,4,$2,$3,$4,$5,$6,$7,$8,$9,$2,$3,0*
0 Add four circle primitives for the rounded corners*
1,1,$1+$1,$2,$3*
1,1,$1+$1,$4,$5*
1,1,$1+$1,$6,$7*
1,1,$1+$1,$8,$9*
0 Add four rect primitives between the rounded corners*
20,1,$1+$1,$2,$3,$4,$5,0*
20,1,$1+$1,$4,$5,$6,$7,0*
20,1,$1+$1,$6,$7,$8,$9,0*
20,1,$1+$1,$8,$9,$2,$3,0*%
G04 Aperture macros list end*
%ADD10C,0.150000*%
%ADD11C,0.100000*%
%ADD12C,0.120000*%
%ADD13C,2.000000*%
%ADD14C,1.700000*%
%ADD15R,1.800000X1.800000*%
%ADD16C,1.800000*%
%ADD17C,1.600000*%
%ADD18C,1.900000*%
%ADD19C,3.600000*%
%ADD20RoundRect,0.250000X-0.550000X1.050000X-0.550000X-1.050000X0.550000X-1.050000X0.550000X1.050000X0*%
%ADD21O,1.600000X2.600000*%
G04 APERTURE END LIST*
D10*
X89666667Y-97657200D02*
X89809524Y-97704819D01*
X89809524Y-97704819D02*
X90047619Y-97704819D01*
X90047619Y-97704819D02*
X90142857Y-97657200D01*
X90142857Y-97657200D02*
X90190476Y-97609580D01*
X90190476Y-97609580D02*
X90238095Y-97514342D01*
X90238095Y-97514342D02*
X90238095Y-97419104D01*
X90238095Y-97419104D02*
X90190476Y-97323866D01*
X90190476Y-97323866D02*
X90142857Y-97276247D01*
X90142857Y-97276247D02*
X90047619Y-97228628D01*
X90047619Y-97228628D02*
X89857143Y-97181009D01*
X89857143Y-97181009D02*
X89761905Y-97133390D01*
X89761905Y-97133390D02*
X89714286Y-97085771D01*
X89714286Y-97085771D02*
X89666667Y-96990533D01*
X89666667Y-96990533D02*
X89666667Y-96895295D01*
X89666667Y-96895295D02*
X89714286Y-96800057D01*
X89714286Y-96800057D02*
X89761905Y-96752438D01*
X89761905Y-96752438D02*
X89857143Y-96704819D01*
X89857143Y-96704819D02*
X90095238Y-96704819D01*
X90095238Y-96704819D02*
X90238095Y-96752438D01*
X90571429Y-96704819D02*
X90809524Y-97704819D01*
X90809524Y-97704819D02*
X91000000Y-96990533D01*
X91000000Y-96990533D02*
X91190476Y-97704819D01*
X91190476Y-97704819D02*
X91428572Y-96704819D01*
X92333333Y-97704819D02*
X91761905Y-97704819D01*
X92047619Y-97704819D02*
X92047619Y-96704819D01*
X92047619Y-96704819D02*
X91952381Y-96847676D01*
X91952381Y-96847676D02*
X91857143Y-96942914D01*
X91857143Y-96942914D02*
X91761905Y-96990533D01*
X87309524Y-102454819D02*
X87309524Y-101454819D01*
X87309524Y-101454819D02*
X87880952Y-102454819D01*
X87880952Y-102454819D02*
X87880952Y-101454819D01*
X88357143Y-101931009D02*
X88690476Y-101931009D01*
X88833333Y-102454819D02*
X88357143Y-102454819D01*
X88357143Y-102454819D02*
X88357143Y-101454819D01*
X88357143Y-101454819D02*
X88833333Y-101454819D01*
X89166667Y-101454819D02*
X89404762Y-102454819D01*
X89404762Y-102454819D02*
X89595238Y-101740533D01*
X89595238Y-101740533D02*
X89785714Y-102454819D01*
X89785714Y-102454819D02*
X90023810Y-101454819D01*
X91119047Y-101407200D02*
X90261905Y-102692914D01*
X91928571Y-102454819D02*
X91452381Y-102454819D01*
X91452381Y-102454819D02*
X91452381Y-101454819D01*
X92452381Y-101454819D02*
X92642857Y-101454819D01*
X92642857Y-101454819D02*
X92738095Y-101502438D01*
X92738095Y-101502438D02*
X92833333Y-101597676D01*
X92833333Y-101597676D02*
X92880952Y-101788152D01*
X92880952Y-101788152D02*
X92880952Y-102121485D01*
X92880952Y-102121485D02*
X92833333Y-102311961D01*
X92833333Y-102311961D02*
X92738095Y-102407200D01*
X92738095Y-102407200D02*
X92642857Y-102454819D01*
X92642857Y-102454819D02*
X92452381Y-102454819D01*
X92452381Y-102454819D02*
X92357143Y-102407200D01*
X92357143Y-102407200D02*
X92261905Y-102311961D01*
X92261905Y-102311961D02*
X92214286Y-102121485D01*
X92214286Y-102121485D02*
X92214286Y-101788152D01*
X92214286Y-101788152D02*
X92261905Y-101597676D01*
X92261905Y-101597676D02*
X92357143Y-101502438D01*
X92357143Y-101502438D02*
X92452381Y-101454819D01*
X93261905Y-102169104D02*
X93738095Y-102169104D01*
X93166667Y-102454819D02*
X93500000Y-101454819D01*
X93500000Y-101454819D02*
X93833333Y-102454819D01*
X94166667Y-102454819D02*
X94166667Y-101454819D01*
X94166667Y-101454819D02*
X94404762Y-101454819D01*
X94404762Y-101454819D02*
X94547619Y-101502438D01*
X94547619Y-101502438D02*
X94642857Y-101597676D01*
X94642857Y-101597676D02*
X94690476Y-101692914D01*
X94690476Y-101692914D02*
X94738095Y-101883390D01*
X94738095Y-101883390D02*
X94738095Y-102026247D01*
X94738095Y-102026247D02*
X94690476Y-102216723D01*
X94690476Y-102216723D02*
X94642857Y-102311961D01*
X94642857Y-102311961D02*
X94547619Y-102407200D01*
X94547619Y-102407200D02*
X94404762Y-102454819D01*
X94404762Y-102454819D02*
X94166667Y-102454819D01*
D11*
X109238095Y-79457419D02*
X109238095Y-80266942D01*
X109238095Y-80266942D02*
X109285714Y-80362180D01*
X109285714Y-80362180D02*
X109333333Y-80409800D01*
X109333333Y-80409800D02*
X109428571Y-80457419D01*
X109428571Y-80457419D02*
X109619047Y-80457419D01*
X109619047Y-80457419D02*
X109714285Y-80409800D01*
X109714285Y-80409800D02*
X109761904Y-80362180D01*
X109761904Y-80362180D02*
X109809523Y-80266942D01*
X109809523Y-80266942D02*
X109809523Y-79457419D01*
X110809523Y-80457419D02*
X110238095Y-80457419D01*
X110523809Y-80457419D02*
X110523809Y-79457419D01*
X110523809Y-79457419D02*
X110428571Y-79600276D01*
X110428571Y-79600276D02*
X110333333Y-79695514D01*
X110333333Y-79695514D02*
X110238095Y-79743133D01*
D10*
X101167143Y-89454819D02*
X101167143Y-88454819D01*
X101167143Y-88454819D02*
X101548095Y-88454819D01*
X101548095Y-88454819D02*
X101643333Y-88502438D01*
X101643333Y-88502438D02*
X101690952Y-88550057D01*
X101690952Y-88550057D02*
X101738571Y-88645295D01*
X101738571Y-88645295D02*
X101738571Y-88788152D01*
X101738571Y-88788152D02*
X101690952Y-88883390D01*
X101690952Y-88883390D02*
X101643333Y-88931009D01*
X101643333Y-88931009D02*
X101548095Y-88978628D01*
X101548095Y-88978628D02*
X101167143Y-88978628D01*
X102167143Y-89454819D02*
X102167143Y-88454819D01*
X102643333Y-89454819D02*
X102643333Y-88454819D01*
X103690951Y-89359580D02*
X103643332Y-89407200D01*
X103643332Y-89407200D02*
X103500475Y-89454819D01*
X103500475Y-89454819D02*
X103405237Y-89454819D01*
X103405237Y-89454819D02*
X103262380Y-89407200D01*
X103262380Y-89407200D02*
X103167142Y-89311961D01*
X103167142Y-89311961D02*
X103119523Y-89216723D01*
X103119523Y-89216723D02*
X103071904Y-89026247D01*
X103071904Y-89026247D02*
X103071904Y-88883390D01*
X103071904Y-88883390D02*
X103119523Y-88692914D01*
X103119523Y-88692914D02*
X103167142Y-88597676D01*
X103167142Y-88597676D02*
X103262380Y-88502438D01*
X103262380Y-88502438D02*
X103405237Y-88454819D01*
X103405237Y-88454819D02*
X103500475Y-88454819D01*
X103500475Y-88454819D02*
X103643332Y-88502438D01*
X103643332Y-88502438D02*
X103690951Y-88550057D01*
X104309999Y-88454819D02*
X104500475Y-88454819D01*
X104500475Y-88454819D02*
X104595713Y-88502438D01*
X104595713Y-88502438D02*
X104690951Y-88597676D01*
X104690951Y-88597676D02*
X104738570Y-88788152D01*
X104738570Y-88788152D02*
X104738570Y-89121485D01*
X104738570Y-89121485D02*
X104690951Y-89311961D01*
X104690951Y-89311961D02*
X104595713Y-89407200D01*
X104595713Y-89407200D02*
X104500475Y-89454819D01*
X104500475Y-89454819D02*
X104309999Y-89454819D01*
X104309999Y-89454819D02*
X104214761Y-89407200D01*
X104214761Y-89407200D02*
X104119523Y-89311961D01*
X104119523Y-89311961D02*
X104071904Y-89121485D01*
X104071904Y-89121485D02*
X104071904Y-88788152D01*
X104071904Y-88788152D02*
X104119523Y-88597676D01*
X104119523Y-88597676D02*
X104214761Y-88502438D01*
X104214761Y-88502438D02*
X104309999Y-88454819D01*
X105167142Y-89454819D02*
X105167142Y-88454819D01*
X105167142Y-88454819D02*
X105405237Y-88454819D01*
X105405237Y-88454819D02*
X105548094Y-88502438D01*
X105548094Y-88502438D02*
X105643332Y-88597676D01*
X105643332Y-88597676D02*
X105690951Y-88692914D01*
X105690951Y-88692914D02*
X105738570Y-88883390D01*
X105738570Y-88883390D02*
X105738570Y-89026247D01*
X105738570Y-89026247D02*
X105690951Y-89216723D01*
X105690951Y-89216723D02*
X105643332Y-89311961D01*
X105643332Y-89311961D02*
X105548094Y-89407200D01*
X105548094Y-89407200D02*
X105405237Y-89454819D01*
X105405237Y-89454819D02*
X105167142Y-89454819D01*
X106167142Y-88931009D02*
X106500475Y-88931009D01*
X106643332Y-89454819D02*
X106167142Y-89454819D01*
X106167142Y-89454819D02*
X106167142Y-88454819D01*
X106167142Y-88454819D02*
X106643332Y-88454819D01*
X106929047Y-88454819D02*
X107262380Y-89454819D01*
X107262380Y-89454819D02*
X107595713Y-88454819D01*
X107690952Y-89550057D02*
X108452856Y-89550057D01*
X108881428Y-88454819D02*
X109071904Y-88454819D01*
X109071904Y-88454819D02*
X109167142Y-88502438D01*
X109167142Y-88502438D02*
X109262380Y-88597676D01*
X109262380Y-88597676D02*
X109309999Y-88788152D01*
X109309999Y-88788152D02*
X109309999Y-89121485D01*
X109309999Y-89121485D02*
X109262380Y-89311961D01*
X109262380Y-89311961D02*
X109167142Y-89407200D01*
X109167142Y-89407200D02*
X109071904Y-89454819D01*
X109071904Y-89454819D02*
X108881428Y-89454819D01*
X108881428Y-89454819D02*
X108786190Y-89407200D01*
X108786190Y-89407200D02*
X108690952Y-89311961D01*
X108690952Y-89311961D02*
X108643333Y-89121485D01*
X108643333Y-89121485D02*
X108643333Y-88788152D01*
X108643333Y-88788152D02*
X108690952Y-88597676D01*
X108690952Y-88597676D02*
X108786190Y-88502438D01*
X108786190Y-88502438D02*
X108881428Y-88454819D01*
X110214761Y-89454819D02*
X109738571Y-89454819D01*
X109738571Y-89454819D02*
X109738571Y-88454819D01*
X110548095Y-88931009D02*
X110881428Y-88931009D01*
X111024285Y-89454819D02*
X110548095Y-89454819D01*
X110548095Y-89454819D02*
X110548095Y-88454819D01*
X110548095Y-88454819D02*
X111024285Y-88454819D01*
X111452857Y-89454819D02*
X111452857Y-88454819D01*
X111452857Y-88454819D02*
X111690952Y-88454819D01*
X111690952Y-88454819D02*
X111833809Y-88502438D01*
X111833809Y-88502438D02*
X111929047Y-88597676D01*
X111929047Y-88597676D02*
X111976666Y-88692914D01*
X111976666Y-88692914D02*
X112024285Y-88883390D01*
X112024285Y-88883390D02*
X112024285Y-89026247D01*
X112024285Y-89026247D02*
X111976666Y-89216723D01*
X111976666Y-89216723D02*
X111929047Y-89311961D01*
X111929047Y-89311961D02*
X111833809Y-89407200D01*
X111833809Y-89407200D02*
X111690952Y-89454819D01*
X111690952Y-89454819D02*
X111452857Y-89454819D01*
X112214762Y-89550057D02*
X112976666Y-89550057D01*
X113167143Y-89407200D02*
X113310000Y-89454819D01*
X113310000Y-89454819D02*
X113548095Y-89454819D01*
X113548095Y-89454819D02*
X113643333Y-89407200D01*
X113643333Y-89407200D02*
X113690952Y-89359580D01*
X113690952Y-89359580D02*
X113738571Y-89264342D01*
X113738571Y-89264342D02*
X113738571Y-89169104D01*
X113738571Y-89169104D02*
X113690952Y-89073866D01*
X113690952Y-89073866D02*
X113643333Y-89026247D01*
X113643333Y-89026247D02*
X113548095Y-88978628D01*
X113548095Y-88978628D02*
X113357619Y-88931009D01*
X113357619Y-88931009D02*
X113262381Y-88883390D01*
X113262381Y-88883390D02*
X113214762Y-88835771D01*
X113214762Y-88835771D02*
X113167143Y-88740533D01*
X113167143Y-88740533D02*
X113167143Y-88645295D01*
X113167143Y-88645295D02*
X113214762Y-88550057D01*
X113214762Y-88550057D02*
X113262381Y-88502438D01*
X113262381Y-88502438D02*
X113357619Y-88454819D01*
X113357619Y-88454819D02*
X113595714Y-88454819D01*
X113595714Y-88454819D02*
X113738571Y-88502438D01*
X114119524Y-89407200D02*
X114262381Y-89454819D01*
X114262381Y-89454819D02*
X114500476Y-89454819D01*
X114500476Y-89454819D02*
X114595714Y-89407200D01*
X114595714Y-89407200D02*
X114643333Y-89359580D01*
X114643333Y-89359580D02*
X114690952Y-89264342D01*
X114690952Y-89264342D02*
X114690952Y-89169104D01*
X114690952Y-89169104D02*
X114643333Y-89073866D01*
X114643333Y-89073866D02*
X114595714Y-89026247D01*
X114595714Y-89026247D02*
X114500476Y-88978628D01*
X114500476Y-88978628D02*
X114310000Y-88931009D01*
X114310000Y-88931009D02*
X114214762Y-88883390D01*
X114214762Y-88883390D02*
X114167143Y-88835771D01*
X114167143Y-88835771D02*
X114119524Y-88740533D01*
X114119524Y-88740533D02*
X114119524Y-88645295D01*
X114119524Y-88645295D02*
X114167143Y-88550057D01*
X114167143Y-88550057D02*
X114214762Y-88502438D01*
X114214762Y-88502438D02*
X114310000Y-88454819D01*
X114310000Y-88454819D02*
X114548095Y-88454819D01*
X114548095Y-88454819D02*
X114690952Y-88502438D01*
X115119524Y-89454819D02*
X115119524Y-88454819D01*
X115119524Y-88454819D02*
X115357619Y-88454819D01*
X115357619Y-88454819D02*
X115500476Y-88502438D01*
X115500476Y-88502438D02*
X115595714Y-88597676D01*
X115595714Y-88597676D02*
X115643333Y-88692914D01*
X115643333Y-88692914D02*
X115690952Y-88883390D01*
X115690952Y-88883390D02*
X115690952Y-89026247D01*
X115690952Y-89026247D02*
X115643333Y-89216723D01*
X115643333Y-89216723D02*
X115595714Y-89311961D01*
X115595714Y-89311961D02*
X115500476Y-89407200D01*
X115500476Y-89407200D02*
X115357619Y-89454819D01*
X115357619Y-89454819D02*
X115119524Y-89454819D01*
X116643333Y-89454819D02*
X116071905Y-89454819D01*
X116357619Y-89454819D02*
X116357619Y-88454819D01*
X116357619Y-88454819D02*
X116262381Y-88597676D01*
X116262381Y-88597676D02*
X116167143Y-88692914D01*
X116167143Y-88692914D02*
X116071905Y-88740533D01*
X116976667Y-88454819D02*
X117595714Y-88454819D01*
X117595714Y-88454819D02*
X117262381Y-88835771D01*
X117262381Y-88835771D02*
X117405238Y-88835771D01*
X117405238Y-88835771D02*
X117500476Y-88883390D01*
X117500476Y-88883390D02*
X117548095Y-88931009D01*
X117548095Y-88931009D02*
X117595714Y-89026247D01*
X117595714Y-89026247D02*
X117595714Y-89264342D01*
X117595714Y-89264342D02*
X117548095Y-89359580D01*
X117548095Y-89359580D02*
X117500476Y-89407200D01*
X117500476Y-89407200D02*
X117405238Y-89454819D01*
X117405238Y-89454819D02*
X117119524Y-89454819D01*
X117119524Y-89454819D02*
X117024286Y-89407200D01*
X117024286Y-89407200D02*
X116976667Y-89359580D01*
X118214762Y-88454819D02*
X118310000Y-88454819D01*
X118310000Y-88454819D02*
X118405238Y-88502438D01*
X118405238Y-88502438D02*
X118452857Y-88550057D01*
X118452857Y-88550057D02*
X118500476Y-88645295D01*
X118500476Y-88645295D02*
X118548095Y-88835771D01*
X118548095Y-88835771D02*
X118548095Y-89073866D01*
X118548095Y-89073866D02*
X118500476Y-89264342D01*
X118500476Y-89264342D02*
X118452857Y-89359580D01*
X118452857Y-89359580D02*
X118405238Y-89407200D01*
X118405238Y-89407200D02*
X118310000Y-89454819D01*
X118310000Y-89454819D02*
X118214762Y-89454819D01*
X118214762Y-89454819D02*
X118119524Y-89407200D01*
X118119524Y-89407200D02*
X118071905Y-89359580D01*
X118071905Y-89359580D02*
X118024286Y-89264342D01*
X118024286Y-89264342D02*
X117976667Y-89073866D01*
X117976667Y-89073866D02*
X117976667Y-88835771D01*
X117976667Y-88835771D02*
X118024286Y-88645295D01*
X118024286Y-88645295D02*
X118071905Y-88550057D01*
X118071905Y-88550057D02*
X118119524Y-88502438D01*
X118119524Y-88502438D02*
X118214762Y-88454819D01*
X119405238Y-88454819D02*
X119214762Y-88454819D01*
X119214762Y-88454819D02*
X119119524Y-88502438D01*
X119119524Y-88502438D02*
X119071905Y-88550057D01*
X119071905Y-88550057D02*
X118976667Y-88692914D01*
X118976667Y-88692914D02*
X118929048Y-88883390D01*
X118929048Y-88883390D02*
X118929048Y-89264342D01*
X118929048Y-89264342D02*
X118976667Y-89359580D01*
X118976667Y-89359580D02*
X119024286Y-89407200D01*
X119024286Y-89407200D02*
X119119524Y-89454819D01*
X119119524Y-89454819D02*
X119310000Y-89454819D01*
X119310000Y-89454819D02*
X119405238Y-89407200D01*
X119405238Y-89407200D02*
X119452857Y-89359580D01*
X119452857Y-89359580D02*
X119500476Y-89264342D01*
X119500476Y-89264342D02*
X119500476Y-89026247D01*
X119500476Y-89026247D02*
X119452857Y-88931009D01*
X119452857Y-88931009D02*
X119405238Y-88883390D01*
X119405238Y-88883390D02*
X119310000Y-88835771D01*
X119310000Y-88835771D02*
X119119524Y-88835771D01*
X119119524Y-88835771D02*
X119024286Y-88883390D01*
X119024286Y-88883390D02*
X118976667Y-88931009D01*
X118976667Y-88931009D02*
X118929048Y-89026247D01*
X102256905Y-55454819D02*
X102256905Y-54454819D01*
X102256905Y-54454819D02*
X102495000Y-54454819D01*
X102495000Y-54454819D02*
X102637857Y-54502438D01*
X102637857Y-54502438D02*
X102733095Y-54597676D01*
X102733095Y-54597676D02*
X102780714Y-54692914D01*
X102780714Y-54692914D02*
X102828333Y-54883390D01*
X102828333Y-54883390D02*
X102828333Y-55026247D01*
X102828333Y-55026247D02*
X102780714Y-55216723D01*
X102780714Y-55216723D02*
X102733095Y-55311961D01*
X102733095Y-55311961D02*
X102637857Y-55407200D01*
X102637857Y-55407200D02*
X102495000Y-55454819D01*
X102495000Y-55454819D02*
X102256905Y-55454819D01*
X103209286Y-54550057D02*
X103256905Y-54502438D01*
X103256905Y-54502438D02*
X103352143Y-54454819D01*
X103352143Y-54454819D02*
X103590238Y-54454819D01*
X103590238Y-54454819D02*
X103685476Y-54502438D01*
X103685476Y-54502438D02*
X103733095Y-54550057D01*
X103733095Y-54550057D02*
X103780714Y-54645295D01*
X103780714Y-54645295D02*
X103780714Y-54740533D01*
X103780714Y-54740533D02*
X103733095Y-54883390D01*
X103733095Y-54883390D02*
X103161667Y-55454819D01*
X103161667Y-55454819D02*
X103780714Y-55454819D01*
X105018809Y-51407200D02*
X105161666Y-51454819D01*
X105161666Y-51454819D02*
X105399761Y-51454819D01*
X105399761Y-51454819D02*
X105494999Y-51407200D01*
X105494999Y-51407200D02*
X105542618Y-51359580D01*
X105542618Y-51359580D02*
X105590237Y-51264342D01*
X105590237Y-51264342D02*
X105590237Y-51169104D01*
X105590237Y-51169104D02*
X105542618Y-51073866D01*
X105542618Y-51073866D02*
X105494999Y-51026247D01*
X105494999Y-51026247D02*
X105399761Y-50978628D01*
X105399761Y-50978628D02*
X105209285Y-50931009D01*
X105209285Y-50931009D02*
X105114047Y-50883390D01*
X105114047Y-50883390D02*
X105066428Y-50835771D01*
X105066428Y-50835771D02*
X105018809Y-50740533D01*
X105018809Y-50740533D02*
X105018809Y-50645295D01*
X105018809Y-50645295D02*
X105066428Y-50550057D01*
X105066428Y-50550057D02*
X105114047Y-50502438D01*
X105114047Y-50502438D02*
X105209285Y-50454819D01*
X105209285Y-50454819D02*
X105447380Y-50454819D01*
X105447380Y-50454819D02*
X105590237Y-50502438D01*
X105875952Y-50454819D02*
X106447380Y-50454819D01*
X106161666Y-51454819D02*
X106161666Y-50454819D01*
X106733095Y-51169104D02*
X107209285Y-51169104D01*
X106637857Y-51454819D02*
X106971190Y-50454819D01*
X106971190Y-50454819D02*
X107304523Y-51454819D01*
X107495000Y-50454819D02*
X108066428Y-50454819D01*
X107780714Y-51454819D02*
X107780714Y-50454819D01*
X108399762Y-50454819D02*
X108399762Y-51264342D01*
X108399762Y-51264342D02*
X108447381Y-51359580D01*
X108447381Y-51359580D02*
X108495000Y-51407200D01*
X108495000Y-51407200D02*
X108590238Y-51454819D01*
X108590238Y-51454819D02*
X108780714Y-51454819D01*
X108780714Y-51454819D02*
X108875952Y-51407200D01*
X108875952Y-51407200D02*
X108923571Y-51359580D01*
X108923571Y-51359580D02*
X108971190Y-51264342D01*
X108971190Y-51264342D02*
X108971190Y-50454819D01*
X109399762Y-51407200D02*
X109542619Y-51454819D01*
X109542619Y-51454819D02*
X109780714Y-51454819D01*
X109780714Y-51454819D02*
X109875952Y-51407200D01*
X109875952Y-51407200D02*
X109923571Y-51359580D01*
X109923571Y-51359580D02*
X109971190Y-51264342D01*
X109971190Y-51264342D02*
X109971190Y-51169104D01*
X109971190Y-51169104D02*
X109923571Y-51073866D01*
X109923571Y-51073866D02*
X109875952Y-51026247D01*
X109875952Y-51026247D02*
X109780714Y-50978628D01*
X109780714Y-50978628D02*
X109590238Y-50931009D01*
X109590238Y-50931009D02*
X109495000Y-50883390D01*
X109495000Y-50883390D02*
X109447381Y-50835771D01*
X109447381Y-50835771D02*
X109399762Y-50740533D01*
X109399762Y-50740533D02*
X109399762Y-50645295D01*
X109399762Y-50645295D02*
X109447381Y-50550057D01*
X109447381Y-50550057D02*
X109495000Y-50502438D01*
X109495000Y-50502438D02*
X109590238Y-50454819D01*
X109590238Y-50454819D02*
X109828333Y-50454819D01*
X109828333Y-50454819D02*
X109971190Y-50502438D01*
X114916667Y-97657200D02*
X115059524Y-97704819D01*
X115059524Y-97704819D02*
X115297619Y-97704819D01*
X115297619Y-97704819D02*
X115392857Y-97657200D01*
X115392857Y-97657200D02*
X115440476Y-97609580D01*
X115440476Y-97609580D02*
X115488095Y-97514342D01*
X115488095Y-97514342D02*
X115488095Y-97419104D01*
X115488095Y-97419104D02*
X115440476Y-97323866D01*
X115440476Y-97323866D02*
X115392857Y-97276247D01*
X115392857Y-97276247D02*
X115297619Y-97228628D01*
X115297619Y-97228628D02*
X115107143Y-97181009D01*
X115107143Y-97181009D02*
X115011905Y-97133390D01*
X115011905Y-97133390D02*
X114964286Y-97085771D01*
X114964286Y-97085771D02*
X114916667Y-96990533D01*
X114916667Y-96990533D02*
X114916667Y-96895295D01*
X114916667Y-96895295D02*
X114964286Y-96800057D01*
X114964286Y-96800057D02*
X115011905Y-96752438D01*
X115011905Y-96752438D02*
X115107143Y-96704819D01*
X115107143Y-96704819D02*
X115345238Y-96704819D01*
X115345238Y-96704819D02*
X115488095Y-96752438D01*
X115821429Y-96704819D02*
X116059524Y-97704819D01*
X116059524Y-97704819D02*
X116250000Y-96990533D01*
X116250000Y-96990533D02*
X116440476Y-97704819D01*
X116440476Y-97704819D02*
X116678572Y-96704819D01*
X116964286Y-96704819D02*
X117583333Y-96704819D01*
X117583333Y-96704819D02*
X117250000Y-97085771D01*
X117250000Y-97085771D02*
X117392857Y-97085771D01*
X117392857Y-97085771D02*
X117488095Y-97133390D01*
X117488095Y-97133390D02*
X117535714Y-97181009D01*
X117535714Y-97181009D02*
X117583333Y-97276247D01*
X117583333Y-97276247D02*
X117583333Y-97514342D01*
X117583333Y-97514342D02*
X117535714Y-97609580D01*
X117535714Y-97609580D02*
X117488095Y-97657200D01*
X117488095Y-97657200D02*
X117392857Y-97704819D01*
X117392857Y-97704819D02*
X117107143Y-97704819D01*
X117107143Y-97704819D02*
X117011905Y-97657200D01*
X117011905Y-97657200D02*
X116964286Y-97609580D01*
X112869048Y-102454819D02*
X112869048Y-101454819D01*
X113345238Y-102454819D02*
X113345238Y-101454819D01*
X113345238Y-101454819D02*
X113916666Y-102454819D01*
X113916666Y-102454819D02*
X113916666Y-101454819D01*
X114964285Y-102359580D02*
X114916666Y-102407200D01*
X114916666Y-102407200D02*
X114773809Y-102454819D01*
X114773809Y-102454819D02*
X114678571Y-102454819D01*
X114678571Y-102454819D02*
X114535714Y-102407200D01*
X114535714Y-102407200D02*
X114440476Y-102311961D01*
X114440476Y-102311961D02*
X114392857Y-102216723D01*
X114392857Y-102216723D02*
X114345238Y-102026247D01*
X114345238Y-102026247D02*
X114345238Y-101883390D01*
X114345238Y-101883390D02*
X114392857Y-101692914D01*
X114392857Y-101692914D02*
X114440476Y-101597676D01*
X114440476Y-101597676D02*
X114535714Y-101502438D01*
X114535714Y-101502438D02*
X114678571Y-101454819D01*
X114678571Y-101454819D02*
X114773809Y-101454819D01*
X114773809Y-101454819D02*
X114916666Y-101502438D01*
X114916666Y-101502438D02*
X114964285Y-101550057D01*
X116107142Y-101407200D02*
X115250000Y-102692914D01*
X116440476Y-102454819D02*
X116440476Y-101454819D01*
X116440476Y-101454819D02*
X117011904Y-102454819D01*
X117011904Y-102454819D02*
X117011904Y-101454819D01*
X117488095Y-101931009D02*
X117821428Y-101931009D01*
X117964285Y-102454819D02*
X117488095Y-102454819D01*
X117488095Y-102454819D02*
X117488095Y-101454819D01*
X117488095Y-101454819D02*
X117964285Y-101454819D01*
X118297619Y-101454819D02*
X118964285Y-102454819D01*
X118964285Y-101454819D02*
X118297619Y-102454819D01*
X119202381Y-101454819D02*
X119773809Y-101454819D01*
X119488095Y-102454819D02*
X119488095Y-101454819D01*
X92644819Y-75166666D02*
X92168628Y-75499999D01*
X92644819Y-75738094D02*
X91644819Y-75738094D01*
X91644819Y-75738094D02*
X91644819Y-75357142D01*
X91644819Y-75357142D02*
X91692438Y-75261904D01*
X91692438Y-75261904D02*
X91740057Y-75214285D01*
X91740057Y-75214285D02*
X91835295Y-75166666D01*
X91835295Y-75166666D02*
X91978152Y-75166666D01*
X91978152Y-75166666D02*
X92073390Y-75214285D01*
X92073390Y-75214285D02*
X92121009Y-75261904D01*
X92121009Y-75261904D02*
X92168628Y-75357142D01*
X92168628Y-75357142D02*
X92168628Y-75738094D01*
X91978152Y-74309523D02*
X92644819Y-74309523D01*
X91597200Y-74547618D02*
X92311485Y-74785713D01*
X92311485Y-74785713D02*
X92311485Y-74166666D01*
X117256905Y-55454819D02*
X117256905Y-54454819D01*
X117256905Y-54454819D02*
X117495000Y-54454819D01*
X117495000Y-54454819D02*
X117637857Y-54502438D01*
X117637857Y-54502438D02*
X117733095Y-54597676D01*
X117733095Y-54597676D02*
X117780714Y-54692914D01*
X117780714Y-54692914D02*
X117828333Y-54883390D01*
X117828333Y-54883390D02*
X117828333Y-55026247D01*
X117828333Y-55026247D02*
X117780714Y-55216723D01*
X117780714Y-55216723D02*
X117733095Y-55311961D01*
X117733095Y-55311961D02*
X117637857Y-55407200D01*
X117637857Y-55407200D02*
X117495000Y-55454819D01*
X117495000Y-55454819D02*
X117256905Y-55454819D01*
X118780714Y-55454819D02*
X118209286Y-55454819D01*
X118495000Y-55454819D02*
X118495000Y-54454819D01*
X118495000Y-54454819D02*
X118399762Y-54597676D01*
X118399762Y-54597676D02*
X118304524Y-54692914D01*
X118304524Y-54692914D02*
X118209286Y-54740533D01*
X111685476Y-51454819D02*
X111685476Y-50454819D01*
X111685476Y-50454819D02*
X112066428Y-50454819D01*
X112066428Y-50454819D02*
X112161666Y-50502438D01*
X112161666Y-50502438D02*
X112209285Y-50550057D01*
X112209285Y-50550057D02*
X112256904Y-50645295D01*
X112256904Y-50645295D02*
X112256904Y-50788152D01*
X112256904Y-50788152D02*
X112209285Y-50883390D01*
X112209285Y-50883390D02*
X112161666Y-50931009D01*
X112161666Y-50931009D02*
X112066428Y-50978628D01*
X112066428Y-50978628D02*
X111685476Y-50978628D01*
X112875952Y-50454819D02*
X113066428Y-50454819D01*
X113066428Y-50454819D02*
X113161666Y-50502438D01*
X113161666Y-50502438D02*
X113256904Y-50597676D01*
X113256904Y-50597676D02*
X113304523Y-50788152D01*
X113304523Y-50788152D02*
X113304523Y-51121485D01*
X113304523Y-51121485D02*
X113256904Y-51311961D01*
X113256904Y-51311961D02*
X113161666Y-51407200D01*
X113161666Y-51407200D02*
X113066428Y-51454819D01*
X113066428Y-51454819D02*
X112875952Y-51454819D01*
X112875952Y-51454819D02*
X112780714Y-51407200D01*
X112780714Y-51407200D02*
X112685476Y-51311961D01*
X112685476Y-51311961D02*
X112637857Y-51121485D01*
X112637857Y-51121485D02*
X112637857Y-50788152D01*
X112637857Y-50788152D02*
X112685476Y-50597676D01*
X112685476Y-50597676D02*
X112780714Y-50502438D01*
X112780714Y-50502438D02*
X112875952Y-50454819D01*
X113637857Y-50454819D02*
X113875952Y-51454819D01*
X113875952Y-51454819D02*
X114066428Y-50740533D01*
X114066428Y-50740533D02*
X114256904Y-51454819D01*
X114256904Y-51454819D02*
X114495000Y-50454819D01*
X114875952Y-50931009D02*
X115209285Y-50931009D01*
X115352142Y-51454819D02*
X114875952Y-51454819D01*
X114875952Y-51454819D02*
X114875952Y-50454819D01*
X114875952Y-50454819D02*
X115352142Y-50454819D01*
X116352142Y-51454819D02*
X116018809Y-50978628D01*
X115780714Y-51454819D02*
X115780714Y-50454819D01*
X115780714Y-50454819D02*
X116161666Y-50454819D01*
X116161666Y-50454819D02*
X116256904Y-50502438D01*
X116256904Y-50502438D02*
X116304523Y-50550057D01*
X116304523Y-50550057D02*
X116352142Y-50645295D01*
X116352142Y-50645295D02*
X116352142Y-50788152D01*
X116352142Y-50788152D02*
X116304523Y-50883390D01*
X116304523Y-50883390D02*
X116256904Y-50931009D01*
X116256904Y-50931009D02*
X116161666Y-50978628D01*
X116161666Y-50978628D02*
X115780714Y-50978628D01*
X128644819Y-75166666D02*
X128168628Y-75499999D01*
X128644819Y-75738094D02*
X127644819Y-75738094D01*
X127644819Y-75738094D02*
X127644819Y-75357142D01*
X127644819Y-75357142D02*
X127692438Y-75261904D01*
X127692438Y-75261904D02*
X127740057Y-75214285D01*
X127740057Y-75214285D02*
X127835295Y-75166666D01*
X127835295Y-75166666D02*
X127978152Y-75166666D01*
X127978152Y-75166666D02*
X128073390Y-75214285D01*
X128073390Y-75214285D02*
X128121009Y-75261904D01*
X128121009Y-75261904D02*
X128168628Y-75357142D01*
X128168628Y-75357142D02*
X128168628Y-75738094D01*
X127644819Y-74261904D02*
X127644819Y-74738094D01*
X127644819Y-74738094D02*
X128121009Y-74785713D01*
X128121009Y-74785713D02*
X128073390Y-74738094D01*
X128073390Y-74738094D02*
X128025771Y-74642856D01*
X128025771Y-74642856D02*
X128025771Y-74404761D01*
X128025771Y-74404761D02*
X128073390Y-74309523D01*
X128073390Y-74309523D02*
X128121009Y-74261904D01*
X128121009Y-74261904D02*
X128216247Y-74214285D01*
X128216247Y-74214285D02*
X128454342Y-74214285D01*
X128454342Y-74214285D02*
X128549580Y-74261904D01*
X128549580Y-74261904D02*
X128597200Y-74309523D01*
X128597200Y-74309523D02*
X128644819Y-74404761D01*
X128644819Y-74404761D02*
X128644819Y-74642856D01*
X128644819Y-74642856D02*
X128597200Y-74738094D01*
X128597200Y-74738094D02*
X128549580Y-74785713D01*
X88144819Y-75166666D02*
X87668628Y-75499999D01*
X88144819Y-75738094D02*
X87144819Y-75738094D01*
X87144819Y-75738094D02*
X87144819Y-75357142D01*
X87144819Y-75357142D02*
X87192438Y-75261904D01*
X87192438Y-75261904D02*
X87240057Y-75214285D01*
X87240057Y-75214285D02*
X87335295Y-75166666D01*
X87335295Y-75166666D02*
X87478152Y-75166666D01*
X87478152Y-75166666D02*
X87573390Y-75214285D01*
X87573390Y-75214285D02*
X87621009Y-75261904D01*
X87621009Y-75261904D02*
X87668628Y-75357142D01*
X87668628Y-75357142D02*
X87668628Y-75738094D01*
X87144819Y-74833332D02*
X87144819Y-74214285D01*
X87144819Y-74214285D02*
X87525771Y-74547618D01*
X87525771Y-74547618D02*
X87525771Y-74404761D01*
X87525771Y-74404761D02*
X87573390Y-74309523D01*
X87573390Y-74309523D02*
X87621009Y-74261904D01*
X87621009Y-74261904D02*
X87716247Y-74214285D01*
X87716247Y-74214285D02*
X87954342Y-74214285D01*
X87954342Y-74214285D02*
X88049580Y-74261904D01*
X88049580Y-74261904D02*
X88097200Y-74309523D01*
X88097200Y-74309523D02*
X88144819Y-74404761D01*
X88144819Y-74404761D02*
X88144819Y-74690475D01*
X88144819Y-74690475D02*
X88097200Y-74785713D01*
X88097200Y-74785713D02*
X88049580Y-74833332D01*
X104753333Y-60954819D02*
X104420000Y-60478628D01*
X104181905Y-60954819D02*
X104181905Y-59954819D01*
X104181905Y-59954819D02*
X104562857Y-59954819D01*
X104562857Y-59954819D02*
X104658095Y-60002438D01*
X104658095Y-60002438D02*
X104705714Y-60050057D01*
X104705714Y-60050057D02*
X104753333Y-60145295D01*
X104753333Y-60145295D02*
X104753333Y-60288152D01*
X104753333Y-60288152D02*
X104705714Y-60383390D01*
X104705714Y-60383390D02*
X104658095Y-60431009D01*
X104658095Y-60431009D02*
X104562857Y-60478628D01*
X104562857Y-60478628D02*
X104181905Y-60478628D01*
X105134286Y-60050057D02*
X105181905Y-60002438D01*
X105181905Y-60002438D02*
X105277143Y-59954819D01*
X105277143Y-59954819D02*
X105515238Y-59954819D01*
X105515238Y-59954819D02*
X105610476Y-60002438D01*
X105610476Y-60002438D02*
X105658095Y-60050057D01*
X105658095Y-60050057D02*
X105705714Y-60145295D01*
X105705714Y-60145295D02*
X105705714Y-60240533D01*
X105705714Y-60240533D02*
X105658095Y-60383390D01*
X105658095Y-60383390D02*
X105086667Y-60954819D01*
X105086667Y-60954819D02*
X105705714Y-60954819D01*
D11*
X91166666Y-57457419D02*
X91166666Y-58171704D01*
X91166666Y-58171704D02*
X91119047Y-58314561D01*
X91119047Y-58314561D02*
X91023809Y-58409800D01*
X91023809Y-58409800D02*
X90880952Y-58457419D01*
X90880952Y-58457419D02*
X90785714Y-58457419D01*
X92166666Y-58457419D02*
X91595238Y-58457419D01*
X91880952Y-58457419D02*
X91880952Y-57457419D01*
X91880952Y-57457419D02*
X91785714Y-57600276D01*
X91785714Y-57600276D02*
X91690476Y-57695514D01*
X91690476Y-57695514D02*
X91595238Y-57743133D01*
D10*
X86238095Y-55907200D02*
X86380952Y-55954819D01*
X86380952Y-55954819D02*
X86619047Y-55954819D01*
X86619047Y-55954819D02*
X86714285Y-55907200D01*
X86714285Y-55907200D02*
X86761904Y-55859580D01*
X86761904Y-55859580D02*
X86809523Y-55764342D01*
X86809523Y-55764342D02*
X86809523Y-55669104D01*
X86809523Y-55669104D02*
X86761904Y-55573866D01*
X86761904Y-55573866D02*
X86714285Y-55526247D01*
X86714285Y-55526247D02*
X86619047Y-55478628D01*
X86619047Y-55478628D02*
X86428571Y-55431009D01*
X86428571Y-55431009D02*
X86333333Y-55383390D01*
X86333333Y-55383390D02*
X86285714Y-55335771D01*
X86285714Y-55335771D02*
X86238095Y-55240533D01*
X86238095Y-55240533D02*
X86238095Y-55145295D01*
X86238095Y-55145295D02*
X86285714Y-55050057D01*
X86285714Y-55050057D02*
X86333333Y-55002438D01*
X86333333Y-55002438D02*
X86428571Y-54954819D01*
X86428571Y-54954819D02*
X86666666Y-54954819D01*
X86666666Y-54954819D02*
X86809523Y-55002438D01*
X87095238Y-54954819D02*
X87666666Y-54954819D01*
X87380952Y-55954819D02*
X87380952Y-54954819D01*
X87904762Y-54954819D02*
X88571428Y-55954819D01*
X88571428Y-54954819D02*
X87904762Y-55954819D01*
X88952381Y-55573866D02*
X89714286Y-55573866D01*
X90095238Y-54954819D02*
X90714285Y-54954819D01*
X90714285Y-54954819D02*
X90380952Y-55335771D01*
X90380952Y-55335771D02*
X90523809Y-55335771D01*
X90523809Y-55335771D02*
X90619047Y-55383390D01*
X90619047Y-55383390D02*
X90666666Y-55431009D01*
X90666666Y-55431009D02*
X90714285Y-55526247D01*
X90714285Y-55526247D02*
X90714285Y-55764342D01*
X90714285Y-55764342D02*
X90666666Y-55859580D01*
X90666666Y-55859580D02*
X90619047Y-55907200D01*
X90619047Y-55907200D02*
X90523809Y-55954819D01*
X90523809Y-55954819D02*
X90238095Y-55954819D01*
X90238095Y-55954819D02*
X90142857Y-55907200D01*
X90142857Y-55907200D02*
X90095238Y-55859580D01*
X91666666Y-55954819D02*
X91095238Y-55954819D01*
X91380952Y-55954819D02*
X91380952Y-54954819D01*
X91380952Y-54954819D02*
X91285714Y-55097676D01*
X91285714Y-55097676D02*
X91190476Y-55192914D01*
X91190476Y-55192914D02*
X91095238Y-55240533D01*
X92047619Y-55050057D02*
X92095238Y-55002438D01*
X92095238Y-55002438D02*
X92190476Y-54954819D01*
X92190476Y-54954819D02*
X92428571Y-54954819D01*
X92428571Y-54954819D02*
X92523809Y-55002438D01*
X92523809Y-55002438D02*
X92571428Y-55050057D01*
X92571428Y-55050057D02*
X92619047Y-55145295D01*
X92619047Y-55145295D02*
X92619047Y-55240533D01*
X92619047Y-55240533D02*
X92571428Y-55383390D01*
X92571428Y-55383390D02*
X92000000Y-55954819D01*
X92000000Y-55954819D02*
X92619047Y-55954819D01*
X93238095Y-54954819D02*
X93333333Y-54954819D01*
X93333333Y-54954819D02*
X93428571Y-55002438D01*
X93428571Y-55002438D02*
X93476190Y-55050057D01*
X93476190Y-55050057D02*
X93523809Y-55145295D01*
X93523809Y-55145295D02*
X93571428Y-55335771D01*
X93571428Y-55335771D02*
X93571428Y-55573866D01*
X93571428Y-55573866D02*
X93523809Y-55764342D01*
X93523809Y-55764342D02*
X93476190Y-55859580D01*
X93476190Y-55859580D02*
X93428571Y-55907200D01*
X93428571Y-55907200D02*
X93333333Y-55954819D01*
X93333333Y-55954819D02*
X93238095Y-55954819D01*
X93238095Y-55954819D02*
X93142857Y-55907200D01*
X93142857Y-55907200D02*
X93095238Y-55859580D01*
X93095238Y-55859580D02*
X93047619Y-55764342D01*
X93047619Y-55764342D02*
X93000000Y-55573866D01*
X93000000Y-55573866D02*
X93000000Y-55335771D01*
X93000000Y-55335771D02*
X93047619Y-55145295D01*
X93047619Y-55145295D02*
X93095238Y-55050057D01*
X93095238Y-55050057D02*
X93142857Y-55002438D01*
X93142857Y-55002438D02*
X93238095Y-54954819D01*
X94000000Y-55573866D02*
X94761905Y-55573866D01*
X95142857Y-54954819D02*
X95761904Y-54954819D01*
X95761904Y-54954819D02*
X95428571Y-55335771D01*
X95428571Y-55335771D02*
X95571428Y-55335771D01*
X95571428Y-55335771D02*
X95666666Y-55383390D01*
X95666666Y-55383390D02*
X95714285Y-55431009D01*
X95714285Y-55431009D02*
X95761904Y-55526247D01*
X95761904Y-55526247D02*
X95761904Y-55764342D01*
X95761904Y-55764342D02*
X95714285Y-55859580D01*
X95714285Y-55859580D02*
X95666666Y-55907200D01*
X95666666Y-55907200D02*
X95571428Y-55954819D01*
X95571428Y-55954819D02*
X95285714Y-55954819D01*
X95285714Y-55954819D02*
X95190476Y-55907200D01*
X95190476Y-55907200D02*
X95142857Y-55859580D01*
X96523809Y-55431009D02*
X96666666Y-55478628D01*
X96666666Y-55478628D02*
X96714285Y-55526247D01*
X96714285Y-55526247D02*
X96761904Y-55621485D01*
X96761904Y-55621485D02*
X96761904Y-55764342D01*
X96761904Y-55764342D02*
X96714285Y-55859580D01*
X96714285Y-55859580D02*
X96666666Y-55907200D01*
X96666666Y-55907200D02*
X96571428Y-55954819D01*
X96571428Y-55954819D02*
X96190476Y-55954819D01*
X96190476Y-55954819D02*
X96190476Y-54954819D01*
X96190476Y-54954819D02*
X96523809Y-54954819D01*
X96523809Y-54954819D02*
X96619047Y-55002438D01*
X96619047Y-55002438D02*
X96666666Y-55050057D01*
X96666666Y-55050057D02*
X96714285Y-55145295D01*
X96714285Y-55145295D02*
X96714285Y-55240533D01*
X96714285Y-55240533D02*
X96666666Y-55335771D01*
X96666666Y-55335771D02*
X96619047Y-55383390D01*
X96619047Y-55383390D02*
X96523809Y-55431009D01*
X96523809Y-55431009D02*
X96190476Y-55431009D01*
X117333333Y-60954819D02*
X117000000Y-60478628D01*
X116761905Y-60954819D02*
X116761905Y-59954819D01*
X116761905Y-59954819D02*
X117142857Y-59954819D01*
X117142857Y-59954819D02*
X117238095Y-60002438D01*
X117238095Y-60002438D02*
X117285714Y-60050057D01*
X117285714Y-60050057D02*
X117333333Y-60145295D01*
X117333333Y-60145295D02*
X117333333Y-60288152D01*
X117333333Y-60288152D02*
X117285714Y-60383390D01*
X117285714Y-60383390D02*
X117238095Y-60431009D01*
X117238095Y-60431009D02*
X117142857Y-60478628D01*
X117142857Y-60478628D02*
X116761905Y-60478628D01*
X118285714Y-60954819D02*
X117714286Y-60954819D01*
X118000000Y-60954819D02*
X118000000Y-59954819D01*
X118000000Y-59954819D02*
X117904762Y-60097676D01*
X117904762Y-60097676D02*
X117809524Y-60192914D01*
X117809524Y-60192914D02*
X117714286Y-60240533D01*
X103916667Y-97657200D02*
X104059524Y-97704819D01*
X104059524Y-97704819D02*
X104297619Y-97704819D01*
X104297619Y-97704819D02*
X104392857Y-97657200D01*
X104392857Y-97657200D02*
X104440476Y-97609580D01*
X104440476Y-97609580D02*
X104488095Y-97514342D01*
X104488095Y-97514342D02*
X104488095Y-97419104D01*
X104488095Y-97419104D02*
X104440476Y-97323866D01*
X104440476Y-97323866D02*
X104392857Y-97276247D01*
X104392857Y-97276247D02*
X104297619Y-97228628D01*
X104297619Y-97228628D02*
X104107143Y-97181009D01*
X104107143Y-97181009D02*
X104011905Y-97133390D01*
X104011905Y-97133390D02*
X103964286Y-97085771D01*
X103964286Y-97085771D02*
X103916667Y-96990533D01*
X103916667Y-96990533D02*
X103916667Y-96895295D01*
X103916667Y-96895295D02*
X103964286Y-96800057D01*
X103964286Y-96800057D02*
X104011905Y-96752438D01*
X104011905Y-96752438D02*
X104107143Y-96704819D01*
X104107143Y-96704819D02*
X104345238Y-96704819D01*
X104345238Y-96704819D02*
X104488095Y-96752438D01*
X104821429Y-96704819D02*
X105059524Y-97704819D01*
X105059524Y-97704819D02*
X105250000Y-96990533D01*
X105250000Y-96990533D02*
X105440476Y-97704819D01*
X105440476Y-97704819D02*
X105678572Y-96704819D01*
X106011905Y-96800057D02*
X106059524Y-96752438D01*
X106059524Y-96752438D02*
X106154762Y-96704819D01*
X106154762Y-96704819D02*
X106392857Y-96704819D01*
X106392857Y-96704819D02*
X106488095Y-96752438D01*
X106488095Y-96752438D02*
X106535714Y-96800057D01*
X106535714Y-96800057D02*
X106583333Y-96895295D01*
X106583333Y-96895295D02*
X106583333Y-96990533D01*
X106583333Y-96990533D02*
X106535714Y-97133390D01*
X106535714Y-97133390D02*
X105964286Y-97704819D01*
X105964286Y-97704819D02*
X106583333Y-97704819D01*
X101380952Y-102454819D02*
X101380952Y-101454819D01*
X101380952Y-101454819D02*
X101619047Y-101454819D01*
X101619047Y-101454819D02*
X101761904Y-101502438D01*
X101761904Y-101502438D02*
X101857142Y-101597676D01*
X101857142Y-101597676D02*
X101904761Y-101692914D01*
X101904761Y-101692914D02*
X101952380Y-101883390D01*
X101952380Y-101883390D02*
X101952380Y-102026247D01*
X101952380Y-102026247D02*
X101904761Y-102216723D01*
X101904761Y-102216723D02*
X101857142Y-102311961D01*
X101857142Y-102311961D02*
X101761904Y-102407200D01*
X101761904Y-102407200D02*
X101619047Y-102454819D01*
X101619047Y-102454819D02*
X101380952Y-102454819D01*
X102380952Y-101931009D02*
X102714285Y-101931009D01*
X102857142Y-102454819D02*
X102380952Y-102454819D01*
X102380952Y-102454819D02*
X102380952Y-101454819D01*
X102380952Y-101454819D02*
X102857142Y-101454819D01*
X103857142Y-102359580D02*
X103809523Y-102407200D01*
X103809523Y-102407200D02*
X103666666Y-102454819D01*
X103666666Y-102454819D02*
X103571428Y-102454819D01*
X103571428Y-102454819D02*
X103428571Y-102407200D01*
X103428571Y-102407200D02*
X103333333Y-102311961D01*
X103333333Y-102311961D02*
X103285714Y-102216723D01*
X103285714Y-102216723D02*
X103238095Y-102026247D01*
X103238095Y-102026247D02*
X103238095Y-101883390D01*
X103238095Y-101883390D02*
X103285714Y-101692914D01*
X103285714Y-101692914D02*
X103333333Y-101597676D01*
X103333333Y-101597676D02*
X103428571Y-101502438D01*
X103428571Y-101502438D02*
X103571428Y-101454819D01*
X103571428Y-101454819D02*
X103666666Y-101454819D01*
X103666666Y-101454819D02*
X103809523Y-101502438D01*
X103809523Y-101502438D02*
X103857142Y-101550057D01*
X104999999Y-101407200D02*
X104142857Y-102692914D01*
X105333333Y-102454819D02*
X105333333Y-101454819D01*
X105333333Y-101454819D02*
X105714285Y-101454819D01*
X105714285Y-101454819D02*
X105809523Y-101502438D01*
X105809523Y-101502438D02*
X105857142Y-101550057D01*
X105857142Y-101550057D02*
X105904761Y-101645295D01*
X105904761Y-101645295D02*
X105904761Y-101788152D01*
X105904761Y-101788152D02*
X105857142Y-101883390D01*
X105857142Y-101883390D02*
X105809523Y-101931009D01*
X105809523Y-101931009D02*
X105714285Y-101978628D01*
X105714285Y-101978628D02*
X105333333Y-101978628D01*
X106904761Y-102454819D02*
X106571428Y-101978628D01*
X106333333Y-102454819D02*
X106333333Y-101454819D01*
X106333333Y-101454819D02*
X106714285Y-101454819D01*
X106714285Y-101454819D02*
X106809523Y-101502438D01*
X106809523Y-101502438D02*
X106857142Y-101550057D01*
X106857142Y-101550057D02*
X106904761Y-101645295D01*
X106904761Y-101645295D02*
X106904761Y-101788152D01*
X106904761Y-101788152D02*
X106857142Y-101883390D01*
X106857142Y-101883390D02*
X106809523Y-101931009D01*
X106809523Y-101931009D02*
X106714285Y-101978628D01*
X106714285Y-101978628D02*
X106333333Y-101978628D01*
X107333333Y-101931009D02*
X107666666Y-101931009D01*
X107809523Y-102454819D02*
X107333333Y-102454819D01*
X107333333Y-102454819D02*
X107333333Y-101454819D01*
X107333333Y-101454819D02*
X107809523Y-101454819D01*
X108095238Y-101454819D02*
X108428571Y-102454819D01*
X108428571Y-102454819D02*
X108761904Y-101454819D01*
X127666667Y-59407200D02*
X127809524Y-59454819D01*
X127809524Y-59454819D02*
X128047619Y-59454819D01*
X128047619Y-59454819D02*
X128142857Y-59407200D01*
X128142857Y-59407200D02*
X128190476Y-59359580D01*
X128190476Y-59359580D02*
X128238095Y-59264342D01*
X128238095Y-59264342D02*
X128238095Y-59169104D01*
X128238095Y-59169104D02*
X128190476Y-59073866D01*
X128190476Y-59073866D02*
X128142857Y-59026247D01*
X128142857Y-59026247D02*
X128047619Y-58978628D01*
X128047619Y-58978628D02*
X127857143Y-58931009D01*
X127857143Y-58931009D02*
X127761905Y-58883390D01*
X127761905Y-58883390D02*
X127714286Y-58835771D01*
X127714286Y-58835771D02*
X127666667Y-58740533D01*
X127666667Y-58740533D02*
X127666667Y-58645295D01*
X127666667Y-58645295D02*
X127714286Y-58550057D01*
X127714286Y-58550057D02*
X127761905Y-58502438D01*
X127761905Y-58502438D02*
X127857143Y-58454819D01*
X127857143Y-58454819D02*
X128095238Y-58454819D01*
X128095238Y-58454819D02*
X128238095Y-58502438D01*
X128571429Y-58454819D02*
X128809524Y-59454819D01*
X128809524Y-59454819D02*
X129000000Y-58740533D01*
X129000000Y-58740533D02*
X129190476Y-59454819D01*
X129190476Y-59454819D02*
X129428572Y-58454819D01*
X130285714Y-58454819D02*
X129809524Y-58454819D01*
X129809524Y-58454819D02*
X129761905Y-58931009D01*
X129761905Y-58931009D02*
X129809524Y-58883390D01*
X129809524Y-58883390D02*
X129904762Y-58835771D01*
X129904762Y-58835771D02*
X130142857Y-58835771D01*
X130142857Y-58835771D02*
X130238095Y-58883390D01*
X130238095Y-58883390D02*
X130285714Y-58931009D01*
X130285714Y-58931009D02*
X130333333Y-59026247D01*
X130333333Y-59026247D02*
X130333333Y-59264342D01*
X130333333Y-59264342D02*
X130285714Y-59359580D01*
X130285714Y-59359580D02*
X130238095Y-59407200D01*
X130238095Y-59407200D02*
X130142857Y-59454819D01*
X130142857Y-59454819D02*
X129904762Y-59454819D01*
X129904762Y-59454819D02*
X129809524Y-59407200D01*
X129809524Y-59407200D02*
X129761905Y-59359580D01*
X126436190Y-50454819D02*
X126626666Y-50454819D01*
X126626666Y-50454819D02*
X126721904Y-50502438D01*
X126721904Y-50502438D02*
X126817142Y-50597676D01*
X126817142Y-50597676D02*
X126864761Y-50788152D01*
X126864761Y-50788152D02*
X126864761Y-51121485D01*
X126864761Y-51121485D02*
X126817142Y-51311961D01*
X126817142Y-51311961D02*
X126721904Y-51407200D01*
X126721904Y-51407200D02*
X126626666Y-51454819D01*
X126626666Y-51454819D02*
X126436190Y-51454819D01*
X126436190Y-51454819D02*
X126340952Y-51407200D01*
X126340952Y-51407200D02*
X126245714Y-51311961D01*
X126245714Y-51311961D02*
X126198095Y-51121485D01*
X126198095Y-51121485D02*
X126198095Y-50788152D01*
X126198095Y-50788152D02*
X126245714Y-50597676D01*
X126245714Y-50597676D02*
X126340952Y-50502438D01*
X126340952Y-50502438D02*
X126436190Y-50454819D01*
X127626666Y-50931009D02*
X127293333Y-50931009D01*
X127293333Y-51454819D02*
X127293333Y-50454819D01*
X127293333Y-50454819D02*
X127769523Y-50454819D01*
X128483809Y-50931009D02*
X128150476Y-50931009D01*
X128150476Y-51454819D02*
X128150476Y-50454819D01*
X128150476Y-50454819D02*
X128626666Y-50454819D01*
X129721904Y-50407200D02*
X128864762Y-51692914D01*
X130245714Y-50454819D02*
X130436190Y-50454819D01*
X130436190Y-50454819D02*
X130531428Y-50502438D01*
X130531428Y-50502438D02*
X130626666Y-50597676D01*
X130626666Y-50597676D02*
X130674285Y-50788152D01*
X130674285Y-50788152D02*
X130674285Y-51121485D01*
X130674285Y-51121485D02*
X130626666Y-51311961D01*
X130626666Y-51311961D02*
X130531428Y-51407200D01*
X130531428Y-51407200D02*
X130436190Y-51454819D01*
X130436190Y-51454819D02*
X130245714Y-51454819D01*
X130245714Y-51454819D02*
X130150476Y-51407200D01*
X130150476Y-51407200D02*
X130055238Y-51311961D01*
X130055238Y-51311961D02*
X130007619Y-51121485D01*
X130007619Y-51121485D02*
X130007619Y-50788152D01*
X130007619Y-50788152D02*
X130055238Y-50597676D01*
X130055238Y-50597676D02*
X130150476Y-50502438D01*
X130150476Y-50502438D02*
X130245714Y-50454819D01*
X131102857Y-51454819D02*
X131102857Y-50454819D01*
X131102857Y-50454819D02*
X131674285Y-51454819D01*
X131674285Y-51454819D02*
X131674285Y-50454819D01*
X133144819Y-75086666D02*
X132668628Y-75419999D01*
X133144819Y-75658094D02*
X132144819Y-75658094D01*
X132144819Y-75658094D02*
X132144819Y-75277142D01*
X132144819Y-75277142D02*
X132192438Y-75181904D01*
X132192438Y-75181904D02*
X132240057Y-75134285D01*
X132240057Y-75134285D02*
X132335295Y-75086666D01*
X132335295Y-75086666D02*
X132478152Y-75086666D01*
X132478152Y-75086666D02*
X132573390Y-75134285D01*
X132573390Y-75134285D02*
X132621009Y-75181904D01*
X132621009Y-75181904D02*
X132668628Y-75277142D01*
X132668628Y-75277142D02*
X132668628Y-75658094D01*
X132144819Y-74229523D02*
X132144819Y-74419999D01*
X132144819Y-74419999D02*
X132192438Y-74515237D01*
X132192438Y-74515237D02*
X132240057Y-74562856D01*
X132240057Y-74562856D02*
X132382914Y-74658094D01*
X132382914Y-74658094D02*
X132573390Y-74705713D01*
X132573390Y-74705713D02*
X132954342Y-74705713D01*
X132954342Y-74705713D02*
X133049580Y-74658094D01*
X133049580Y-74658094D02*
X133097200Y-74610475D01*
X133097200Y-74610475D02*
X133144819Y-74515237D01*
X133144819Y-74515237D02*
X133144819Y-74324761D01*
X133144819Y-74324761D02*
X133097200Y-74229523D01*
X133097200Y-74229523D02*
X133049580Y-74181904D01*
X133049580Y-74181904D02*
X132954342Y-74134285D01*
X132954342Y-74134285D02*
X132716247Y-74134285D01*
X132716247Y-74134285D02*
X132621009Y-74181904D01*
X132621009Y-74181904D02*
X132573390Y-74229523D01*
X132573390Y-74229523D02*
X132525771Y-74324761D01*
X132525771Y-74324761D02*
X132525771Y-74515237D01*
X132525771Y-74515237D02*
X132573390Y-74610475D01*
X132573390Y-74610475D02*
X132621009Y-74658094D01*
X132621009Y-74658094D02*
X132716247Y-74705713D01*
X128666667Y-97657200D02*
X128809524Y-97704819D01*
X128809524Y-97704819D02*
X129047619Y-97704819D01*
X129047619Y-97704819D02*
X129142857Y-97657200D01*
X129142857Y-97657200D02*
X129190476Y-97609580D01*
X129190476Y-97609580D02*
X129238095Y-97514342D01*
X129238095Y-97514342D02*
X129238095Y-97419104D01*
X129238095Y-97419104D02*
X129190476Y-97323866D01*
X129190476Y-97323866D02*
X129142857Y-97276247D01*
X129142857Y-97276247D02*
X129047619Y-97228628D01*
X129047619Y-97228628D02*
X128857143Y-97181009D01*
X128857143Y-97181009D02*
X128761905Y-97133390D01*
X128761905Y-97133390D02*
X128714286Y-97085771D01*
X128714286Y-97085771D02*
X128666667Y-96990533D01*
X128666667Y-96990533D02*
X128666667Y-96895295D01*
X128666667Y-96895295D02*
X128714286Y-96800057D01*
X128714286Y-96800057D02*
X128761905Y-96752438D01*
X128761905Y-96752438D02*
X128857143Y-96704819D01*
X128857143Y-96704819D02*
X129095238Y-96704819D01*
X129095238Y-96704819D02*
X129238095Y-96752438D01*
X129571429Y-96704819D02*
X129809524Y-97704819D01*
X129809524Y-97704819D02*
X130000000Y-96990533D01*
X130000000Y-96990533D02*
X130190476Y-97704819D01*
X130190476Y-97704819D02*
X130428572Y-96704819D01*
X131238095Y-97038152D02*
X131238095Y-97704819D01*
X131000000Y-96657200D02*
X130761905Y-97371485D01*
X130761905Y-97371485D02*
X131380952Y-97371485D01*
X126130952Y-102454819D02*
X126130952Y-101454819D01*
X126130952Y-101454819D02*
X126464285Y-102169104D01*
X126464285Y-102169104D02*
X126797618Y-101454819D01*
X126797618Y-101454819D02*
X126797618Y-102454819D01*
X127464285Y-101454819D02*
X127654761Y-101454819D01*
X127654761Y-101454819D02*
X127749999Y-101502438D01*
X127749999Y-101502438D02*
X127845237Y-101597676D01*
X127845237Y-101597676D02*
X127892856Y-101788152D01*
X127892856Y-101788152D02*
X127892856Y-102121485D01*
X127892856Y-102121485D02*
X127845237Y-102311961D01*
X127845237Y-102311961D02*
X127749999Y-102407200D01*
X127749999Y-102407200D02*
X127654761Y-102454819D01*
X127654761Y-102454819D02*
X127464285Y-102454819D01*
X127464285Y-102454819D02*
X127369047Y-102407200D01*
X127369047Y-102407200D02*
X127273809Y-102311961D01*
X127273809Y-102311961D02*
X127226190Y-102121485D01*
X127226190Y-102121485D02*
X127226190Y-101788152D01*
X127226190Y-101788152D02*
X127273809Y-101597676D01*
X127273809Y-101597676D02*
X127369047Y-101502438D01*
X127369047Y-101502438D02*
X127464285Y-101454819D01*
X128321428Y-102454819D02*
X128321428Y-101454819D01*
X128321428Y-101454819D02*
X128559523Y-101454819D01*
X128559523Y-101454819D02*
X128702380Y-101502438D01*
X128702380Y-101502438D02*
X128797618Y-101597676D01*
X128797618Y-101597676D02*
X128845237Y-101692914D01*
X128845237Y-101692914D02*
X128892856Y-101883390D01*
X128892856Y-101883390D02*
X128892856Y-102026247D01*
X128892856Y-102026247D02*
X128845237Y-102216723D01*
X128845237Y-102216723D02*
X128797618Y-102311961D01*
X128797618Y-102311961D02*
X128702380Y-102407200D01*
X128702380Y-102407200D02*
X128559523Y-102454819D01*
X128559523Y-102454819D02*
X128321428Y-102454819D01*
X129321428Y-101931009D02*
X129654761Y-101931009D01*
X129797618Y-102454819D02*
X129321428Y-102454819D01*
X129321428Y-102454819D02*
X129321428Y-101454819D01*
X129321428Y-101454819D02*
X129797618Y-101454819D01*
X130940475Y-101407200D02*
X130083333Y-102692914D01*
X131226190Y-102407200D02*
X131369047Y-102454819D01*
X131369047Y-102454819D02*
X131607142Y-102454819D01*
X131607142Y-102454819D02*
X131702380Y-102407200D01*
X131702380Y-102407200D02*
X131749999Y-102359580D01*
X131749999Y-102359580D02*
X131797618Y-102264342D01*
X131797618Y-102264342D02*
X131797618Y-102169104D01*
X131797618Y-102169104D02*
X131749999Y-102073866D01*
X131749999Y-102073866D02*
X131702380Y-102026247D01*
X131702380Y-102026247D02*
X131607142Y-101978628D01*
X131607142Y-101978628D02*
X131416666Y-101931009D01*
X131416666Y-101931009D02*
X131321428Y-101883390D01*
X131321428Y-101883390D02*
X131273809Y-101835771D01*
X131273809Y-101835771D02*
X131226190Y-101740533D01*
X131226190Y-101740533D02*
X131226190Y-101645295D01*
X131226190Y-101645295D02*
X131273809Y-101550057D01*
X131273809Y-101550057D02*
X131321428Y-101502438D01*
X131321428Y-101502438D02*
X131416666Y-101454819D01*
X131416666Y-101454819D02*
X131654761Y-101454819D01*
X131654761Y-101454819D02*
X131797618Y-101502438D01*
X132178571Y-102169104D02*
X132654761Y-102169104D01*
X132083333Y-102454819D02*
X132416666Y-101454819D01*
X132416666Y-101454819D02*
X132749999Y-102454819D01*
X132940476Y-101454819D02*
X133273809Y-102454819D01*
X133273809Y-102454819D02*
X133607142Y-101454819D01*
X133940476Y-101931009D02*
X134273809Y-101931009D01*
X134416666Y-102454819D02*
X133940476Y-102454819D01*
X133940476Y-102454819D02*
X133940476Y-101454819D01*
X133940476Y-101454819D02*
X134416666Y-101454819D01*
%TO.C,SW1*%
D12*
X87500000Y-96500000D02*
X87500000Y-98000000D01*
X88750000Y-100500000D02*
X93250000Y-100500000D01*
X93250000Y-94000000D02*
X88750000Y-94000000D01*
X94500000Y-98000000D02*
X94500000Y-96500000D01*
%TO.C,U1*%
D11*
X97250000Y-69750000D02*
X97250000Y-69750000D01*
G75*
G02*
X100250000Y-66750000I3000000J0D01*
G01*
X119750000Y-66750000D01*
G75*
G02*
X122750000Y-69750000I0J-3000000D01*
G01*
X122750000Y-90250000D01*
G75*
G02*
X119750000Y-93250000I-3000000J0D01*
G01*
X100250000Y-93250000D01*
G75*
G02*
X97250000Y-90250000I0J3000000D01*
G01*
X97250000Y-69750000D01*
%TO.C,D2*%
D12*
X110060000Y-56545000D02*
X110060000Y-53455000D01*
X104510000Y-55000000D02*
G75*
G02*
X110060000Y-53455170I2990000J0D01*
G01*
X110060000Y-56544830D02*
G75*
G02*
X104510000Y-55000000I-2560000J1544830D01*
G01*
X110000000Y-55000000D02*
G75*
G02*
X105000000Y-55000000I-2500000J0D01*
G01*
X105000000Y-55000000D02*
G75*
G02*
X110000000Y-55000000I2500000J0D01*
G01*
%TO.C,SW3*%
X112750000Y-96500000D02*
X112750000Y-98000000D01*
X114000000Y-100500000D02*
X118500000Y-100500000D01*
X118500000Y-94000000D02*
X114000000Y-94000000D01*
X119750000Y-98000000D02*
X119750000Y-96500000D01*
%TO.C,R4*%
X92190000Y-70960000D02*
X92190000Y-71730000D01*
X92190000Y-79040000D02*
X92190000Y-78270000D01*
X90820000Y-71730000D02*
X93560000Y-71730000D01*
X93560000Y-78270000D01*
X90820000Y-78270000D01*
X90820000Y-71730000D01*
%TO.C,D1*%
X116560000Y-56545000D02*
X116560000Y-53455000D01*
X111010000Y-55000000D02*
G75*
G02*
X116560000Y-53455170I2990000J0D01*
G01*
X116560000Y-56544830D02*
G75*
G02*
X111010000Y-55000000I-2560000J1544830D01*
G01*
X116500000Y-55000000D02*
G75*
G02*
X111500000Y-55000000I-2500000J0D01*
G01*
X111500000Y-55000000D02*
G75*
G02*
X116500000Y-55000000I2500000J0D01*
G01*
%TO.C,R5*%
X128190000Y-70960000D02*
X128190000Y-71730000D01*
X128190000Y-79040000D02*
X128190000Y-78270000D01*
X126820000Y-71730000D02*
X129560000Y-71730000D01*
X129560000Y-78270000D01*
X126820000Y-78270000D01*
X126820000Y-71730000D01*
%TO.C,R3*%
X87690000Y-70960000D02*
X87690000Y-71730000D01*
X87690000Y-79040000D02*
X87690000Y-78270000D01*
X86320000Y-71730000D02*
X89060000Y-71730000D01*
X89060000Y-78270000D01*
X86320000Y-78270000D01*
X86320000Y-71730000D01*
%TO.C,R2*%
X100880000Y-60500000D02*
X101650000Y-60500000D01*
X108960000Y-60500000D02*
X108190000Y-60500000D01*
X101650000Y-59130000D02*
X108190000Y-59130000D01*
X108190000Y-61870000D01*
X101650000Y-61870000D01*
X101650000Y-59130000D01*
D11*
%TO.C,J1*%
X85000000Y-62500000D02*
X98000000Y-62500000D01*
X98000000Y-49500000D01*
X95500000Y-49500000D01*
X95500000Y-46000000D01*
X87500000Y-46000000D01*
X87500000Y-49500000D01*
X85000000Y-49500000D01*
X85000000Y-62500000D01*
%TO.C,R1*%
D12*
X113460000Y-60500000D02*
X114230000Y-60500000D01*
X121540000Y-60500000D02*
X120770000Y-60500000D01*
X114230000Y-59130000D02*
X120770000Y-59130000D01*
X120770000Y-61870000D01*
X114230000Y-61870000D01*
X114230000Y-59130000D01*
%TO.C,SW2*%
X101750000Y-96500000D02*
X101750000Y-98000000D01*
X103000000Y-100500000D02*
X107500000Y-100500000D01*
X107500000Y-94000000D02*
X103000000Y-94000000D01*
X108750000Y-98000000D02*
X108750000Y-96500000D01*
%TO.C,SW5*%
X120960000Y-52000000D02*
X136960000Y-52000000D01*
X136960000Y-58000000D01*
X120960000Y-58000000D01*
X120960000Y-52000000D01*
%TO.C,R6*%
X132690000Y-70880000D02*
X132690000Y-71650000D01*
X132690000Y-78960000D02*
X132690000Y-78190000D01*
X131320000Y-71650000D02*
X134060000Y-71650000D01*
X134060000Y-78190000D01*
X131320000Y-78190000D01*
X131320000Y-71650000D01*
%TO.C,SW4*%
X126500000Y-96500000D02*
X126500000Y-98000000D01*
X127750000Y-100500000D02*
X132250000Y-100500000D01*
X132250000Y-94000000D02*
X127750000Y-94000000D01*
X133500000Y-98000000D02*
X133500000Y-96500000D01*
%TD*%
%LPC*%
D13*
%TO.C,SW1*%
X87750000Y-95000000D03*
X94250000Y-95000000D03*
X87750000Y-99500000D03*
X94250000Y-99500000D03*
%TD*%
D14*
%TO.C,U1*%
X106190000Y-68000000D03*
X108730000Y-68000000D03*
X113810000Y-68000000D03*
X111270000Y-68000000D03*
%TD*%
D15*
%TO.C,D2*%
X108770000Y-55000000D03*
D16*
X106230000Y-55000000D03*
%TD*%
D13*
%TO.C,SW3*%
X113000000Y-95000000D03*
X119500000Y-95000000D03*
X113000000Y-99500000D03*
X119500000Y-99500000D03*
%TD*%
D17*
%TO.C,R4*%
X92190000Y-69920000D03*
X92190000Y-80080000D03*
%TD*%
D15*
%TO.C,D1*%
X115270000Y-55000000D03*
D16*
X112730000Y-55000000D03*
%TD*%
D17*
%TO.C,R5*%
X128190000Y-69920000D03*
X128190000Y-80080000D03*
%TD*%
%TO.C,R3*%
X87690000Y-69920000D03*
X87690000Y-80080000D03*
%TD*%
%TO.C,R2*%
X99840000Y-60500000D03*
X110000000Y-60500000D03*
%TD*%
D18*
%TO.C,J1*%
X91500000Y-53000000D03*
X96500000Y-58000000D03*
X94000000Y-58000000D03*
X89000000Y-58000000D03*
X86500000Y-58000000D03*
%TD*%
D17*
%TO.C,R1*%
X122580000Y-60500000D03*
X112420000Y-60500000D03*
%TD*%
D13*
%TO.C,SW2*%
X102000000Y-95000000D03*
X108500000Y-95000000D03*
X102000000Y-99500000D03*
X108500000Y-99500000D03*
%TD*%
D19*
%TO.C,SW5*%
X128960000Y-55000000D03*
X124960000Y-55000000D03*
X132960000Y-55000000D03*
%TD*%
D17*
%TO.C,R6*%
X132690000Y-69840000D03*
X132690000Y-80000000D03*
%TD*%
D13*
%TO.C,SW4*%
X126750000Y-95000000D03*
X133250000Y-95000000D03*
X126750000Y-99500000D03*
X133250000Y-99500000D03*
%TD*%
D20*
%TO.C,A1*%
X90990000Y-64800000D03*
D21*
X93530000Y-64800000D03*
X96070000Y-64800000D03*
X98610000Y-64800000D03*
X101150000Y-64800000D03*
X103690000Y-64800000D03*
X106230000Y-64800000D03*
X108770000Y-64800000D03*
X111310000Y-64800000D03*
X113850000Y-64800000D03*
X116390000Y-64800000D03*
X118930000Y-64800000D03*
X121470000Y-64800000D03*
X124010000Y-64800000D03*
X126550000Y-64800000D03*
X129090000Y-64800000D03*
X129090000Y-84520000D03*
X126550000Y-84520000D03*
X124010000Y-84520000D03*
X121470000Y-84520000D03*
X118930000Y-84520000D03*
X116390000Y-84520000D03*
X113850000Y-84520000D03*
X111310000Y-84520000D03*
X108770000Y-84520000D03*
X106230000Y-84520000D03*
X103690000Y-84520000D03*
X101150000Y-84520000D03*
%TD*%
%LPD*%
M02*
