%TF.GenerationSoftware,KiCad,Pcbnew,10.0.2*%
%TF.CreationDate,2026-08-04T12:33:49+10:00*%
%TF.ProjectId,pedal-counter,70656461-6c2d-4636-9f75-6e7465722e6b,rev?*%
%TF.SameCoordinates,Original*%
%TF.FileFunction,Soldermask,Top*%
%TF.FilePolarity,Negative*%
%FSLAX46Y46*%
G04 Gerber Fmt 4.6, Leading zero omitted, Abs format (unit mm)*
G04 Created by KiCad (PCBNEW 10.0.2) date 2026-08-04 12:33:49*
%MOMM*%
%LPD*%
G01*
G04 APERTURE LIST*
G04 Aperture macros list*
%AMRoundRect*
0 Rectangle with rounded corners*
0 $1 Rounding radius*
0 $2 $3 $4 $5 $6 $7 $8 $9 X,Y pos of 4 corners*
0 Add a 4 corners polygon primitive as box body*
4,1,4,$2,$3,$4,$5,$6,$7,$8,$9,$2,$3,0*
0 Add four circle primitives for the rounded corners*
1,1,$1+$1,$2,$3*
1,1,$1+$1,$4,$5*
1,1,$1+$1,$6,$7*
1,1,$1+$1,$8,$9*
0 Add four rect primitives between the rounded corners*
20,1,$1+$1,$2,$3,$4,$5,0*
20,1,$1+$1,$4,$5,$6,$7,0*
20,1,$1+$1,$6,$7,$8,$9,0*
20,1,$1+$1,$8,$9,$2,$3,0*%
G04 Aperture macros list end*
%ADD10C,2.000000*%
%ADD11C,1.700000*%
%ADD12R,1.800000X1.800000*%
%ADD13C,1.800000*%
%ADD14C,1.600000*%
%ADD15C,1.900000*%
%ADD16C,3.600000*%
%ADD17RoundRect,0.250000X-0.550000X1.050000X-0.550000X-1.050000X0.550000X-1.050000X0.550000X1.050000X0*%
%ADD18O,1.600000X2.600000*%
G04 APERTURE END LIST*
D10*
%TO.C,SW1*%
X87750000Y-95000000D03*
X94250000Y-95000000D03*
X87750000Y-99500000D03*
X94250000Y-99500000D03*
%TD*%
D11*
%TO.C,U1*%
X106190000Y-68000000D03*
X108730000Y-68000000D03*
X113810000Y-68000000D03*
X111270000Y-68000000D03*
%TD*%
D12*
%TO.C,D2*%
X108770000Y-55000000D03*
D13*
X106230000Y-55000000D03*
%TD*%
D10*
%TO.C,SW3*%
X113000000Y-95000000D03*
X119500000Y-95000000D03*
X113000000Y-99500000D03*
X119500000Y-99500000D03*
%TD*%
D14*
%TO.C,R4*%
X92190000Y-69920000D03*
X92190000Y-80080000D03*
%TD*%
D12*
%TO.C,D1*%
X115270000Y-55000000D03*
D13*
X112730000Y-55000000D03*
%TD*%
D14*
%TO.C,R5*%
X128190000Y-69920000D03*
X128190000Y-80080000D03*
%TD*%
%TO.C,R3*%
X87690000Y-69920000D03*
X87690000Y-80080000D03*
%TD*%
%TO.C,R2*%
X99840000Y-60500000D03*
X110000000Y-60500000D03*
%TD*%
D15*
%TO.C,J1*%
X91500000Y-53000000D03*
X96500000Y-58000000D03*
X94000000Y-58000000D03*
X89000000Y-58000000D03*
X86500000Y-58000000D03*
%TD*%
D14*
%TO.C,R1*%
X122580000Y-60500000D03*
X112420000Y-60500000D03*
%TD*%
D10*
%TO.C,SW2*%
X102000000Y-95000000D03*
X108500000Y-95000000D03*
X102000000Y-99500000D03*
X108500000Y-99500000D03*
%TD*%
D16*
%TO.C,SW5*%
X128960000Y-55000000D03*
X124960000Y-55000000D03*
X132960000Y-55000000D03*
%TD*%
D14*
%TO.C,R6*%
X132690000Y-69840000D03*
X132690000Y-80000000D03*
%TD*%
D10*
%TO.C,SW4*%
X126750000Y-95000000D03*
X133250000Y-95000000D03*
X126750000Y-99500000D03*
X133250000Y-99500000D03*
%TD*%
D17*
%TO.C,A1*%
X90990000Y-64800000D03*
D18*
X93530000Y-64800000D03*
X96070000Y-64800000D03*
X98610000Y-64800000D03*
X101150000Y-64800000D03*
X103690000Y-64800000D03*
X106230000Y-64800000D03*
X108770000Y-64800000D03*
X111310000Y-64800000D03*
X113850000Y-64800000D03*
X116390000Y-64800000D03*
X118930000Y-64800000D03*
X121470000Y-64800000D03*
X124010000Y-64800000D03*
X126550000Y-64800000D03*
X129090000Y-64800000D03*
X129090000Y-84520000D03*
X126550000Y-84520000D03*
X124010000Y-84520000D03*
X121470000Y-84520000D03*
X118930000Y-84520000D03*
X116390000Y-84520000D03*
X113850000Y-84520000D03*
X111310000Y-84520000D03*
X108770000Y-84520000D03*
X106230000Y-84520000D03*
X103690000Y-84520000D03*
X101150000Y-84520000D03*
%TD*%
M02*
