M48
; DRILL file KiCad 10.0.2 date 2026-08-04T12:34:33
; FORMAT={-:-/ absolute / metric / decimal}
; #@! TF.CreationDate,2026-08-04T12:34:33+10:00
; #@! TF.GenerationSoftware,Kicad,Pcbnew,10.0.2
; #@! TF.FileFunction,Plated,1,2,PTH
FMAT,2
METRIC
; #@! TA.AperFunction,Plated,PTH,ViaDrill
T1C0.300
; #@! TA.AperFunction,Plated,PTH,ComponentDrill
T2C0.800
; #@! TA.AperFunction,Plated,PTH,ComponentDrill
T3C0.900
; #@! TA.AperFunction,Plated,PTH,ComponentDrill
T4C1.000
; #@! TA.AperFunction,Plated,PTH,ComponentDrill
T5C1.100
; #@! TA.AperFunction,Plated,PTH,ComponentDrill
T6C1.300
; #@! TA.AperFunction,Plated,PTH,ComponentDrill
T7C2.300
%
G90
G05
T1
X97.5Y-97.5
X122.0Y-71.5
X125.5Y-82.0
X126.5Y-81.5
T2
X87.69Y-69.92
X87.69Y-80.08
X92.19Y-69.92
X92.19Y-80.08
X99.84Y-60.5
X110.0Y-60.5
X112.42Y-60.5
X122.58Y-60.5
X128.19Y-69.92
X128.19Y-80.08
X132.69Y-69.84
X132.69Y-80.0
T3
X106.23Y-55.0
X108.77Y-55.0
X112.73Y-55.0
X115.27Y-55.0
T4
X90.99Y-64.5
X93.53Y-64.5
X96.07Y-64.5
X98.61Y-64.5
X101.15Y-64.5
X101.15Y-84.82
X103.69Y-64.5
X103.69Y-84.82
X106.19Y-68.0
X106.23Y-64.5
X106.23Y-84.82
X108.73Y-68.0
X108.77Y-64.5
X108.77Y-84.82
X111.27Y-68.0
X111.31Y-64.5
X111.31Y-84.82
X113.81Y-68.0
X113.85Y-64.5
X113.85Y-84.82
X116.39Y-64.5
X116.39Y-84.82
X118.93Y-64.5
X118.93Y-84.82
X121.47Y-64.5
X121.47Y-84.82
X124.01Y-64.5
X124.01Y-84.82
X126.55Y-64.5
X126.55Y-84.82
X129.09Y-64.5
X129.09Y-84.82
T5
X87.75Y-95.0
X87.75Y-99.5
X94.25Y-95.0
X94.25Y-99.5
X102.0Y-95.0
X102.0Y-99.5
X108.5Y-95.0
X108.5Y-99.5
X113.0Y-95.0
X113.0Y-99.5
X119.5Y-95.0
X119.5Y-99.5
X126.75Y-95.0
X126.75Y-99.5
X133.25Y-95.0
X133.25Y-99.5
T6
X86.5Y-58.0
X89.0Y-58.0
X91.5Y-53.0
X94.0Y-58.0
X96.5Y-58.0
T7
X124.96Y-55.0
X128.96Y-55.0
X132.96Y-55.0
M30
