%TF.GenerationSoftware,KiCad,Pcbnew,10.0.2*%
%TF.CreationDate,2026-08-04T12:33:49+10:00*%
%TF.ProjectId,pedal-counter,70656461-6c2d-4636-9f75-6e7465722e6b,rev?*%
%TF.SameCoordinates,Original*%
%TF.FileFunction,Legend,Bot*%
%TF.FilePolarity,Positive*%
%FSLAX46Y46*%
G04 Gerber Fmt 4.6, Leading zero omitted, Abs format (unit mm)*
G04 Created by KiCad (PCBNEW 10.0.2) date 2026-08-04 12:33:49*
%MOMM*%
%LPD*%
G01*
G04 APERTURE LIST*
G04 Aperture macros list*
%AMRoundRect*
0 Rectangle with rounded corners*
0 $1 Rounding radius*
0 $2 $3 $4 $5 $6 $7 $8 $9 X,Y pos of 4 corners*
0 Add a 4 corners polygon primitive as box body*
4,1,4,$2,$3,$4,$5,$6,$7,$8,$9,$2,$3,0*
0 Add four circle primitives for the rounded corners*
1,1,$1+$1,$2,$3*
1,1,$1+$1,$4,$5*
1,1,$1+$1,$6,$7*
1,1,$1+$1,$8,$9*
0 Add four rect primitives between the rounded corners*
20,1,$1+$1,$2,$3,$4,$5,0*
20,1,$1+$1,$4,$5,$6,$7,0*
20,1,$1+$1,$6,$7,$8,$9,0*
20,1,$1+$1,$8,$9,$2,$3,0*%
G04 Aperture macros list end*
%ADD10C,0.150000*%
%ADD11C,0.120000*%
%ADD12C,2.000000*%
%ADD13C,1.700000*%
%ADD14R,1.800000X1.800000*%
%ADD15C,1.800000*%
%ADD16C,1.600000*%
%ADD17C,1.900000*%
%ADD18C,3.600000*%
%ADD19RoundRect,0.250000X-0.550000X1.050000X-0.550000X-1.050000X0.550000X-1.050000X0.550000X1.050000X0*%
%ADD20O,1.600000X2.600000*%
G04 APERTURE END LIST*
D10*
X110714285Y-75669104D02*
X110238095Y-75669104D01*
X110809523Y-75954819D02*
X110476190Y-74954819D01*
X110476190Y-74954819D02*
X110142857Y-75954819D01*
X109285714Y-75954819D02*
X109857142Y-75954819D01*
X109571428Y-75954819D02*
X109571428Y-74954819D01*
X109571428Y-74954819D02*
X109666666Y-75097676D01*
X109666666Y-75097676D02*
X109761904Y-75192914D01*
X109761904Y-75192914D02*
X109857142Y-75240533D01*
X122928572Y-78169104D02*
X122452382Y-78169104D01*
X123023810Y-78454819D02*
X122690477Y-77454819D01*
X122690477Y-77454819D02*
X122357144Y-78454819D01*
X121595239Y-78454819D02*
X121595239Y-77454819D01*
X121595239Y-78407200D02*
X121690477Y-78454819D01*
X121690477Y-78454819D02*
X121880953Y-78454819D01*
X121880953Y-78454819D02*
X121976191Y-78407200D01*
X121976191Y-78407200D02*
X122023810Y-78359580D01*
X122023810Y-78359580D02*
X122071429Y-78264342D01*
X122071429Y-78264342D02*
X122071429Y-77978628D01*
X122071429Y-77978628D02*
X122023810Y-77883390D01*
X122023810Y-77883390D02*
X121976191Y-77835771D01*
X121976191Y-77835771D02*
X121880953Y-77788152D01*
X121880953Y-77788152D02*
X121690477Y-77788152D01*
X121690477Y-77788152D02*
X121595239Y-77835771D01*
X120690477Y-78454819D02*
X120690477Y-77931009D01*
X120690477Y-77931009D02*
X120738096Y-77835771D01*
X120738096Y-77835771D02*
X120833334Y-77788152D01*
X120833334Y-77788152D02*
X121023810Y-77788152D01*
X121023810Y-77788152D02*
X121119048Y-77835771D01*
X120690477Y-78407200D02*
X120785715Y-78454819D01*
X120785715Y-78454819D02*
X121023810Y-78454819D01*
X121023810Y-78454819D02*
X121119048Y-78407200D01*
X121119048Y-78407200D02*
X121166667Y-78311961D01*
X121166667Y-78311961D02*
X121166667Y-78216723D01*
X121166667Y-78216723D02*
X121119048Y-78121485D01*
X121119048Y-78121485D02*
X121023810Y-78073866D01*
X121023810Y-78073866D02*
X120785715Y-78073866D01*
X120785715Y-78073866D02*
X120690477Y-78026247D01*
X120357143Y-77788152D02*
X119976191Y-77788152D01*
X120214286Y-78454819D02*
X120214286Y-77597676D01*
X120214286Y-77597676D02*
X120166667Y-77502438D01*
X120166667Y-77502438D02*
X120071429Y-77454819D01*
X120071429Y-77454819D02*
X119976191Y-77454819D01*
X119642857Y-78454819D02*
X119642857Y-77788152D01*
X119642857Y-77978628D02*
X119595238Y-77883390D01*
X119595238Y-77883390D02*
X119547619Y-77835771D01*
X119547619Y-77835771D02*
X119452381Y-77788152D01*
X119452381Y-77788152D02*
X119357143Y-77788152D01*
X118595238Y-77788152D02*
X118595238Y-78454819D01*
X119023809Y-77788152D02*
X119023809Y-78311961D01*
X119023809Y-78311961D02*
X118976190Y-78407200D01*
X118976190Y-78407200D02*
X118880952Y-78454819D01*
X118880952Y-78454819D02*
X118738095Y-78454819D01*
X118738095Y-78454819D02*
X118642857Y-78407200D01*
X118642857Y-78407200D02*
X118595238Y-78359580D01*
X118119047Y-78454819D02*
X118119047Y-77788152D01*
X118119047Y-77454819D02*
X118166666Y-77502438D01*
X118166666Y-77502438D02*
X118119047Y-77550057D01*
X118119047Y-77550057D02*
X118071428Y-77502438D01*
X118071428Y-77502438D02*
X118119047Y-77454819D01*
X118119047Y-77454819D02*
X118119047Y-77550057D01*
X117785714Y-77788152D02*
X117404762Y-77788152D01*
X117642857Y-77454819D02*
X117642857Y-78311961D01*
X117642857Y-78311961D02*
X117595238Y-78407200D01*
X117595238Y-78407200D02*
X117500000Y-78454819D01*
X117500000Y-78454819D02*
X117404762Y-78454819D01*
X117309524Y-78550057D02*
X116547619Y-78550057D01*
X115976190Y-77931009D02*
X116309523Y-77931009D01*
X116309523Y-78454819D02*
X116309523Y-77454819D01*
X116309523Y-77454819D02*
X115833333Y-77454819D01*
X115071428Y-78407200D02*
X115166666Y-78454819D01*
X115166666Y-78454819D02*
X115357142Y-78454819D01*
X115357142Y-78454819D02*
X115452380Y-78407200D01*
X115452380Y-78407200D02*
X115499999Y-78311961D01*
X115499999Y-78311961D02*
X115499999Y-77931009D01*
X115499999Y-77931009D02*
X115452380Y-77835771D01*
X115452380Y-77835771D02*
X115357142Y-77788152D01*
X115357142Y-77788152D02*
X115166666Y-77788152D01*
X115166666Y-77788152D02*
X115071428Y-77835771D01*
X115071428Y-77835771D02*
X115023809Y-77931009D01*
X115023809Y-77931009D02*
X115023809Y-78026247D01*
X115023809Y-78026247D02*
X115499999Y-78121485D01*
X114166666Y-78454819D02*
X114166666Y-77931009D01*
X114166666Y-77931009D02*
X114214285Y-77835771D01*
X114214285Y-77835771D02*
X114309523Y-77788152D01*
X114309523Y-77788152D02*
X114499999Y-77788152D01*
X114499999Y-77788152D02*
X114595237Y-77835771D01*
X114166666Y-78407200D02*
X114261904Y-78454819D01*
X114261904Y-78454819D02*
X114499999Y-78454819D01*
X114499999Y-78454819D02*
X114595237Y-78407200D01*
X114595237Y-78407200D02*
X114642856Y-78311961D01*
X114642856Y-78311961D02*
X114642856Y-78216723D01*
X114642856Y-78216723D02*
X114595237Y-78121485D01*
X114595237Y-78121485D02*
X114499999Y-78073866D01*
X114499999Y-78073866D02*
X114261904Y-78073866D01*
X114261904Y-78073866D02*
X114166666Y-78026247D01*
X113833332Y-77788152D02*
X113452380Y-77788152D01*
X113690475Y-77454819D02*
X113690475Y-78311961D01*
X113690475Y-78311961D02*
X113642856Y-78407200D01*
X113642856Y-78407200D02*
X113547618Y-78454819D01*
X113547618Y-78454819D02*
X113452380Y-78454819D01*
X113119046Y-78454819D02*
X113119046Y-77454819D01*
X112690475Y-78454819D02*
X112690475Y-77931009D01*
X112690475Y-77931009D02*
X112738094Y-77835771D01*
X112738094Y-77835771D02*
X112833332Y-77788152D01*
X112833332Y-77788152D02*
X112976189Y-77788152D01*
X112976189Y-77788152D02*
X113071427Y-77835771D01*
X113071427Y-77835771D02*
X113119046Y-77883390D01*
X111833332Y-78407200D02*
X111928570Y-78454819D01*
X111928570Y-78454819D02*
X112119046Y-78454819D01*
X112119046Y-78454819D02*
X112214284Y-78407200D01*
X112214284Y-78407200D02*
X112261903Y-78311961D01*
X112261903Y-78311961D02*
X112261903Y-77931009D01*
X112261903Y-77931009D02*
X112214284Y-77835771D01*
X112214284Y-77835771D02*
X112119046Y-77788152D01*
X112119046Y-77788152D02*
X111928570Y-77788152D01*
X111928570Y-77788152D02*
X111833332Y-77835771D01*
X111833332Y-77835771D02*
X111785713Y-77931009D01*
X111785713Y-77931009D02*
X111785713Y-78026247D01*
X111785713Y-78026247D02*
X112261903Y-78121485D01*
X111357141Y-78454819D02*
X111357141Y-77788152D01*
X111357141Y-77978628D02*
X111309522Y-77883390D01*
X111309522Y-77883390D02*
X111261903Y-77835771D01*
X111261903Y-77835771D02*
X111166665Y-77788152D01*
X111166665Y-77788152D02*
X111071427Y-77788152D01*
X110976189Y-78550057D02*
X110214284Y-78550057D01*
X109976188Y-78454819D02*
X109976188Y-77454819D01*
X109976188Y-77931009D02*
X109404760Y-77931009D01*
X109404760Y-78454819D02*
X109404760Y-77454819D01*
X108928569Y-77454819D02*
X108928569Y-78264342D01*
X108928569Y-78264342D02*
X108880950Y-78359580D01*
X108880950Y-78359580D02*
X108833331Y-78407200D01*
X108833331Y-78407200D02*
X108738093Y-78454819D01*
X108738093Y-78454819D02*
X108547617Y-78454819D01*
X108547617Y-78454819D02*
X108452379Y-78407200D01*
X108452379Y-78407200D02*
X108404760Y-78359580D01*
X108404760Y-78359580D02*
X108357141Y-78264342D01*
X108357141Y-78264342D02*
X108357141Y-77454819D01*
X107976188Y-77454819D02*
X107309522Y-77454819D01*
X107309522Y-77454819D02*
X107976188Y-78454819D01*
X107976188Y-78454819D02*
X107309522Y-78454819D01*
X107023807Y-77454819D02*
X106357141Y-77454819D01*
X106357141Y-77454819D02*
X107023807Y-78454819D01*
X107023807Y-78454819D02*
X106357141Y-78454819D01*
X106023807Y-78169104D02*
X105547617Y-78169104D01*
X106119045Y-78454819D02*
X105785712Y-77454819D01*
X105785712Y-77454819D02*
X105452379Y-78454819D01*
X105119045Y-78454819D02*
X105119045Y-77454819D01*
X105119045Y-77931009D02*
X104547617Y-77931009D01*
X104547617Y-78454819D02*
X104547617Y-77454819D01*
X104166664Y-77454819D02*
X103547617Y-77454819D01*
X103547617Y-77454819D02*
X103880950Y-77835771D01*
X103880950Y-77835771D02*
X103738093Y-77835771D01*
X103738093Y-77835771D02*
X103642855Y-77883390D01*
X103642855Y-77883390D02*
X103595236Y-77931009D01*
X103595236Y-77931009D02*
X103547617Y-78026247D01*
X103547617Y-78026247D02*
X103547617Y-78264342D01*
X103547617Y-78264342D02*
X103595236Y-78359580D01*
X103595236Y-78359580D02*
X103642855Y-78407200D01*
X103642855Y-78407200D02*
X103738093Y-78454819D01*
X103738093Y-78454819D02*
X104023807Y-78454819D01*
X104023807Y-78454819D02*
X104119045Y-78407200D01*
X104119045Y-78407200D02*
X104166664Y-78359580D01*
X103166664Y-77550057D02*
X103119045Y-77502438D01*
X103119045Y-77502438D02*
X103023807Y-77454819D01*
X103023807Y-77454819D02*
X102785712Y-77454819D01*
X102785712Y-77454819D02*
X102690474Y-77502438D01*
X102690474Y-77502438D02*
X102642855Y-77550057D01*
X102642855Y-77550057D02*
X102595236Y-77645295D01*
X102595236Y-77645295D02*
X102595236Y-77740533D01*
X102595236Y-77740533D02*
X102642855Y-77883390D01*
X102642855Y-77883390D02*
X103214283Y-78454819D01*
X103214283Y-78454819D02*
X102595236Y-78454819D01*
X102404760Y-78550057D02*
X101642855Y-78550057D01*
X101404759Y-77931009D02*
X101071426Y-77931009D01*
X100928569Y-78454819D02*
X101404759Y-78454819D01*
X101404759Y-78454819D02*
X101404759Y-77454819D01*
X101404759Y-77454819D02*
X100928569Y-77454819D01*
X100547616Y-78407200D02*
X100404759Y-78454819D01*
X100404759Y-78454819D02*
X100166664Y-78454819D01*
X100166664Y-78454819D02*
X100071426Y-78407200D01*
X100071426Y-78407200D02*
X100023807Y-78359580D01*
X100023807Y-78359580D02*
X99976188Y-78264342D01*
X99976188Y-78264342D02*
X99976188Y-78169104D01*
X99976188Y-78169104D02*
X100023807Y-78073866D01*
X100023807Y-78073866D02*
X100071426Y-78026247D01*
X100071426Y-78026247D02*
X100166664Y-77978628D01*
X100166664Y-77978628D02*
X100357140Y-77931009D01*
X100357140Y-77931009D02*
X100452378Y-77883390D01*
X100452378Y-77883390D02*
X100499997Y-77835771D01*
X100499997Y-77835771D02*
X100547616Y-77740533D01*
X100547616Y-77740533D02*
X100547616Y-77645295D01*
X100547616Y-77645295D02*
X100499997Y-77550057D01*
X100499997Y-77550057D02*
X100452378Y-77502438D01*
X100452378Y-77502438D02*
X100357140Y-77454819D01*
X100357140Y-77454819D02*
X100119045Y-77454819D01*
X100119045Y-77454819D02*
X99976188Y-77502438D01*
X99547616Y-78454819D02*
X99547616Y-77454819D01*
X99547616Y-77454819D02*
X99166664Y-77454819D01*
X99166664Y-77454819D02*
X99071426Y-77502438D01*
X99071426Y-77502438D02*
X99023807Y-77550057D01*
X99023807Y-77550057D02*
X98976188Y-77645295D01*
X98976188Y-77645295D02*
X98976188Y-77788152D01*
X98976188Y-77788152D02*
X99023807Y-77883390D01*
X99023807Y-77883390D02*
X99071426Y-77931009D01*
X99071426Y-77931009D02*
X99166664Y-77978628D01*
X99166664Y-77978628D02*
X99547616Y-77978628D01*
X98642854Y-77454819D02*
X98023807Y-77454819D01*
X98023807Y-77454819D02*
X98357140Y-77835771D01*
X98357140Y-77835771D02*
X98214283Y-77835771D01*
X98214283Y-77835771D02*
X98119045Y-77883390D01*
X98119045Y-77883390D02*
X98071426Y-77931009D01*
X98071426Y-77931009D02*
X98023807Y-78026247D01*
X98023807Y-78026247D02*
X98023807Y-78264342D01*
X98023807Y-78264342D02*
X98071426Y-78359580D01*
X98071426Y-78359580D02*
X98119045Y-78407200D01*
X98119045Y-78407200D02*
X98214283Y-78454819D01*
X98214283Y-78454819D02*
X98499997Y-78454819D01*
X98499997Y-78454819D02*
X98595235Y-78407200D01*
X98595235Y-78407200D02*
X98642854Y-78359580D01*
X97642854Y-77550057D02*
X97595235Y-77502438D01*
X97595235Y-77502438D02*
X97499997Y-77454819D01*
X97499997Y-77454819D02*
X97261902Y-77454819D01*
X97261902Y-77454819D02*
X97166664Y-77502438D01*
X97166664Y-77502438D02*
X97119045Y-77550057D01*
X97119045Y-77550057D02*
X97071426Y-77645295D01*
X97071426Y-77645295D02*
X97071426Y-77740533D01*
X97071426Y-77740533D02*
X97119045Y-77883390D01*
X97119045Y-77883390D02*
X97690473Y-78454819D01*
X97690473Y-78454819D02*
X97071426Y-78454819D01*
%TO.C,A1*%
D11*
X84530000Y-83550000D02*
X84530000Y-65770000D01*
X87180000Y-63120000D02*
X132900000Y-63120000D01*
X87180000Y-86200000D02*
X132900000Y-86200000D01*
X91990000Y-62800000D02*
X89990000Y-62800000D01*
X135550000Y-83550000D02*
X135550000Y-65770000D01*
X84530000Y-65770000D02*
G75*
G02*
X87180000Y-63120000I2650000J0D01*
G01*
X87180000Y-86200000D02*
G75*
G02*
X84530000Y-83550000I0J2650000D01*
G01*
X132900000Y-63120000D02*
G75*
G02*
X135550000Y-65770000I0J-2650000D01*
G01*
X135550000Y-83550000D02*
G75*
G02*
X132900000Y-86200000I-2650000J0D01*
G01*
%TD*%
%LPC*%
D12*
%TO.C,SW1*%
X87750000Y-95000000D03*
X94250000Y-95000000D03*
X87750000Y-99500000D03*
X94250000Y-99500000D03*
%TD*%
D13*
%TO.C,U1*%
X106190000Y-68000000D03*
X108730000Y-68000000D03*
X113810000Y-68000000D03*
X111270000Y-68000000D03*
%TD*%
D14*
%TO.C,D2*%
X108770000Y-55000000D03*
D15*
X106230000Y-55000000D03*
%TD*%
D12*
%TO.C,SW3*%
X113000000Y-95000000D03*
X119500000Y-95000000D03*
X113000000Y-99500000D03*
X119500000Y-99500000D03*
%TD*%
D16*
%TO.C,R4*%
X92190000Y-69920000D03*
X92190000Y-80080000D03*
%TD*%
D14*
%TO.C,D1*%
X115270000Y-55000000D03*
D15*
X112730000Y-55000000D03*
%TD*%
D16*
%TO.C,R5*%
X128190000Y-69920000D03*
X128190000Y-80080000D03*
%TD*%
%TO.C,R3*%
X87690000Y-69920000D03*
X87690000Y-80080000D03*
%TD*%
%TO.C,R2*%
X99840000Y-60500000D03*
X110000000Y-60500000D03*
%TD*%
D17*
%TO.C,J1*%
X91500000Y-53000000D03*
X96500000Y-58000000D03*
X94000000Y-58000000D03*
X89000000Y-58000000D03*
X86500000Y-58000000D03*
%TD*%
D16*
%TO.C,R1*%
X122580000Y-60500000D03*
X112420000Y-60500000D03*
%TD*%
D12*
%TO.C,SW2*%
X102000000Y-95000000D03*
X108500000Y-95000000D03*
X102000000Y-99500000D03*
X108500000Y-99500000D03*
%TD*%
D18*
%TO.C,SW5*%
X128960000Y-55000000D03*
X124960000Y-55000000D03*
X132960000Y-55000000D03*
%TD*%
D16*
%TO.C,R6*%
X132690000Y-69840000D03*
X132690000Y-80000000D03*
%TD*%
D12*
%TO.C,SW4*%
X126750000Y-95000000D03*
X133250000Y-95000000D03*
X126750000Y-99500000D03*
X133250000Y-99500000D03*
%TD*%
D19*
%TO.C,A1*%
X90990000Y-64800000D03*
D20*
X93530000Y-64800000D03*
X96070000Y-64800000D03*
X98610000Y-64800000D03*
X101150000Y-64800000D03*
X103690000Y-64800000D03*
X106230000Y-64800000D03*
X108770000Y-64800000D03*
X111310000Y-64800000D03*
X113850000Y-64800000D03*
X116390000Y-64800000D03*
X118930000Y-64800000D03*
X121470000Y-64800000D03*
X124010000Y-64800000D03*
X126550000Y-64800000D03*
X129090000Y-64800000D03*
X129090000Y-84520000D03*
X126550000Y-84520000D03*
X124010000Y-84520000D03*
X121470000Y-84520000D03*
X118930000Y-84520000D03*
X116390000Y-84520000D03*
X113850000Y-84520000D03*
X111310000Y-84520000D03*
X108770000Y-84520000D03*
X106230000Y-84520000D03*
X103690000Y-84520000D03*
X101150000Y-84520000D03*
%TD*%
%LPD*%
M02*
